<?xml version="1.0" standalone="no"?>
<!DOCTYPE svg PUBLIC "-//W3C//DTD SVG 1.1//EN" "http://www.w3.org/Graphics/SVG/1.1/DTD/svg11.dtd" >
<svg>
<metadata>
Created by FontForge 20090914 at Tue Dec 31 18:13:07 2019
 By www-data
Copyright (c) 2008 by NORM, Dimitri Bruni + Manuel Krebs. All rights reserved.
</metadata>
<defs>
<font id="ReplicaProTT-Heavy" horiz-adv-x="580" >
  <font-face 
    font-family="Replica ProTT Heavy"
    font-weight="400"
    font-variant="small-caps"
    font-stretch="normal"
    units-per-em="1000"
    panose-1="2 0 5 3 3 0 0 2 0 4"
    ascent="780"
    descent="-220"
    x-height="500"
    cap-height="700"
    bbox="-69.002 -220.004 1550 909.999"
    underline-thickness="20"
    underline-position="-130"
    unicode-range="U+0020-U+FEFF"
  />
<missing-glyph horiz-adv-x="640" 
d="M560 0h-480l-10 10v680l10 10h480l10 -10v-680zM100 40l10 -10h420l10 10v620l-10 10h-420l-10 -10v-620z" />
    <glyph glyph-name="f_i" unicode="fi" horiz-adv-x="665" 
d="M610 0h-150l-10 10v340l-10 10h-140l-10 -10v-340l-10 -10h-150l-10 10v340l-10 10h-80l-10 10v120l10 10h80l10 10v40c0 27.333 4.66699 50.5 14 69.5s21.833 34.5 37.5 46.5s33.667 20.667 54 26s41.833 8 64.5 8h90l10 -10v-120l-10 -10h-60c-20 0 -30 -10 -30 -30
v-20l10 -10h310l10 -10v-480zM610 560h-150l-10 10v120l10 10h150l10 -10v-120z" />
    <glyph glyph-name="f_l" unicode="fl" horiz-adv-x="665" 
d="M610 0h-150l-10 10v340l-10 10h-140l-10 -10v-340l-10 -10h-150l-10 10v340l-10 10h-80l-10 10v120l10 10h80l10 10v40c0 27.333 4.66699 50.5 14 69.5s21.833 34.5 37.5 46.5s33.667 20.667 54 26s41.833 8 64.5 8h90l10 -10v-120l-10 -10h-60c-20 0 -30 -10 -30 -30
v-20l10 -10h140l10 10v180l10 10h150l10 -10v-680z" />
    <glyph glyph-name="f_f" unicode="ff" horiz-adv-x="760" 
d="M610 0h-150l-10 10v340l-10 10h-140l-10 -10v-340l-10 -10h-150l-10 10v340l-10 10h-80l-10 10v120l10 10h80l10 10v40c0 27.333 4.66699 50.5 14 69.5s21.833 34.5 37.5 46.5s33.667 20.667 54 26s41.833 8 64.5 8h90l10 -10v-120l-10 -10h-60c-20 0 -30 -10 -30 -30
v-20l10 -10h140l10 10v40c0 27.333 4.66699 50.5 14 69.5s21.833 34.5 37.5 46.5s33.667 20.667 54 26s41.833 8 64.5 8h120l10 -10v-120l-10 -10h-90c-20 0 -30 -10 -30 -30v-20l10 -10h100l10 -10v-120l-10 -10h-100l-10 -10v-340z" />
    <glyph glyph-name="f_f_i" unicode="ffi" horiz-adv-x="995" 
d="M320 560c-20 0 -30 -10 -30 -30v-20l10 -10h140l10 10v40c0 27.333 4.66699 50.5 14 69.5s21.833 34.5 37.5 46.5s33.667 20.667 54 26s41.833 8 64.5 8h90l10 -10v-120l-10 -10h-60c-20 0 -30 -10 -30 -30v-20l10 -10h310l10 -10v-480l-10 -10h-150l-10 10v340l-10 10
h-140l-10 -10v-340l-10 -10h-150l-10 10v340l-10 10h-140l-10 -10v-340l-10 -10h-150l-10 10v340l-10 10h-80l-10 10v120l10 10h80l10 10v40c0 27.333 4.66699 50.5 14 69.5s21.833 34.5 37.5 46.5s33.667 20.667 54 26s41.833 8 64.5 8h90l10 -10v-120l-10 -10h-60z
M940 560h-150l-10 10v120l10 10h150l10 -10v-120z" />
    <glyph glyph-name="f_f_l" unicode="ffl" horiz-adv-x="995" 
d="M320 560c-20 0 -30 -10 -30 -30v-20l10 -10h140l10 10v40c0 27.333 4.66699 50.5 14 69.5s21.833 34.5 37.5 46.5s33.667 20.667 54 26s41.833 8 64.5 8h90l10 -10v-120l-10 -10h-60c-20 0 -30 -10 -30 -30v-20l10 -10h140l10 10v180l10 10h150l10 -10v-680l-10 -10h-150
l-10 10v340l-10 10h-140l-10 -10v-340l-10 -10h-150l-10 10v340l-10 10h-140l-10 -10v-340l-10 -10h-150l-10 10v340l-10 10h-80l-10 10v120l10 10h80l10 10v40c0 27.333 4.66699 50.5 14 69.5s21.833 34.5 37.5 46.5s33.667 20.667 54 26s41.833 8 64.5 8h90l10 -10v-120
l-10 -10h-60z" />
    <glyph glyph-name=".notdef" horiz-adv-x="640" 
d="M560 0h-480l-10 10v680l10 10h480l10 -10v-680zM100 40l10 -10h420l10 10v620l-10 10h-420l-10 -10v-620z" />
    <glyph glyph-name="space" unicode=" " horiz-adv-x="240" 
 />
    <glyph glyph-name="exclam" unicode="!" horiz-adv-x="420" 
d="M280 270l-10 -10h-120l-10 10l-20 210v210l10 10h160l10 -10v-210zM300 0h-180l-10 10v160l10 10h180l10 -10v-160z" />
    <glyph glyph-name="quotedbl" unicode="&#x22;" 
d="M240 390h-160l-10 10v290l10 10h160l10 -10v-290zM500 390h-160l-10 10v290l10 10h160l10 -10v-290z" />
    <glyph glyph-name="numbersign" unicode="#" horiz-adv-x="670" 
d="M640 560l10 -10v-120l-10 -10h-80l-10 -10l-30 -120l10 -10h40l10 -10v-120l-10 -10h-80l-10 -10l-30 -120l-10 -10h-110l-10 10v120l-10 10h-60l-10 -10l-30 -120l-10 -10h-110l-10 10v120l-10 10h-40l-10 10v120l10 10h80l10 10l30 120l-10 10h-40l-10 10v120l10 10h80
l10 10l30 120l10 10h110l10 -10v-120l10 -10h60l10 10l30 120l10 10h110l10 -10v-120l10 -10h40zM290 280h60l10 10l30 120l-10 10h-60l-10 -10l-30 -120z" />
    <glyph glyph-name="dollar" unicode="$" horiz-adv-x="670" 
d="M400 790v-79.9971l10 -10c65.333 -5.33301 116.666 -24.833 153.999 -58.5s56 -80.834 56 -141.501l-10 -10h-160l-10 10c0 15.333 -2.5 26.166 -7.5 32.499s-12.5 12.166 -22.5 17.499l-10 -10v-100l10 -10c50 -10 90.167 -22.833 120.5 -38.5s53.5 -33.167 69.5 -52.5
s26.667 -40 32 -62s8 -44.333 8 -67c0 -25.333 -4.5 -50 -13.5 -74s-22.833 -46 -41.5 -66s-42.5 -37.167 -71.5 -51.5s-63.5 -23.833 -103.5 -28.5l-10 -10v-70l-10 -10h-120l-10 10v70l-10 10c-70.667 15.333 -125 41.166 -163 77.499s-57 87.166 -57 152.499l10 10h160
l10 -10c0 -20 4.16699 -35.333 12.5 -46s17.5 -18.667 27.5 -24l10 10v120l-10 10c-40 7.33301 -73.5 17.833 -100.5 31.5s-48.5 29.834 -64.5 48.501s-27.5 39.834 -34.5 63.501s-10.5 49.167 -10.5 76.5c0 50 17.333 91.667 52 125s87.334 55 158.001 65l10 10v80l10 10
h120zM470 200.003c0 20 -5 33.668 -15 41.001s-25 13.666 -45 18.999l-10 -10v-100l10 -10c40 10 60 30 60 60zM210 510.004c0 -15.333 2.83301 -27.833 8.5 -37.5s16.167 -17.167 31.5 -22.5l10 10v90l-10 10c-15.333 -5.33301 -25.833 -12.5 -31.5 -21.5
s-8.5 -18.5 -8.5 -28.5z" />
    <glyph glyph-name="percent" unicode="%" horiz-adv-x="940" 
d="M340 10l-10 -10h-80l-10 10v120l360 560l10 10h80l10 -10v-120zM220 330c-30 0 -56.833 4.66699 -80.5 14s-43.5 22.5 -59.5 39.5s-28.333 37.167 -37 60.5s-13 48.666 -13 75.999s4.33301 52.666 13 75.999s21 43.5 37 60.5s35.833 30.167 59.5 39.5s50.5 14 80.5 14
s56.833 -4.66699 80.5 -14s43.5 -22.5 59.5 -39.5s28.333 -37.167 37 -60.5s13 -48.666 13 -75.999s-4.33301 -52.666 -13 -75.999s-21 -43.5 -37 -60.5s-35.833 -30.167 -59.5 -39.5s-50.5 -14 -80.5 -14zM170 520c0 -25.333 4.5 -43.333 13.5 -54s21.167 -16 36.5 -16
s27.5 5.33301 36.5 16s13.5 28.667 13.5 54s-4.5 43.333 -13.5 54s-21.167 16 -36.5 16s-27.5 -5.33301 -36.5 -16s-13.5 -28.667 -13.5 -54zM720 -10c-30 0 -56.833 4.66699 -80.5 14s-43.5 22.5 -59.5 39.5s-28.333 37.167 -37 60.5s-13 48.666 -13 75.999
s4.33301 52.666 13 75.999s21 43.5 37 60.5s35.833 30.167 59.5 39.5s50.5 14 80.5 14s56.833 -4.66699 80.5 -14s43.5 -22.5 59.5 -39.5s28.333 -37.167 37 -60.5s13 -48.666 13 -75.999s-4.33301 -52.666 -13 -75.999s-21 -43.5 -37 -60.5s-35.833 -30.167 -59.5 -39.5
s-50.5 -14 -80.5 -14zM670 180c0 -25.333 4.5 -43.333 13.5 -54s21.167 -16 36.5 -16s27.5 5.33301 36.5 16s13.5 28.667 13.5 54s-4.5 43.333 -13.5 54s-21.167 16 -36.5 16s-27.5 -5.33301 -36.5 -16s-13.5 -28.667 -13.5 -54z" />
    <glyph glyph-name="ampersand" unicode="&#x26;" horiz-adv-x="780" 
d="M710 0l-110.002 0.00292969l-20 10l-30 30h-10c-25.333 -15.333 -54.5 -27.5 -87.5 -36.5s-67.167 -13.5 -102.5 -13.5c-47.333 0 -88.666 5.83301 -123.999 17.5s-64.5 27.5 -87.5 47.5s-40.167 43.333 -51.5 70s-17 55 -17 85c0 24.667 3.5 46.667 10.5 66
s16 36.166 27 50.499s23.667 26.666 38 36.999s29.166 19.166 44.499 26.499v10c-15.333 15.333 -29.166 33.333 -41.499 54s-18.5 46 -18.5 76c0 24.667 4.5 48 13.5 70s22.5 41.167 40.5 57.5s40.833 29.166 68.5 38.499s60.167 14 97.5 14s69.333 -4.66699 96 -14
s48.5 -21.833 65.5 -37.5s29.333 -33.667 37 -54s11.5 -41.833 11.5 -64.5c0 -35.333 -9.16699 -69.166 -27.5 -101.499s-42.5 -58.5 -72.5 -78.5v-10l80 -80h10c5.33301 10 10 24.5 14 43.5s6 41.167 6 66.5l10 10h140l10 -10c0 -45.333 -6.16699 -87 -18.5 -125
s-26.166 -69.667 -41.499 -95v-10h40l10 -10v-130zM349.998 130.003c15.333 0 30 2.00293 44 6.00293s26 8.66699 36 14v10l-120 120h-10c-5.33301 -2.66699 -10.833 -5.83398 -16.5 -9.50098s-11 -8.33398 -16 -14.001s-9.16699 -12.334 -12.5 -20.001s-5 -16.5 -5 -26.5
c0 -25.333 9.16699 -45 27.5 -59s42.5 -21 72.5 -21zM309.998 530.006c0 -15.333 2.5 -26.667 7.5 -34s12.5 -16 22.5 -26h10c15.333 10 25.833 20 31.5 30s8.5 20 8.5 30c0 15.333 -4.16699 25.833 -12.5 31.5s-17.5 8.5 -27.5 8.5s-19.167 -2.83301 -27.5 -8.5
s-12.5 -16.167 -12.5 -31.5z" />
    <glyph glyph-name="quotesingle" unicode="'" horiz-adv-x="320" 
d="M240 390h-160l-10 10v290l10 10h160l10 -10v-290z" />
    <glyph glyph-name="parenleft" unicode="(" horiz-adv-x="460" 
d="M70 250c0 36.667 0.499023 68.1709 1.49902 94.5039s3.83301 50 8.5 71s11.667 40.5 21 58.5s22.166 37.167 38.499 57.5s36.833 43 61.5 68l89 90.5l20 10h70l10 -10v-130l-56 -56.5c-15.333 -15.667 -28.166 -30.334 -38.499 -44.001s-18.5 -26.834 -24.5 -39.501
s-10.5 -27 -13.5 -43s-5 -34.167 -6 -54.5s-1.5 -44.5 -1.5 -72.5c0 -28.667 0.5 -53 1.5 -73s3 -38 6 -54s7.5 -30.333 13.5 -43s14.167 -25.834 24.5 -39.501s23.166 -28.5 38.499 -44.5l56 -56v-130l-10 -10h-70l-20 10l-89.5 90
c-24.333 25.333 -44.666 48.166 -60.999 68.499s-29.166 39.5 -38.499 57.5s-16.333 37.5 -21 58.5s-7.5 44.667 -8.5 71s-1.5 57.833 -1.5 94.5z" />
    <glyph glyph-name="parenright" unicode=")" horiz-adv-x="460" 
d="M390 250c0 -36.667 -0.5 -68.1709 -1.5 -94.5039s-3.83301 -50 -8.5 -71s-11.667 -40.5 -21 -58.5s-22.166 -37.167 -38.499 -57.5s-36.833 -43.166 -61.5 -68.499l-89 -90l-20 -10h-70l-10 10v130l55.5 56c15.667 16 28.667 30.833 39 44.5s18.5 26.834 24.5 39.501
s10.5 27 13.5 43s5 34.167 6 54.5s1.5 44.5 1.5 72.5s-0.5 52.167 -1.5 72.5s-3 38.5 -6 54.5s-7.5 30.333 -13.5 43s-14.167 25.834 -24.5 39.501s-23.333 28.334 -39 44.001l-55.5 56.5v130l10 10h70l20 -10l89 -90.5c24.667 -25 45.167 -47.667 61.5 -68
s29.166 -39.5 38.499 -57.5s16.333 -37.5 21 -58.5s7.5 -44.667 8.5 -71s1.5 -57.833 1.5 -94.5z" />
    <glyph glyph-name="asterisk" unicode="*" horiz-adv-x="570" 
d="M280 270l-10 10v160h-10l-110 -110h-10l-10 10v10l110 110v10h-160l-10 10v10l10 10h160v10l-110 110v10l10 10h10l110 -110h10v160l10 10h10l10 -10v-160h10l110 110h10l10 -10v-10l-110 -110v-10h160l10 -10v-10l-10 -10h-160v-10l110 -110v-10l-10 -10h-10l-110 110
h-10v-160l-10 -10h-10z" />
    <glyph glyph-name="plus" unicode="+" horiz-adv-x="600" 
d="M60 320h160l10 10v160l10 10h120l10 -10v-160l10 -10h160l10 -10v-120l-10 -10h-160l-10 -10v-160l-10 -10h-120l-10 10v160l-10 10h-160l-10 10v120z" />
    <glyph glyph-name="comma" unicode="," horiz-adv-x="340" 
d="M260 -30l-100 -120l-20 -10h-80v20l80 120v10l-10 10h-50l-10 10v160l10 10h180l10 -10v-170z" />
    <glyph glyph-name="hyphen" unicode="-" horiz-adv-x="450" 
d="M390 180h-330l-10 10v130l10 10h330l10 -10v-130z" />
    <glyph glyph-name="period" unicode="." horiz-adv-x="340" 
d="M260 0h-180l-10 10v160l10 10h180l10 -10v-160z" />
    <glyph glyph-name="slash" unicode="/" horiz-adv-x="510" 
d="M150 10l-10 -10h-100l-10 10v130l330 550l10 10h100l10 -10v-130z" />
    <glyph glyph-name="zero" unicode="0" horiz-adv-x="630" 
d="M595 350c0 -65.333 -6.16699 -120.666 -18.5 -165.999s-30.333 -82.5 -54 -111.5s-53 -50 -88 -63s-74.833 -19.5 -119.5 -19.5c-45.333 0 -85.333 6.5 -120 19.5s-63.834 34 -87.501 63s-41.667 66.167 -54 111.5s-18.5 100.666 -18.5 165.999
c0 64.667 6.16699 119.834 18.5 165.501s30.333 83 54 112s52.834 50 87.501 63s74.667 19.5 120 19.5c44.667 0 84.5 -6.5 119.5 -19.5s64.333 -34 88 -63s41.667 -66.333 54 -112s18.5 -100.834 18.5 -165.501zM415 350c0 44.667 -2.33301 80.834 -7 108.501
s-11.5 49 -20.5 64s-19.667 25 -32 30s-25.833 7.5 -40.5 7.5c-15.333 0 -29 -2.5 -41 -7.5s-22.5 -15 -31.5 -30s-15.833 -36.333 -20.5 -64s-7 -63.834 -7 -108.501c0 -45.333 2.33301 -81.666 7 -108.999s11.5 -48.5 20.5 -63.5s19.5 -25 31.5 -30s25.667 -7.5 41 -7.5
c14.667 0 28.167 2.5 40.5 7.5s23 15 32 30s15.833 36.167 20.5 63.5s7 63.666 7 108.999z" />
    <glyph glyph-name="one" unicode="1" horiz-adv-x="450" 
d="M210 0l-10 10v460h-10l-70 -70l-20 -10h-60l-10 10v130l160 160l20 10h160l10 -10v-680l-10 -10h-160z" />
    <glyph glyph-name="two" unicode="2" horiz-adv-x="570" 
d="M530 0l-489.999 -0.00195312l-10 10v140l10 20l180 160l57 52c15.333 14.667 27.666 28.167 36.999 40.5s16 24.5 20 36.5s6 25.667 6 41c0 20 -6.16699 35 -18.5 45s-26.166 15 -41.499 15c-25.333 0 -43.333 -6.66699 -54 -20s-16 -30 -16 -50l-10 -10h-160l-10 10
c0 24.667 4.16699 50.167 12.5 76.5s22.166 50 41.499 71s45 38.333 77 52s71.667 20.5 119 20.5c40 0 75 -5.83301 105 -17.5s55 -27.167 75 -46.5s35 -41.666 45 -66.999s15 -51.666 15 -78.999c0 -30 -4.66699 -57.667 -14 -83s-21.5 -49 -36.5 -71s-32 -42.5 -51 -61.5
s-38.5 -37.167 -58.5 -54.5l-80 -70v-10h250l10 -10v-130z" />
    <glyph glyph-name="three" unicode="3" horiz-adv-x="600" 
d="M570 230c0 -35.333 -6.16602 -67.667 -18.499 -97s-30.333 -54.5 -54 -75.5s-53 -37.5 -88 -49.5s-74.833 -18 -119.5 -18c-42.667 0 -80.667 5.83301 -114 17.5s-61.5 27.167 -84.5 46.5s-40.667 41.666 -53 66.999s-18.5 51.666 -18.5 78.999l10 10h160l10 -10
c0 -20 8.66699 -36.667 26 -50s38.666 -20 63.999 -20c30 0 54.167 7.83301 72.5 23.5s27.5 41.167 27.5 76.5c0 34.667 -6.66699 58.334 -20 71.001s-30 19 -50 19c-5.33301 0 -10.833 -0.333008 -16.5 -1s-13.5 -3.66699 -23.5 -9h-100l-10 10v100l140 120v10h-240l-10 10
v130l10 10h440l10 -10v-140l-10 -20l-90 -80v-10c50 -10 87.5 -33.667 112.5 -71s37.5 -83.666 37.5 -138.999z" />
    <glyph glyph-name="four" unicode="4" 
d="M500 0h-160l-10 10v180l-10 10h-300l-10 10v140l10 20l290 320l20 10h170l10 -10v-680zM330 480h-10l-110 -120v-10h110l10 10v120z" />
    <glyph glyph-name="five" unicode="5" horiz-adv-x="620" 
d="M580 250c0 -85.333 -23.6699 -150.002 -71.0029 -194.002s-113.666 -66 -198.999 -66c-42.667 0 -79.667 4.83301 -111 14.5s-57.666 23.167 -78.999 40.5s-37.666 38.333 -48.999 63s-18.333 52 -21 82l10 10h160l10 -10c5.33301 -25.333 15 -41.666 29 -48.999
s31 -11 51 -11c30 0 52.5 9.5 67.5 28.5s22.5 46.167 22.5 81.5c0 30 -5.83301 54.167 -17.5 72.5s-32.5 27.5 -62.5 27.5c-15.333 0 -30 -2.83301 -44 -8.5s-26 -16.167 -36 -31.5l-20 -10l-140 10l-10 10l20 380l10 10h440l10 -10v-130l-10 -10h-275l-10 -10l-5 -90h10
c15.333 10 32.5 17.5 51.5 22.5s38.5 7.5 58.5 7.5c40 0 73.5 -6.83301 100.5 -20.5s48.5 -31.5 64.5 -53.5s27.5 -46.667 34.5 -74s10.5 -54.666 10.5 -81.999z" />
    <glyph glyph-name="six" unicode="6" horiz-adv-x="610" 
d="M320 570c-40 0 -66.668 -14.1641 -80.001 -42.4971s-20 -67.5 -20 -117.5h10c10 15.333 25.333 29.166 46 41.499s48.667 18.5 84 18.5c34.667 0 65.667 -6 93 -18s50.5 -28.5 69.5 -49.5s33.333 -46.333 43 -76s14.5 -61.834 14.5 -96.501
c0 -37.333 -6 -70.833 -18 -100.5s-29.333 -54.834 -52 -75.501s-50 -36.5 -82 -47.5s-68 -16.5 -108 -16.5c-47.333 0 -88.666 6.66699 -123.999 20s-64.5 34.666 -87.5 63.999s-40.167 67.5 -51.5 114.5s-17 104.167 -17 171.5c0 52.667 4.33301 100.5 13 143.5
s23.5 79.833 44.5 110.5s49.5 54.334 85.5 71.001s81.667 25 137 25c30 0 58.833 -3.83301 86.5 -11.5s52.5 -19 74.5 -34s40 -33.667 54 -56s22.333 -48.5 25 -78.5l-10 -10h-160l-10 10c-5.33301 15.333 -12.833 25.833 -22.5 31.5s-22.167 8.5 -37.5 8.5z
M399.999 230.003c0 35.333 -5.83301 60.833 -17.5 76.5s-32.5 23.5 -62.5 23.5c-25.333 0 -45 -7.83301 -59 -23.5s-21 -41.167 -21 -76.5s7 -60.833 21 -76.5s33.667 -23.5 59 -23.5s45 7.83301 59 23.5s21 41.167 21 76.5z" />
    <glyph glyph-name="seven" unicode="7" horiz-adv-x="550" 
d="M520 520l-260 -510l-10 -10h-110l-10 10v130l210 400v10h-300l-10 10v130l10 10h480l10 -10v-140z" />
    <glyph glyph-name="eight" unicode="8" horiz-adv-x="620" 
d="M210 220c0 -25.333 7.83301 -46.666 23.5 -63.999s41.167 -26 76.5 -26s60.833 8.66699 76.5 26s23.5 38.666 23.5 63.999c0 30 -9.16699 52.5 -27.5 67.5s-42.5 22.5 -72.5 22.5s-54.167 -7.5 -72.5 -22.5s-27.5 -37.5 -27.5 -67.5zM230 500c0 -25.333 7 -43.333 21 -54
s33.667 -16 59 -16s45 5.33301 59 16s21 28.667 21 54s-7 43.333 -21 54s-33.667 16 -59 16s-45 -5.33301 -59 -16s-21 -28.667 -21 -54zM310 -10c-47.333 0 -88.668 6.33301 -124.001 19s-64.5 29.334 -87.5 50.001s-40.167 44.167 -51.5 70.5s-17 53.166 -17 80.499
c0 22.667 2.83301 42.834 8.5 60.501s13.167 33 22.5 46s20 23.833 32 32.5s24.333 15.667 37 21v10c-20 10 -38.333 27 -55 51s-25 53.667 -25 89c0 22.667 5.16699 45.334 15.5 68.001s26 43 47 61s47.833 32.667 80.5 44s71.667 17 117 17
c44.667 0 83.5 -5.66699 116.5 -17s60 -26 81 -44s36.667 -38.333 47 -61s15.5 -45.334 15.5 -68.001c0 -35.333 -8.33301 -65 -25 -89s-35 -41 -55 -51v-10c12.667 -5.33301 25 -12.333 37 -21s22.667 -19.5 32 -32.5s16.833 -28.333 22.5 -46s8.5 -37.834 8.5 -60.501
c0 -27.333 -5.66699 -54.166 -17 -80.499s-28.5 -49.833 -51.5 -70.5s-52.167 -37.334 -87.5 -50.001s-76.666 -19 -123.999 -19z" />
    <glyph glyph-name="nine" unicode="9" horiz-adv-x="610" 
d="M290 130c40 0 66.668 14.166 80.001 42.499s20 67.5 20 117.5h-10c-10 -15.333 -25.333 -29.166 -46 -41.499s-48.667 -18.5 -84 -18.5s-66.5 6 -93.5 18s-50 28.5 -69 49.5s-33.333 46.167 -43 75.5s-14.5 61.666 -14.5 96.999c0 37.333 6 70.833 18 100.5
s29.333 54.834 52 75.501s50 36.5 82 47.5s68 16.5 108 16.5c47.333 0 88.666 -6.66699 123.999 -20s64.5 -34.666 87.5 -63.999s40.167 -67.5 51.5 -114.5s17 -104.167 17 -171.5c0 -52.667 -4.33301 -100.5 -13 -143.5s-23.5 -79.833 -44.5 -110.5
s-49.667 -54.334 -86 -71.001s-81.833 -25 -136.5 -25c-30 0 -58.833 3.66699 -86.5 11s-52.5 18.5 -74.5 33.5s-40 33.833 -54 56.5s-22.333 49 -25 79l10 10h160l10 -10c5.33301 -15.333 12.833 -25.833 22.5 -31.5s22.167 -8.5 37.5 -8.5zM210.001 469.999
c0 -35.333 5.83301 -60.833 17.5 -76.5s32.5 -23.5 62.5 -23.5c25.333 0 45 7.83301 59 23.5s21 41.167 21 76.5s-7 60.833 -21 76.5s-33.667 23.5 -59 23.5s-45 -7.83301 -59 -23.5s-21 -41.167 -21 -76.5z" />
    <glyph glyph-name="colon" unicode=":" horiz-adv-x="340" 
d="M260 0h-180l-10 10v160l10 10h180l10 -10v-160zM260 320h-180l-10 10v160l10 10h180l10 -10v-160z" />
    <glyph glyph-name="semicolon" unicode=";" horiz-adv-x="340" 
d="M260 -30l-100 -120l-20 -10h-80v20l80 120v10l-10 10h-50l-10 10v160l10 10h180l10 -10v-170zM260 320h-180l-10 10v160l10 10h180l10 -10v-160z" />
    <glyph glyph-name="less" unicode="&#x3c;" 
d="M70 320l340 180h90l10 -10v-130l-220 -100v-20l220 -100v-130l-10 -10h-90l-340 180l-10 20v100z" />
    <glyph glyph-name="equal" unicode="=" horiz-adv-x="590" 
d="M510 300h-430l-10 10v120l10 10h430l10 -10v-120zM510 60h-430l-10 10v120l10 10h430l10 -10v-120z" />
    <glyph glyph-name="greater" unicode="&#x3e;" 
d="M520 300v-100l-10 -20l-340 -180h-90l-10 10v130l220 100v20l-220 100v130l10 10h90l340 -180z" />
    <glyph glyph-name="question" unicode="?" horiz-adv-x="620" 
d="M560 500c0 -25.333 -4.16504 -47.3379 -12.498 -66.0049s-19 -35.167 -32 -49.5s-27 -27 -42 -38l-42.5 -31c-13.333 -9.66699 -24.833 -18.834 -34.5 -27.501s-15.167 -18 -16.5 -28l-10 -10h-140l-10 10c1.33301 24.667 6.33301 45.834 15 63.501s19 32.834 31 45.501
s24.667 23.834 38 33.501s25.666 19.167 36.999 28.5s20.666 19.333 27.999 30s11 23.667 11 39c0 20 -5.33301 36.667 -16 50s-28.667 20 -54 20c-30 0 -50.833 -7.5 -62.5 -22.5s-17.5 -37.5 -17.5 -67.5l-10 -10h-160l-10 10c0 32.667 5.16699 63 15.5 91
s26 52.333 47 73s47.833 36.834 80.5 48.501s71.667 17.5 117 17.5c42.667 0 79.667 -5.83301 111 -17.5s57.333 -27.167 78 -46.5s36 -41.666 46 -66.999s15 -51.666 15 -78.999zM390.002 -0.00488281h-180l-10 10v160l10 10h180l10 -10v-160z" />
    <glyph glyph-name="at" unicode="@" horiz-adv-x="980" 
d="M490 350c-20 0 -36.667 -6.66699 -50 -20s-20 -40 -20 -80s6.66699 -66.667 20 -80s30 -20 50 -20s35 6.66699 45 20s15 40 15 80s-5 66.667 -15 80s-25 20 -45 20zM460 20c-25.333 0 -49.332 4.50195 -71.999 13.502s-42.834 22.833 -60.501 41.5s-31.667 42.5 -42 71.5
s-15.5 63.5 -15.5 103.5s5.16699 74.5 15.5 103.5s24 52.833 41 71.5s36.167 32.5 57.5 41.5s43.333 13.5 66 13.5c15.333 0 28.5 -2 39.5 -6s20.167 -8.66699 27.5 -14c8.66699 -6 16.334 -12.667 23.001 -20h10l10 20l10 10h110l10 -10v-290
c0 -15.333 4.16699 -25.833 12.5 -31.5s17.5 -8.5 27.5 -8.5c20 0 35 8.66699 45 26s15 48.666 15 93.999c0 44.667 -6.33301 86 -19 124s-31.5 70.833 -56.5 98.5s-56.167 49.167 -93.5 64.5s-81 23 -131 23c-47.333 0 -89.666 -8.66699 -126.999 -26
s-68.833 -40.333 -94.5 -69s-45.167 -61.667 -58.5 -99s-20 -76 -20 -116c0 -42.667 6.66699 -82.834 20 -120.501s32.833 -70.5 58.5 -98.5s57.167 -50.167 94.5 -66.5s79.666 -24.5 126.999 -24.5c30 0 60.833 2 92.5 6s57.5 8.66699 77.5 14h20l10 -10v-100
c-35.333 -15.333 -70 -25.833 -104 -31.5s-66 -8.5 -96 -8.5c-65.333 0 -124.833 11.167 -178.5 33.5s-100 53.166 -139 92.499s-69.167 85.833 -90.5 139.5s-32 111.834 -32 174.501c0 64.667 11.167 124 33.5 178s53.166 100.5 92.499 139.5s85.833 69.167 139.5 90.5
s111.834 32 174.501 32c64.667 0 124 -10.333 178 -31s100.5 -50 139.5 -88s69.167 -84.167 90.5 -138.5s32 -115.166 32 -182.499c0 -45.333 -5.33301 -83.833 -16 -115.5s-25.334 -57.5 -44.001 -77.5s-40.834 -34.5 -66.501 -43.5s-53.5 -13.5 -83.5 -13.5
c-15.333 0 -29.666 2.16699 -42.999 6.5s-25.666 10 -36.999 17s-21.333 14.667 -30 23s-15.334 16.166 -20.001 23.499h-10c-10 -15.333 -25 -27.5 -45 -36.5s-45 -13.5 -75 -13.5z" />
    <glyph glyph-name="A" unicode="A" horiz-adv-x="670" 
d="M470 120l-20 10h-230l-20 -10l-40 -110l-10 -10h-120l-10 10v130l220 550l10 10h170l10 -10l220 -550v-130l-10 -10h-120l-10 10zM260 290l10 -10h130l10 10l-70 190h-10z" />
    <glyph glyph-name="B" unicode="B" horiz-adv-x="700" 
d="M670 190c0 -35.333 -5.66699 -65 -17 -89s-26.5 -43.5 -45.5 -58.5s-40.5 -25.833 -64.5 -32.5s-48.333 -10 -73 -10h-390l-10 10v680l10 10h370c24.667 0 49 -3.33301 73 -10s45.5 -17.167 64.5 -31.5s34.167 -32.833 45.5 -55.5s17 -50.334 17 -83.001
c0 -35.333 -7.83301 -66.666 -23.5 -93.999s-41.167 -46 -76.5 -56v-10c40 -10 70 -29.5 90 -58.5s30 -66.167 30 -111.5zM470 490c0 7.33301 -0.833008 14.668 -2.5 22.001s-5 13.833 -10 19.5s-12.167 10.167 -21.5 13.5s-21.333 5 -36 5h-140l-10 -10v-100l10 -10h140
c14.667 0 26.667 1.66699 36 5s16.5 7.83301 21.5 13.5s8.33301 12.167 10 19.5s2.5 14.666 2.5 21.999zM490 220.002c0 25.333 -6.16699 43.333 -18.5 54s-36.166 16 -71.499 16h-140l-10 -10v-120l10 -10h140c35.333 0 59.166 5.33301 71.499 16s18.5 28.667 18.5 54z" />
    <glyph glyph-name="C" unicode="C" horiz-adv-x="730" 
d="M380 -10c-47.333 0 -92.165 7.5 -134.498 22.5s-79.5 37.5 -111.5 67.5s-57.333 67.5 -76 112.5s-28 97.5 -28 157.5s9.33301 112.5 28 157.5s44 82.5 76 112.5s69.167 52.5 111.5 67.5s87.166 22.5 134.499 22.5c44.667 0 85.167 -5.33301 121.5 -16s68 -25.667 95 -45
s49.167 -42.5 66.5 -69.5s29.666 -56.833 36.999 -89.5l-10 -10h-167l-13 10c-10 20 -24.167 36.667 -42.5 50s-47.5 20 -87.5 20c-22.667 0 -44.167 -3.5 -64.5 -10.5s-38.333 -18.5 -54 -34.5s-28.167 -37.5 -37.5 -64.5s-14 -60.5 -14 -100.5s4.66699 -73.5 14 -100.5
s21.833 -48.5 37.5 -64.5s33.667 -27.5 54 -34.5s41.833 -10.5 64.5 -10.5c40 0 69.167 7 87.5 21s32.5 33.667 42.5 59l13 10h167l10 -10c-15.333 -70 -50 -125.833 -104 -167.5s-126 -62.5 -216 -62.5z" />
    <glyph glyph-name="D" unicode="D" horiz-adv-x="710" 
d="M680 350c0 -55.333 -6.5 -104.667 -19.5 -148s-33.5 -80 -61.5 -110s-64.167 -52.833 -108.5 -68.5s-97.833 -23.5 -160.5 -23.5h-250l-10 10v680l10 10h250c62.667 0 116.167 -8 160.5 -24s80.5 -39 108.5 -69s48.5 -66.667 61.5 -110s19.5 -92.333 19.5 -147z
M500 349.999c0 40 -3.16699 72.833 -9.5 98.5s-16 46 -29 61s-29.667 25.5 -50 31.5s-44.166 9 -71.499 9h-80l-10 -10v-380l10 -10h80c27.333 0 51.166 2.83301 71.499 8.5s37 16 50 31s22.667 35.5 29 61.5s9.5 59 9.5 99z" />
    <glyph glyph-name="E" unicode="E" horiz-adv-x="650" 
d="M590 0h-510l-10 10v680l10 10h510l10 -10v-130l-10 -10h-330l-10 -10v-100l10 -10h310l10 -10v-130l-10 -10h-310l-10 -10v-110l10 -10h330l10 -10v-130z" />
    <glyph glyph-name="F" unicode="F" horiz-adv-x="600" 
d="M560 550h-300l-10 -10v-110l10 -10h280l10 -10v-130l-10 -10h-280l-10 -10v-250l-10 -10h-160l-10 10v680l10 10h480l10 -10v-130z" />
    <glyph glyph-name="G" unicode="G" horiz-adv-x="760" 
d="M390 560c-27.333 0 -52.1641 -3.50391 -74.4971 -10.5039s-41.333 -18.5 -57 -34.5s-27.667 -37.5 -36 -64.5s-12.5 -60.5 -12.5 -100.5c0 -42.667 4.66699 -77.5 14 -104.5s22.166 -48.333 38.499 -64s35.333 -26.5 57 -32.5s45.167 -9 70.5 -9
c24.667 0 46 3.33301 64 10s32.5 15.334 43.5 26.001s19.167 22.5 24.5 35.5s8 25.833 8 38.5l-10 10h-160l-10 10v120l10 10h340l10 -10v-380l-10 -10h-130l-10 10l-10 40h-10c-5.33301 -5.33301 -12.333 -11.333 -21 -18s-20 -13.167 -34 -19.5
s-30.5 -11.666 -49.5 -15.999s-40.833 -6.5 -65.5 -6.5c-50 0 -95.833 8 -137.5 24s-77.5 39.333 -107.5 70s-53.333 68.334 -70 113.001s-25 95.667 -25 153s8.5 108.333 25.5 153s41 82.334 72 113.001s68.667 54 113 70s94.166 24 149.499 24
c44.667 0 85.167 -5.33301 121.5 -16s68 -25.667 95 -45s49.167 -42.5 66.5 -69.5s29.666 -56.833 36.999 -89.5l-10 -10h-167l-13 10c-10 20 -24.167 36.667 -42.5 50s-47.5 20 -87.5 20z" />
    <glyph glyph-name="H" unicode="H" horiz-adv-x="750" 
d="M670 0h-160l-10 10v260l-10 10h-230l-10 -10v-260l-10 -10h-160l-10 10v680l10 10h160l10 -10v-250l10 -10h230l10 10v250l10 10h160l10 -10v-680z" />
    <glyph glyph-name="I" unicode="I" horiz-adv-x="320" 
d="M240 0h-160l-10 10v680l10 10h160l10 -10v-680z" />
    <glyph glyph-name="J" unicode="J" horiz-adv-x="590" 
d="M530 230c0 -37.333 -6 -70.832 -18 -100.499s-29.333 -54.834 -52 -75.501s-50 -36.5 -82 -47.5s-68 -16.5 -108 -16.5c-50 0 -91.667 7.33301 -125 22s-60 33.5 -80 56.5s-34.167 48.833 -42.5 77.5s-12.5 56.667 -12.5 84v20l10 10h160l10 -10v-20
c0 -30 5.83301 -52.5 17.5 -67.5s32.5 -22.5 62.5 -22.5s50.833 7.5 62.5 22.5s17.5 37.5 17.5 67.5v460l10 10h160l10 -10v-460z" />
    <glyph glyph-name="K" unicode="K" horiz-adv-x="660" 
d="M630 0h-80l-20 10l-220 220h-10l-50 -50v-170l-10 -10h-160l-10 10v680l10 10h160l10 -10v-270h10l270 270l20 10h70l10 -10v-130l-200 -200v-10l210 -210v-130z" />
    <glyph glyph-name="L" unicode="L" 
d="M550 0h-470l-10 10v680l10 10h160l10 -10v-530l10 -10h290l10 -10v-130z" />
    <glyph glyph-name="M" unicode="M" horiz-adv-x="930" 
d="M850 0h-160l-10 10v320h-10l-130 -320l-10 -10h-130l-10 10l-130 320h-10v-320l-10 -10h-160l-10 10v680l10 10h190l10 -10l180 -450h10l180 450l10 10h190l10 -10v-680z" />
    <glyph glyph-name="N" unicode="N" horiz-adv-x="770" 
d="M80 700h170l20 -10l240 -380h10v380l10 10h160l10 -10v-680l-10 -10h-170l-20 10l-240 380h-10v-380l-10 -10h-160l-10 10v680z" />
    <glyph glyph-name="O" unicode="O" horiz-adv-x="760" 
d="M30 350c0 57.333 8.33301 108.333 25 153s40.334 82.334 71.001 113.001s67.5 54 110.5 70s90.833 24 143.5 24s100.5 -8 143.5 -24s79.833 -39.333 110.5 -70s54.334 -68.334 71.001 -113.001s25 -95.667 25 -153s-8.33301 -108.333 -25 -153
s-40.334 -82.334 -71.001 -113.001s-67.5 -54 -110.5 -70s-90.833 -24 -143.5 -24s-100.5 8 -143.5 24s-79.833 39.333 -110.5 70s-54.334 68.334 -71.001 113.001s-25 95.667 -25 153zM210 350c0 -70.667 14.5 -123.334 43.5 -158.001s71.167 -52 126.5 -52
s97.5 17.333 126.5 52s43.5 87.334 43.5 158.001s-14.5 123.334 -43.5 158.001s-71.167 52 -126.5 52s-97.5 -17.333 -126.5 -52s-43.5 -87.334 -43.5 -158.001z" />
    <glyph glyph-name="P" unicode="P" horiz-adv-x="690" 
d="M680 480c0 -35.333 -6 -66.5 -18 -93.5s-29 -50 -51 -69s-48.333 -33.333 -79 -43s-64.667 -14.5 -102 -14.5h-170l-10 -10v-240l-10 -10h-160l-10 10v680l10 10h350c37.333 0 71.333 -4.83301 102 -14.5s57 -24 79 -43s39 -42.167 51 -69.5s18 -58.333 18 -93zM500 480
c0 30 -6.66699 49.167 -20 57.5s-30 12.5 -50 12.5h-170l-10 -10v-120l10 -10h170c20 0 36.667 4.16699 50 12.5s20 27.5 20 57.5z" />
    <glyph glyph-name="Q" unicode="Q" horiz-adv-x="760" 
d="M30 350c0 57.333 8.33105 108.332 24.998 152.999s40.334 82.334 71.001 113.001s67.5 54 110.5 70s90.833 24 143.5 24s100.5 -8 143.5 -24s79.833 -39.333 110.5 -70s54.334 -68.334 71.001 -113.001s25 -95.667 25 -153c0 -30 -2.5 -59.5 -7.5 -88.5
s-12.5 -56.167 -22.5 -81.5v-10l30 -30v-130l-10 -10h-60l-50 50h-20c-30 -20 -61.167 -35 -93.5 -45s-71.166 -15 -116.499 -15c-52.667 0 -100.5 8 -143.5 24s-79.833 39.333 -110.5 70s-54.334 68.334 -71.001 113.001s-25 95.667 -25 153zM209.998 349.999
c0 -70.667 14.5 -123.332 43.5 -157.999s71.167 -52 126.5 -52c30 0 52.833 3.66699 68.5 11s26.167 13.666 31.5 18.999v10l-40 40h-130l-10 10v120l10 10h190l20 -10l20 -20h10v20c0 70.667 -14.5 123.334 -43.5 158.001s-71.167 52 -126.5 52s-97.5 -17.333 -126.5 -52
s-43.5 -87.334 -43.5 -158.001z" />
    <glyph glyph-name="R" unicode="R" horiz-adv-x="710" 
d="M680 480c0 -27.333 -3.5 -51.833 -10.5 -73.5s-16.5 -40.5 -28.5 -56.5s-25.833 -29.833 -41.5 -41.5s-32.167 -21.167 -49.5 -28.5v-10l110 -130v-130l-10 -10h-80l-20 10l-200 240l-20 10h-70l-10 -10v-240l-10 -10h-160l-10 10v680l10 10h350
c37.333 0 71.333 -4.83301 102 -14.5s57 -24 79 -43s39 -42.167 51 -69.5s18 -58.333 18 -93zM500 480c0 30 -6.66699 49.167 -20 57.5s-30 12.5 -50 12.5h-170l-10 -10v-120l10 -10h170c20 0 36.667 4.16699 50 12.5s20 27.5 20 57.5z" />
    <glyph glyph-name="S" unicode="S" horiz-adv-x="670" 
d="M470 200c0 12.667 -2.49902 22.832 -7.49902 30.499s-12.167 14 -21.5 19s-20.833 9 -34.5 12s-29.167 5.83301 -46.5 8.5l-70 10c-52.667 7.33301 -95.334 18.833 -128.001 34.5s-58 33.834 -76 54.501s-30.167 43 -36.5 67s-9.5 48.667 -9.5 74
c0 27.333 5.66699 53.166 17 77.499s29 45.5 53 63.5s54.167 32.333 90.5 43s79.5 16 129.5 16c90 0 160.833 -17.5 212.5 -52.5s77.5 -87.5 77.5 -157.5l-10 -10h-160l-10 10c0 20 -8.33301 36.667 -25 50s-45 20 -85 20c-80 0 -120 -20 -120 -60
c0 -20 9.5 -33.667 28.5 -41s46.167 -13.666 81.5 -18.999l70 -10c52.667 -7.33301 95.334 -18.333 128.001 -33s58 -32 76 -52s30.167 -42.333 36.5 -67s9.5 -50.667 9.5 -78s-5.33301 -54.166 -16 -80.499s-27.834 -49.833 -51.501 -70.5s-54.667 -37.334 -93 -50.001
s-84.833 -19 -139.5 -19c-100.667 0 -177.5 19.5 -230.5 58.5s-79.5 96.167 -79.5 171.5l10 10h160l10 -10c0 -30 10.333 -52.5 31 -67.5s53.667 -22.5 99 -22.5c40 0 71.667 5.33301 95 16s35 28.667 35 54z" />
    <glyph glyph-name="T" unicode="T" horiz-adv-x="660" 
d="M630 550h-200l-10 -10v-530l-10 -10h-160l-10 10v530l-10 10h-200l-10 10v130l10 10h600l10 -10v-130z" />
    <glyph glyph-name="U" unicode="U" horiz-adv-x="720" 
d="M660 270c0 -90.667 -26.1689 -160 -78.502 -208s-126.166 -72 -221.499 -72s-169.166 24 -221.499 72s-78.5 117.333 -78.5 208v420l10 10h160l10 -10v-420c0 -50 10 -84.167 30 -102.5s50 -27.5 90 -27.5s70 9.16699 90 27.5s30 52.5 30 102.5v420l10 10h160l10 -10
v-420z" />
    <glyph glyph-name="V" unicode="V" horiz-adv-x="690" 
d="M440 10l-10 -10h-170l-10 10l-220 550v130l10 10h130l10 -10l160 -460h10l160 460l10 10h130l10 -10v-130z" />
    <glyph glyph-name="W" unicode="W" horiz-adv-x="1010" 
d="M590 700l10 -10l110 -410h10l90 410l10 10h140l10 -10v-130l-160 -550l-10 -10h-170l-10 10l-110 410h-10l-110 -410l-10 -10h-170l-10 10l-160 550v130l10 10h140l10 -10l90 -410h10l110 410l10 10h170z" />
    <glyph glyph-name="X" unicode="X" horiz-adv-x="690" 
d="M640 0h-90l-20 10l-180 240h-10l-180 -240l-20 -10h-90l-10 10v130l180 220v10l-170 190v130l10 10h90l20 -10l170 -210h10l170 210l20 10h90l10 -10v-130l-170 -190v-10l180 -220v-130z" />
    <glyph glyph-name="Y" unicode="Y" horiz-adv-x="640" 
d="M410 250v-240l-10 -10h-160l-10 10v240l-200 310v130l10 10h90l20 -10l160 -270h20l160 270l20 10h90l10 -10v-130z" />
    <glyph glyph-name="Z" unicode="Z" horiz-adv-x="640" 
d="M590 0h-540l-10 10v140l10 20l300 370v10h-290l-10 10v130l10 10h510l10 -10v-140l-10 -20l-300 -370v-10h320l10 -10v-130z" />
    <glyph glyph-name="bracketleft" unicode="[" horiz-adv-x="450" 
d="M370 -200h-290l-10 10v880l10 10h290l10 -10v-130l-10 -10h-110l-10 -10v-580l10 -10h110l10 -10v-130z" />
    <glyph glyph-name="backslash" unicode="\" horiz-adv-x="510" 
d="M30 560v130l10 10h100l10 -10l330 -550v-130l-10 -10h-100l-10 10z" />
    <glyph glyph-name="bracketright" unicode="]" horiz-adv-x="450" 
d="M70 -190v130l10 10h110l10 10v580l-10 10h-110l-10 10v130l10 10h290l10 -10v-880l-10 -10h-290z" />
    <glyph glyph-name="asciicircum" unicode="^" horiz-adv-x="600" 
d="M530 230h-90l-20 10l-110 270h-20l-110 -270l-20 -10h-90l-10 10v130l150 320l10 10h160l10 -10l150 -320v-130z" />
    <glyph glyph-name="underscore" unicode="_" horiz-adv-x="560" 
d="M520 -150h-480l-10 10v130l10 10h480l10 -10v-130z" />
    <glyph glyph-name="grave" unicode="`" horiz-adv-x="480" 
d="M370 560h-130l-20 10l-110 100v20l10 10h150l20 -10l90 -100v-20z" />
    <glyph glyph-name="a" unicode="a" horiz-adv-x="540" 
d="M490 0l-139.997 0.00195312l-10 10l-10 20h-10c-8 -7.33301 -18 -14 -30 -20c-10 -5.33301 -22.5 -10 -37.5 -14s-32.5 -6 -52.5 -6c-55.333 0 -99.166 14.167 -131.499 42.5s-48.5 67.5 -48.5 117.5c0 37.333 7.16699 67.166 21.5 89.499s32.166 39.5 53.499 51.5
s44.166 19.833 68.499 23.5s46.5 5.5 66.5 5.5c15.333 0 28.5 -0.5 39.5 -1.5s20.167 -2.16699 27.5 -3.5c8.66699 -2 16.334 -3.66699 23.001 -5l10 10v10c0 20 -5 33.333 -15 40s-25 10 -45 10c-5.33301 0 -10.833 -0.166992 -16.5 -0.5s-11.334 -1.5 -17.001 -3.5
s-10.834 -5 -15.501 -9s-8.33398 -9.66699 -11.001 -17l-10 -10h-140l-10 10c0 20 4 39.5 12 58.5s20.667 36 38 51s40 27.167 68 36.5s62 14 102 14c42.667 0 78.667 -4.33301 108 -13s53 -21.5 71 -38.5s31 -37.833 39 -62.5s12 -53.334 12 -86.001v-300zM320.003 200.002
l-15 5c-5.33301 1.33301 -11.666 2.5 -18.999 3.5s-16 1.5 -26 1.5c-25.333 0 -43.333 -4.5 -54 -13.5s-16 -21.167 -16 -36.5s6.16699 -25.833 18.5 -31.5s26.166 -8.5 41.499 -8.5c20 0 38.333 5 55 15s25 25 25 45v10z" />
    <glyph glyph-name="b" unicode="b" horiz-adv-x="585" 
d="M565 250c0 -40 -5.33301 -76 -16 -108s-25.667 -59.333 -45 -82s-42.5 -40 -69.5 -52s-56.833 -18 -89.5 -18c-25.333 0 -49.166 4.5 -71.499 13.5s-38.5 21.167 -48.5 36.5h-10l-10 -30l-10 -10h-140l-10 10v680l10 10h150l10 -10v-230h10
c10 15.333 26.167 27.5 48.5 36.5s46.166 13.5 71.499 13.5c32.667 0 62.5 -6 89.5 -18s50.167 -29.333 69.5 -52s34.333 -50 45 -82s16 -68 16 -108zM395 250c0 22.667 -2.33398 41.6689 -7.00098 57.002s-11 27.666 -19 36.999s-17.5 16 -28.5 20s-22.833 6 -35.5 6
c-25.333 0 -46.666 -8.83301 -63.999 -26.5s-26 -48.834 -26 -93.501c0 -22.667 2.33301 -41.667 7 -57s11 -27.666 19 -36.999s17.5 -16 28.5 -20s22.833 -6 35.5 -6s24.5 2 35.5 6s20.5 10.667 28.5 20s14.333 21.666 19 36.999s7 34.333 7 57z" />
    <glyph glyph-name="c" unicode="c" horiz-adv-x="540" 
d="M280 130c15.333 0 29.499 2.83105 42.499 8.49805s22.167 16.167 27.5 31.5l10 10h150l10 -10c-10 -55.333 -34.833 -99.166 -74.5 -131.499s-94.834 -48.5 -165.501 -48.5c-40 0 -76 6 -108 18s-59.333 29.333 -82 52s-40 50 -52 82s-18 68 -18 108s6 76 18 108
s29.333 59.333 52 82s50 40 82 52s68 18 108 18c70.667 0 125.834 -16.167 165.501 -48.5s64.5 -76.166 74.5 -131.499l-10 -10h-150l-10 10c-5.33301 15.333 -14.5 25.833 -27.5 31.5s-27.167 8.5 -42.5 8.5c-25.333 0 -46.666 -8.83301 -63.999 -26.5
s-26 -48.834 -26 -93.501c0 -22.667 2.33301 -41.667 7 -57s11 -27.666 19 -36.999s17.5 -16 28.5 -20s22.833 -6 35.5 -6z" />
    <glyph glyph-name="d" unicode="d" horiz-adv-x="585" 
d="M20 250c0 40 5.33301 76 16 108s25.667 59.333 45 82s42.5 40 69.5 52s56.833 18 89.5 18c25.333 0 49.166 -4.5 71.499 -13.5s38.5 -21.167 48.5 -36.5h10v230l10 10h150l10 -10v-680l-10 -10h-140l-10 10l-10 30h-10c-10 -15.333 -26.167 -27.5 -48.5 -36.5
s-46.166 -13.5 -71.499 -13.5c-32.667 0 -62.5 6 -89.5 18s-50.167 29.333 -69.5 52s-34.333 50 -45 82s-16 68 -16 108zM190 250c0 -22.667 2.33203 -41.665 6.99902 -56.998s11 -27.666 19 -36.999s17.5 -16 28.5 -20s22.833 -6 35.5 -6s24.5 2 35.5 6
s20.5 10.667 28.5 20s14.333 21.666 19 36.999s7 34.333 7 57s-2.33301 41.667 -7 57s-11 27.666 -19 36.999s-17.5 16 -28.5 20s-22.833 6 -35.5 6c-25.333 0 -46.666 -8.83301 -63.999 -26.5s-26 -48.834 -26 -93.501z" />
    <glyph glyph-name="e" unicode="e" horiz-adv-x="540" 
d="M520 210l-10.002 -10.001h-300l-10 -10c0 -5.33301 0.833008 -11.833 2.5 -19.5s5.33398 -15.334 11.001 -23.001s13.834 -14.167 24.501 -19.5s24.667 -8 42 -8c30 0 50 10 60 30l10 10h150l10 -10c-2.66699 -15.333 -8.66699 -32.166 -18 -50.499
s-23 -35.666 -41 -51.999s-41 -30 -69 -41s-62 -16.5 -102 -16.5c-45.333 0 -84.333 6.5 -117 19.5s-59.5 31 -80.5 54s-36.667 50.5 -47 82.5s-15.5 66.667 -15.5 104s5 72 15 104s25.333 59.5 46 82.5s46.667 41 78 54s68.333 19.5 111 19.5s79.667 -6.5 111 -19.5
s57.333 -31 78 -54s36 -50.5 46 -82.5s15 -66.667 15 -104v-40zM339.998 319.999c0 2.66699 -0.833008 7.16699 -2.5 13.5s-5 13 -10 20s-12.167 13.167 -21.5 18.5s-21.333 8 -36 8c-15.333 0 -27.5 -2.66699 -36.5 -8s-16 -11.5 -21 -18.5s-8.33301 -13.667 -10 -20
s-2.5 -10.833 -2.5 -13.5l10 -10h120z" />
    <glyph glyph-name="f" unicode="f" horiz-adv-x="430" 
d="M280 0h-150l-10 10v340l-10 10h-80l-10 10v120l10 10h80l10 10v40c0 27.333 4.66699 50.5 14 69.5s21.833 34.5 37.5 46.5s33.667 20.667 54 26s41.833 8 64.5 8h120l10 -10v-120l-10 -10h-90c-20 0 -30 -10 -30 -30v-20l10 -10h100l10 -10v-120l-10 -10h-100l-10 -10
v-340z" />
    <glyph glyph-name="g" unicode="g" horiz-adv-x="585" 
d="M20 260c0 37.333 5.33301 71.333 16 102s25.667 57 45 79s42.5 39 69.5 51s56.833 18 89.5 18c25.333 0 49.166 -4.5 71.499 -13.5s38.5 -21.167 48.5 -36.5h10l10 30l10 10h140l10 -10v-440c0 -80 -20.833 -143.333 -62.5 -190s-107.5 -70 -197.5 -70
c-42.667 0 -78.667 5.16699 -108 15.5s-53 23.5 -71 39.5s-31 34.167 -39 54.5s-12 40.5 -12 60.5l10 10h140l10 -10c5.33301 -15.333 14.5 -25.833 27.5 -31.5s27.167 -8.5 42.5 -8.5c30 0 52.5 9.16699 67.5 27.5s22.5 52.5 22.5 102.5v10h-10
c-10 -15.333 -26.167 -27.5 -48.5 -36.5s-46.166 -13.5 -71.499 -13.5c-32.667 0 -62.5 6 -89.5 18s-50.167 29 -69.5 51s-34.333 48.333 -45 79s-16 64.667 -16 102zM190 260c0 -40 8.66699 -68.333 26 -85s38.666 -25 63.999 -25s46.666 8.33301 63.999 25s26 45 26 85
s-8.66699 68.333 -26 85s-38.666 25 -63.999 25s-46.666 -8.33301 -63.999 -25s-26 -45 -26 -85z" />
    <glyph glyph-name="h" unicode="h" horiz-adv-x="615" 
d="M565 0h-150.002l-10 10v250c0 35.333 -6.16699 62.5 -18.5 81.5s-36.166 28.5 -71.499 28.5c-12.667 0 -25 -2 -37 -6s-22.667 -10.667 -32 -20s-16.833 -21.666 -22.5 -36.999s-8.5 -34.333 -8.5 -57v-240l-10 -10h-150l-10 10v680l10 10h150l10 -10v-230h10
c10 10 27 20.833 51 32.5s53.667 17.5 89 17.5c34.667 0 65.167 -6 91.5 -18s48.333 -28.5 66 -49.5s30.834 -46.333 39.501 -76s13 -61.834 13 -96.501v-260z" />
    <glyph glyph-name="i" unicode="i" horiz-adv-x="260" 
d="M205 0h-150l-10 10v480l10 10h150l10 -10v-480zM205 560h-150l-10 10v120l10 10h150l10 -10v-120z" />
    <glyph glyph-name="j" unicode="j" horiz-adv-x="260" 
d="M215 -10c0 -60.667 -15.333 -107.5 -46 -140.5s-78.667 -49.5 -144 -49.5h-65l-10 10v120l10 10h35c20 0 33.333 3.33301 40 10s10 20 10 40v500l10 10h150l10 -10v-500zM205 560h-150l-10 10v120l10 10h150l10 -10v-120z" />
    <glyph glyph-name="k" unicode="k" horiz-adv-x="550" 
d="M515 0h-90l-20 10l-110 130h-10l-60 -60l-10 -20v-50l-10 -10h-150l-10 10v680l10 10h150l10 -10v-390h10l190 190l20 10h70l10 -10v-120l-100 -100v-10l110 -130v-120z" />
    <glyph glyph-name="l" unicode="l" horiz-adv-x="260" 
d="M205 0h-150l-10 10v680l10 10h150l10 -10v-680z" />
    <glyph glyph-name="m" unicode="m" horiz-adv-x="895" 
d="M535 10l-9.99902 -10h-150l-10 10v270c0 30 -4.16699 52.5 -12.5 67.5s-27.5 22.5 -57.5 22.5c-10 0 -19.833 -1.5 -29.5 -4.5s-18.167 -8.16699 -25.5 -15.5s-13.333 -17.5 -18 -30.5s-7 -29.5 -7 -49.5v-260l-10 -10h-150l-10 10v480l10 10h140l10 -10l10 -30h10
c10 10 25 20.833 45 32.5s45 17.5 75 17.5c35.333 0 65.333 -6.66699 90 -20s44.667 -30 60 -50h10c15.333 20 35.333 36.667 60 50s54.667 20 90 20c34.667 0 64.667 -5.33301 90 -16s46.166 -25.667 62.499 -45s28.333 -42.5 36 -69.5s11.5 -56.833 11.5 -89.5v-280
l-10 -10h-150l-10 10v270c0 30 -4.16699 52.5 -12.5 67.5s-27.5 22.5 -57.5 22.5c-10 0 -19.833 -1.5 -29.5 -4.5s-18.167 -8.16699 -25.5 -15.5s-13.333 -17.5 -18 -30.5s-7 -29.5 -7 -49.5v-260z" />
    <glyph glyph-name="n" unicode="n" horiz-adv-x="615" 
d="M565 0h-150.002l-10 10v250c0 35.333 -6.16699 62.5 -18.5 81.5s-36.166 28.5 -71.499 28.5c-12.667 0 -25 -2 -37 -6s-22.667 -10.667 -32 -20s-16.833 -21.666 -22.5 -36.999s-8.5 -34.333 -8.5 -57v-240l-10 -10h-150l-10 10v480l10 10h140l10 -10l10 -30h10
c10 10 27 20.833 51 32.5s53.667 17.5 89 17.5c34.667 0 65.167 -6 91.5 -18s48.333 -28.5 66 -49.5s30.834 -46.333 39.501 -76s13 -61.834 13 -96.501v-260z" />
    <glyph glyph-name="o" unicode="o" horiz-adv-x="560" 
d="M540 250c0 -40 -6 -76 -18 -108s-29.333 -59.333 -52 -82s-50 -40 -82 -52s-68 -18 -108 -18s-76 6 -108 18s-59.333 29.333 -82 52s-40 50 -52 82s-18 68 -18 108s6 76 18 108s29.333 59.333 52 82s50 40 82 52s68 18 108 18s76 -6 108 -18s59.333 -29.333 82 -52
s40 -50 52 -82s18 -68 18 -108zM370 250c0 22.667 -2.33398 41.6689 -7.00098 57.002s-11 27.666 -19 36.999s-17.5 16 -28.5 20s-22.833 6 -35.5 6c-25.333 0 -46.666 -8.83301 -63.999 -26.5s-26 -48.834 -26 -93.501c0 -22.667 2.33301 -41.667 7 -57
s11 -27.666 19 -36.999s17.5 -16 28.5 -20s22.833 -6 35.5 -6s24.5 2 35.5 6s20.5 10.667 28.5 20s14.333 21.666 19 36.999s7 34.333 7 57z" />
    <glyph glyph-name="p" unicode="p" horiz-adv-x="585" 
d="M565 250c0 -40 -5.33301 -76 -16 -108s-25.667 -59.333 -45 -82s-42.5 -40 -69.5 -52s-56.833 -18 -89.5 -18c-25.333 0 -49.166 4.5 -71.499 13.5s-38.5 21.167 -48.5 36.5h-10v-230l-10 -10h-150l-10 10v680l10 10h140l10 -10l10 -30h10
c10 15.333 26.167 27.5 48.5 36.5s46.166 13.5 71.499 13.5c32.667 0 62.5 -6 89.5 -18s50.167 -29.333 69.5 -52s34.333 -50 45 -82s16 -68 16 -108zM395 250c0 22.667 -2.33398 41.6689 -7.00098 57.002s-11 27.666 -19 36.999s-17.5 16 -28.5 20s-22.833 6 -35.5 6
c-25.333 0 -46.666 -8.83301 -63.999 -26.5s-26 -48.834 -26 -93.501c0 -22.667 2.33301 -41.667 7 -57s11 -27.666 19 -36.999s17.5 -16 28.5 -20s22.833 -6 35.5 -6s24.5 2 35.5 6s20.5 10.667 28.5 20s14.333 21.666 19 36.999s7 34.333 7 57z" />
    <glyph glyph-name="q" unicode="q" horiz-adv-x="585" 
d="M20 250c0 40 5.33301 76 16 108s25.667 59.333 45 82s42.5 40 69.5 52s56.833 18 89.5 18c25.333 0 49.166 -4.5 71.499 -13.5s38.5 -21.167 48.5 -36.5h10l10 30l10 10h140l10 -10v-680l-10 -10h-150l-10 10v230h-10c-10 -15.333 -26.167 -27.5 -48.5 -36.5
s-46.166 -13.5 -71.499 -13.5c-32.667 0 -62.5 6 -89.5 18s-50.167 29.333 -69.5 52s-34.333 50 -45 82s-16 68 -16 108zM190 250c0 -22.667 2.33203 -41.665 6.99902 -56.998s11 -27.666 19 -36.999s17.5 -16 28.5 -20s22.833 -6 35.5 -6s24.5 2 35.5 6
s20.5 10.667 28.5 20s14.333 21.666 19 36.999s7 34.333 7 57s-2.33301 41.667 -7 57s-11 27.666 -19 36.999s-17.5 16 -28.5 20s-22.833 6 -35.5 6c-25.333 0 -46.666 -8.83301 -63.999 -26.5s-26 -48.834 -26 -93.501z" />
    <glyph glyph-name="r" unicode="r" horiz-adv-x="435" 
d="M405 360h-80c-40 0 -68.333 -6.66699 -85 -20s-25 -40 -25 -80v-250l-10 -10h-150l-10 10v480l10 10h140l10 -10l10 -30h10c4.66699 7.33301 11.667 14 21 20c8 5.33301 19.167 10 33.5 14s32.833 6 55.5 6h70l10 -10v-120z" />
    <glyph glyph-name="s" unicode="s" horiz-adv-x="510" 
d="M330 150c0 7.33301 -1.5 13.1719 -4.5 17.5049s-8.16699 7.66602 -15.5 9.99902s-17.5 4.33301 -30.5 6l-49.5 6.5c-40 4.66699 -73 12.5 -99 23.5s-46.5 23.667 -61.5 38s-25.333 30 -31 47s-8.5 34.167 -8.5 51.5c0 22.667 4 43.667 12 63s20.667 36.166 38 50.499
s40 25.666 68 33.999s62 12.5 102 12.5c30 0 58.333 -3.16699 85 -9.5s50 -16 70 -29s35.833 -29.667 47.5 -50s17.5 -44.166 17.5 -71.499l-10 -10h-140l-10 10c0 15.333 -3.66699 25.833 -11 31.5s-23.666 8.5 -48.999 8.5c-15.333 0 -29.166 -1.33301 -41.499 -4
s-18.5 -11.334 -18.5 -26.001c0 -5.33301 1 -9.83301 3 -13.5s6 -7 12 -10s15 -5.83301 27 -8.5s28 -5.33398 48 -8.00098c40 -5.33301 73.5 -11.833 100.5 -19.5s48.5 -17.834 64.5 -30.501s27.5 -28 34.5 -46s10.5 -39.333 10.5 -64c0 -20 -3.5 -40.167 -10.5 -60.5
s-19.333 -38.5 -37 -54.5s-41.334 -29.167 -71.001 -39.5s-66.834 -15.5 -111.501 -15.5c-80 0 -140 15.833 -180 47.5s-60 72.5 -60 122.5l10 10h140l10 -10c0 -20 7 -33.333 21 -40s33.667 -10 59 -10c20 0 36.667 1.66699 50 5s20 15 20 35z" />
    <glyph glyph-name="t" unicode="t" horiz-adv-x="430" 
d="M280 620v-110l10 -10h100l10 -10v-120l-10 -10h-100l-10 -10v-180c0 -20 10 -30 30 -30h80l10 -10v-120l-10 -10h-110c-22.667 0 -44.167 2.66699 -64.5 8s-38.333 14 -54 26s-28.167 27.5 -37.5 46.5s-14 42.167 -14 69.5v200l-10 10h-80l-10 10v120l10 10h80l10 10v110
l10 10h150z" />
    <glyph glyph-name="u" unicode="u" horiz-adv-x="595" 
d="M50 500h149.999l10 -10v-260c0 -35.333 5.83301 -60.833 17.5 -76.5s32.5 -23.5 62.5 -23.5c25.333 0 46.666 9.5 63.999 28.5s26 46.167 26 81.5v250l10 10h150l10 -10v-480l-10 -10h-140l-10 10l-10 30h-10c-5.33301 -5.33301 -11.166 -10.833 -17.499 -16.5
s-14.166 -11 -23.499 -16s-20.5 -9.16699 -33.5 -12.5s-28.167 -5 -45.5 -5c-70 0 -122.5 20.833 -157.5 62.5s-52.5 97.5 -52.5 167.5v270z" />
    <glyph glyph-name="v" unicode="v" horiz-adv-x="540" 
d="M345 10l-10 -10h-130l-10 10l-170 360v120l10 10h110l10 -10l110 -280h10l110 280l10 10h110l10 -10v-120z" />
    <glyph glyph-name="w" unicode="w" horiz-adv-x="800" 
d="M395 270l-80 -260l-10 -10h-140l-10 10l-120 360v120l10 10h120l10 -10l60 -240h10l70 240l10 10h150l10 -10l70 -240h10l60 240l10 10h120l10 -10v-120l-120 -360l-10 -10h-140l-10 10l-80 260h-10z" />
    <glyph glyph-name="x" unicode="x" horiz-adv-x="520" 
d="M485 0h-80l-20 10l-120 140h-10l-120 -140l-20 -10h-80l-10 10v120l120 120v10l-110 110v120l10 10h80l20 -10l110 -130h10l110 130l20 10h80l10 -10v-120l-110 -110v-10l120 -120v-120z" />
    <glyph glyph-name="y" unicode="y" horiz-adv-x="540" 
d="M185 0l-159.998 370v120l10 10h110l10 -10l110 -310h10l110 310l10 10h110l10 -10v-120l-160 -400c-10 -25.333 -21 -47.333 -33 -66s-26.833 -34.167 -44.5 -46.5s-38.834 -21.666 -63.501 -27.999s-54.334 -9.5 -89.001 -9.5h-70l-10 10v120l10 10h70
c15.333 0 27.833 1.16699 37.5 3.5s17.167 11.166 22.5 26.499v10z" />
    <glyph glyph-name="z" unicode="z" horiz-adv-x="520" 
d="M480 0h-440l-10 10v130l10 20l210 190v10h-200l-10 10v120l10 10h420l10 -10v-130l-10 -20l-210 -190v-10h220l10 -10v-120z" />
    <glyph glyph-name="braceleft" unicode="{" horiz-adv-x="510" 
d="M160 90c0 30 -5.83301 52.499 -17.5 67.499s-32.5 22.5 -62.5 22.5l-10 10v120l10 10c30 0 50.833 7.5 62.5 22.5s17.5 37.5 17.5 67.5v130c0 24.667 4.5 47 13.5 67s21 36.833 36 50.5s32.167 24.167 51.5 31.5s39 11 59 11h110l10 -10v-130l-10 -10h-40
c-20 0 -33.333 -5 -40 -15s-10 -25 -10 -45v-110c0 -40 -6.66699 -68.833 -20 -86.5s-30 -28.834 -50 -33.501v-20c10 -2.66699 19.333 -6.66699 28 -12s16 -12.666 22 -21.999s10.833 -21 14.5 -35s5.5 -31 5.5 -51v-110c0 -20 3.33301 -35 10 -45s20 -15 40 -15h40l10 -10
v-130l-10 -10h-110c-20 0 -39.667 3.66699 -59 11s-36.5 17.833 -51.5 31.5s-27 30.334 -36 50.001s-13.5 42.167 -13.5 67.5v130z" />
    <glyph glyph-name="bar" unicode="|" horiz-adv-x="400" 
d="M280 -200h-160l-10 10v880l10 10h160l10 -10v-880z" />
    <glyph glyph-name="braceright" unicode="}" horiz-adv-x="510" 
d="M350 410c0 -30 5.83301 -52.499 17.5 -67.499s32.5 -22.5 62.5 -22.5l10 -10v-120l-10 -10c-30 0 -50.833 -7.5 -62.5 -22.5s-17.5 -37.5 -17.5 -67.5v-130c0 -25.333 -4.66699 -47.833 -14 -67.5s-21.5 -36.334 -36.5 -50.001s-32 -24.167 -51 -31.5
s-38.5 -11 -58.5 -11h-110l-10 10v130l10 10h40c20 0 33.333 5 40 15s10 25 10 45v110c0 20 1.83301 37 5.5 51s8.5 25.667 14.5 35s13.333 16.666 22 21.999s18 9.33301 28 12v20c-20 4.66699 -36.667 15.834 -50 33.501s-20 46.5 -20 86.5v110c0 20 -3.33301 35 -10 45
s-20 15 -40 15h-40l-10 10v130l10 10h110c20 0 39.5 -3.66699 58.5 -11s36 -17.833 51 -31.5s27.167 -30.5 36.5 -50.5s14 -42.333 14 -67v-130z" />
    <glyph glyph-name="asciitilde" unicode="~" horiz-adv-x="660" 
d="M50 170c0 27.333 3.33203 53.166 9.99902 77.499s17.167 45.5 31.5 63.5s32.833 32.333 55.5 43s50.334 16 83.001 16c30 0 55.5 -4.66699 76.5 -14s39.333 -19.666 55 -30.999l41.5 -31c12 -9.33301 24.333 -14 37 -14c10 0 19.167 3.33301 27.5 10s12.5 20 12.5 40
l10 10h110l10 -10c0 -27.333 -3.83301 -53.166 -11.5 -77.499s-19 -45.5 -34 -63.5s-33.667 -32.333 -56 -43s-48.5 -16 -78.5 -16s-55.5 4.66699 -76.5 14s-39.333 19.666 -55 30.999l-41.5 31c-12 9.33301 -24.333 14 -37 14c-10 0 -19.167 -3.33301 -27.5 -10
s-12.5 -20 -12.5 -40l-10 -10h-110z" />
    <glyph glyph-name="uni00A0" unicode="&#xa0;" horiz-adv-x="240" 
 />
    <glyph glyph-name="exclamdown" unicode="&#xa1;" horiz-adv-x="420" 
d="M300 20v-210l-10 -10h-160l-10 10v210l20 210l10 10h120l10 -10zM310 490v-160l-10 -10h-180l-10 10v160l10 10h180z" />
    <glyph glyph-name="cent" unicode="&#xa2;" horiz-adv-x="540" 
d="M320 560l0.00195312 -39.999l10 -10c50 -10 91.667 -28.833 125 -56.5s55 -68.834 65 -123.501l-10 -10h-150l-10 10c-0.666992 4 -1.66699 7.66699 -3 11s-3.16602 6.66602 -5.49902 9.99902s-6.16602 6.33301 -11.499 9l-10 -10v-200l10 -10
c5.33301 2.66699 9.16602 5.66699 11.499 9s4.16602 6.66602 5.49902 9.99902s2.33301 7 3 11l10 10h150l10 -10c-10 -50 -30.333 -90 -61 -120s-73.667 -50 -129 -60l-10 -10v-40l-10 -10h-60l-10 10v40l-10 10c-32.667 4.66699 -62 14.334 -88 29.001
s-48 33.334 -66 56.001s-31.833 48.667 -41.5 78s-14.5 61.666 -14.5 96.999c0 42.667 5.83301 79.167 17.5 109.5s27.167 55.833 46.5 76.5s41.666 36.834 66.999 48.501s51.666 20.167 78.999 25.5l10 10v40l10 10h60zM190.002 250.001
c0 -35.333 4.16699 -61.1699 12.5 -77.5029s17.5 -27.166 27.5 -32.499l10 10v200l-10 10c-10 -5.33301 -19.167 -16.166 -27.5 -32.499s-12.5 -42.166 -12.5 -77.499z" />
    <glyph glyph-name="sterling" unicode="&#xa3;" horiz-adv-x="630" 
d="M490 260h-200.002l-10 -10c0 -12.667 -1.66699 -24 -5 -34s-7.16602 -18.667 -11.499 -26s-8.66602 -13.5 -12.999 -18.5s-7.83301 -8.83301 -10.5 -11.5v-10h360l10 -10v-130l-10 -10h-570l-10 10v130l10 10h9c20.667 0 36 7 46 21s15 33.667 15 59v20l-10 10h-60
l-10 10v110l10 10h60l10 10v90c0 27.333 4 54.166 12 80.499s21.5 49.833 40.5 70.5s43.667 37.334 74 50.001s68.166 19 113.499 19c42.667 0 79.167 -4.83301 109.5 -14.5s55.166 -23.5 74.499 -41.5s33.5 -40 42.5 -66s13.5 -55.333 13.5 -88l-10 -10h-160l-10 10
c0 25.333 -3.66699 43.333 -11 54s-23.666 16 -48.999 16s-41.666 -7 -48.999 -21s-11 -33.667 -11 -59v-90l10 -10h200l10 -10v-110z" />
    <glyph glyph-name="currency" unicode="&#xa4;" horiz-adv-x="660" 
d="M590 250c0 -15.333 -1 -29.166 -3 -41.499s-4.33301 -22.833 -7 -31.5c-2.66699 -10.667 -6 -19.667 -10 -27v-20l60 -60v-10l-110 -110h-10l-60 60h-20c-8.66699 -4 -18 -7.33301 -28 -10c-9.33301 -2.66699 -19.833 -5 -31.5 -7s-25.167 -3 -40.5 -3
s-29.166 1 -41.499 3s-22.833 4.33301 -31.5 7c-10.667 2.66699 -19.667 6 -27 10h-20l-60 -60h-10l-110 110v10l60 60v20c-4 7.33301 -7.33301 16.333 -10 27c-2.66699 8.66699 -5 19.167 -7 31.5s-3 26.166 -3 41.499s1 28.833 3 40.5s4.33301 22.167 7 31.5
c2.66699 10 6 19.333 10 28v20l-60 60v10l110 110h10l60 -60h20c7.33301 4 16.333 7.33301 27 10c8.66699 2.66699 19.167 5 31.5 7s26.166 3 41.499 3s28.833 -1 40.5 -3s22.167 -4.33301 31.5 -7c10 -2.66699 19.333 -6 28 -10h20l60 60h10l110 -110v-10l-60 -60v-20
c4 -8.66699 7.33301 -18 10 -28c2.66699 -9.33301 5 -19.833 7 -31.5s3 -25.167 3 -40.5zM240 250c0 -40 8.66699 -68.333 26 -85s38.666 -25 63.999 -25s46.666 8.33301 63.999 25s26 45 26 85s-8.66699 68.333 -26 85s-38.666 25 -63.999 25s-46.666 -8.33301 -63.999 -25
s-26 -45 -26 -85z" />
    <glyph glyph-name="yen" unicode="&#xa5;" horiz-adv-x="640" 
d="M410 10l-10 -10h-160l-10 10v80l-10 10h-110l-10 10v110l10 10h110l10 10l-20 30l-20 10h-120l-10 10v110l10 10h50v10l-80 140v130l10 10h90l20 -10l150 -280h20l150 280l20 10h90l10 -10v-130l-80 -140v-10h50l10 -10v-110l-10 -10h-120l-20 -10l-20 -30l10 -10h110
l10 -10v-110l-10 -10h-110l-10 -10v-80z" />
    <glyph glyph-name="brokenbar" unicode="&#xa6;" horiz-adv-x="400" 
d="M280 410h-160l-10 10v270l10 10h160l10 -10v-270zM280 0h-160l-10 10v270l10 10h160l10 -10v-270z" />
    <glyph glyph-name="section" unicode="&#xa7;" horiz-adv-x="660" 
d="M240 320c-4 -2.66699 -7.33301 -5.66992 -10 -9.00293s-5 -7.5 -7 -12.5s-3 -11.167 -3 -18.5c0 -15.333 5.66699 -27.166 17 -35.499s26.5 -15.333 45.5 -21s40.333 -10.834 64 -15.501s48.167 -10.667 73.5 -18h10c4 2.66699 7.33301 5.66699 10 9s5 7.5 7 12.5
s3 11.167 3 18.5c0 14.667 -5.66699 26.334 -17 35.001s-26.5 15.834 -45.5 21.501s-40.5 10.834 -64.5 15.501s-48.333 10.667 -73 18h-10zM550 119.997c15.333 -16 27.5039 -34.1699 36.5039 -54.5029s13.5 -45.5 13.5 -75.5c0 -60 -22.5 -108.333 -67.5 -145
s-112.5 -55 -202.5 -55c-40 0 -76.5 4.33301 -109.5 13s-61.5 21.834 -85.5 39.501s-42.5 39.5 -55.5 65.5s-19.5 56.667 -19.5 92l10 10h160l10 -10c0 -25.333 6.16699 -43.333 18.5 -54s36.166 -16 71.499 -16c20 0 36 1.16699 48 3.5s21 6 27 11s10 11.333 12 19
s3 16.5 3 26.5c0 16.667 -9.66699 29.667 -29 39s-43.333 17.666 -72 24.999l-94 23.5c-34 8.33301 -65.333 20.166 -94 35.499s-52.667 35.333 -72 60s-29 57 -29 97c0 25.333 5.83301 49.166 17.5 71.499s32.5 38.5 62.5 48.5v10
c-5.33301 4.66699 -10.833 10.334 -16.5 17.001s-11 14.667 -16 24s-9.16699 20.5 -12.5 33.5s-5 28.167 -5 45.5c0 27.333 5.66699 52.666 17 75.999s28.166 43.5 50.499 60.5s50.333 30.167 84 39.5s73.167 14 118.5 14c40 0 76.5 -4.33301 109.5 -13
s61.5 -21.834 85.5 -39.501s42.5 -39.667 55.5 -66s19.5 -56.833 19.5 -91.5l-10 -10h-160l-10 10c0 12.667 -1.33301 23.334 -4 32.001s-7.33398 15.834 -14.001 21.501s-15.834 9.83398 -27.501 12.501s-26.5 4 -44.5 4c-20 0 -36 -1.16699 -48 -3.5
s-21 -5.66602 -27 -9.99902s-10 -9.66602 -12 -15.999s-3 -13.166 -3 -20.499c0 -16.667 9.66699 -29.5 29 -38.5s43.333 -17.167 72 -24.5l94 -23c34 -8 65.333 -19.333 94 -34s52.667 -33.834 72 -57.501s29 -54.5 29 -92.5c0 -25.333 -5.83301 -49.166 -17.5 -71.499
s-32.5 -38.5 -62.5 -48.5v-10z" />
    <glyph glyph-name="dieresis" unicode="&#xa8;" horiz-adv-x="540" 
d="M450 560h-140l-10 10v120l10 10h140l10 -10v-120zM230 560h-140l-10 10v120l10 10h140l10 -10v-120z" />
    <glyph glyph-name="copyright" unicode="&#xa9;" horiz-adv-x="820" 
d="M50 350c0 50 9.33301 96.833 28 140.5s44.334 81.834 77.001 114.501s70.834 58.334 114.501 77.001s90.5 28 140.5 28s96.833 -9.33301 140.5 -28s81.834 -44.334 114.501 -77.001s58.334 -70.834 77.001 -114.501s28 -90.5 28 -140.5s-9.33301 -96.833 -28 -140.5
s-44.334 -81.834 -77.001 -114.501s-70.834 -58.334 -114.501 -77.001s-90.5 -28 -140.5 -28s-96.833 9.33301 -140.5 28s-81.834 44.334 -114.501 77.001s-58.334 70.834 -77.001 114.501s-28 90.5 -28 140.5zM670 350c0 34.667 -6.5 67.834 -19.5 99.501
s-31 59.334 -54 83.001s-50.5 42.5 -82.5 56.5s-66.667 21 -104 21s-72 -7 -104 -21s-59.5 -32.833 -82.5 -56.5s-41 -51.334 -54 -83.001s-19.5 -64.834 -19.5 -99.501c0 -35.333 6.5 -68.666 19.5 -99.999s31 -58.833 54 -82.5s50.5 -42.5 82.5 -56.5s66.667 -21 104 -21
s72 7 104 21s59.5 32.833 82.5 56.5s41 51.167 54 82.5s19.5 64.666 19.5 99.999zM410 160c-25.333 0 -48.833 3.82812 -70.5 11.4951s-40.667 19.334 -57 35.001s-29.166 35.334 -38.499 59.001s-14 51.834 -14 84.501s4.66699 60.834 14 84.501
s22.166 43.334 38.499 59.001s35.333 27.334 57 35.001s45.167 11.5 70.5 11.5c20 0 39.667 -2.16699 59 -6.5s36.833 -11.5 52.5 -21.5s28.667 -23.333 39 -40s16.833 -37.334 19.5 -62.001l-10 -10h-80l-10 10c-5.33301 15.333 -13.333 25.833 -24 31.5s-26 8.5 -46 8.5
c-25.333 0 -45 -7.83301 -59 -23.5s-21 -41.167 -21 -76.5s7 -60.833 21 -76.5s33.667 -23.5 59 -23.5c20 0 35.333 2.83301 46 8.5s18.667 16.167 24 31.5l10 10h80l10 -10c-2.66699 -25.333 -9.16699 -46.333 -19.5 -63s-23.333 -30 -39 -40s-33.167 -17 -52.5 -21
s-39 -6 -59 -6z" />
    <glyph glyph-name="ordfeminine" unicode="&#xaa;" horiz-adv-x="560" 
d="M230 330c-20 0 -39.665 3.82617 -58.998 11.4932s-36.5 19.334 -51.5 35.001s-27 35.334 -36 59.001s-13.5 51.834 -13.5 84.501s4.5 60.834 13.5 84.501s21 43.334 36 59.001s32.167 27.334 51.5 35.001s39 11.5 59 11.5c25.333 0 43.666 -3.66699 54.999 -11
s19.666 -13.666 24.999 -18.999h10v10l10 10h110l10 -10v-210c0 -10 2 -15.833 6 -17.5s8.66699 -2.5 14 -2.5h10l10 -10v-100l-10 -10h-60c-20 0 -35.833 2.5 -47.5 7.5s-22.5 12.5 -32.5 22.5h-10c-10 -10 -22.833 -19.167 -38.5 -27.5s-36.167 -12.5 -61.5 -12.5z
M200.002 519.993c0 -25.333 6.16699 -43.333 18.5 -54s26.166 -16 41.499 -16s29.166 5.33301 41.499 16s18.5 28.667 18.5 54s-6.16699 43.333 -18.5 54s-26.166 16 -41.499 16s-29.166 -5.33301 -41.499 -16s-18.5 -28.667 -18.5 -54zM470.002 259.993h-360l-10 10v10
l10 10h360l10 -10v-10z" />
    <glyph glyph-name="guillemotleft" unicode="&#xab;" horiz-adv-x="820" 
d="M420 30h-160l-20 10l-160 160l-10 20v60l10 20l160 160l20 10h160l10 -10v-50l-160 -150v-20l160 -150v-50zM740 30h-160l-20 10l-160 160l-10 20v60l10 20l160 160l20 10h160l10 -10v-50l-160 -150v-20l160 -150v-50z" />
    <glyph glyph-name="logicalnot" unicode="&#xac;" 
d="M500 60h-120l-10 10v101l-10 9h-300l-10 10v120l10 10h440l10 -10v-240z" />
    <glyph glyph-name="uni00AD" unicode="&#xad;" horiz-adv-x="450" 
d="M390 180h-330l-10 10v130l10 10h330l10 -10v-130z" />
    <glyph glyph-name="registered" unicode="&#xae;" horiz-adv-x="820" 
d="M50 350c0 50 9.33301 96.833 28 140.5s44.334 81.834 77.001 114.501s70.834 58.334 114.501 77.001s90.5 28 140.5 28s96.833 -9.33301 140.5 -28s81.834 -44.334 114.501 -77.001s58.334 -70.834 77.001 -114.501s28 -90.5 28 -140.5s-9.33301 -96.833 -28 -140.5
s-44.334 -81.834 -77.001 -114.501s-70.834 -58.334 -114.501 -77.001s-90.5 -28 -140.5 -28s-96.833 9.33301 -140.5 28s-81.834 44.334 -114.501 77.001s-58.334 70.834 -77.001 114.501s-28 90.5 -28 140.5zM670 350c0 34.667 -6.5 67.834 -19.5 99.501
s-31 59.334 -54 83.001s-50.5 42.5 -82.5 56.5s-66.667 21 -104 21s-72 -7 -104 -21s-59.5 -32.833 -82.5 -56.5s-41 -51.334 -54 -83.001s-19.5 -64.834 -19.5 -99.501c0 -35.333 6.5 -68.666 19.5 -99.999s31 -58.833 54 -82.5s50.5 -42.5 82.5 -56.5s66.667 -21 104 -21
s72 7 104 21s59.5 32.833 82.5 56.5s41 51.167 54 82.5s19.5 64.666 19.5 99.999zM480 410c0 20 -10 30 -30 30h-80l-10 -10v-40l10 -10h80c20 0 30 10 30 30zM570 230v-50l-10 -10h-50l-20 10l-70 100l-20 10h-30l-10 -10v-100l-10 -10h-80l-10 10v340l10 10h180
c40 0 71.667 -10 95 -30s35 -50 35 -90c0 -25.333 -5 -45.833 -15 -61.5s-25 -28.5 -45 -38.5v-10z" />
    <glyph glyph-name="macron" unicode="&#xaf;" horiz-adv-x="480" 
d="M430 560h-370l-10 10v110l10 10h370l10 -10v-110z" />
    <glyph glyph-name="degree" unicode="&#xb0;" horiz-adv-x="560" 
d="M70 500c0 30 5.33301 57.833 16 83.5s25.334 47.834 44.001 66.501s40.834 33.334 66.501 44.001s53.5 16 83.5 16s57.833 -5.33301 83.5 -16s47.834 -25.334 66.501 -44.001s33.334 -40.834 44.001 -66.501s16 -53.5 16 -83.5s-5.33301 -57.833 -16 -83.5
s-25.334 -47.834 -44.001 -66.501s-40.834 -33.334 -66.501 -44.001s-53.5 -16 -83.5 -16s-57.833 5.33301 -83.5 16s-47.834 25.334 -66.501 44.001s-33.334 40.834 -44.001 66.501s-16 53.5 -16 83.5zM220 500c0 -20 5 -36.667 15 -50s25 -20 45 -20s35 6.66699 45 20
s15 30 15 50s-5 36.667 -15 50s-25 20 -45 20s-35 -6.66699 -45 -20s-15 -30 -15 -50z" />
    <glyph glyph-name="plusminus" unicode="&#xb1;" horiz-adv-x="600" 
d="M80 410h140l10 10v70l10 10h120l10 -10v-70l10 -10h140l10 -10v-120l-10 -10h-140l-10 -10v-70l-10 -10h-120l-10 10v70l-10 10h-140l-10 10v120zM520 0h-440l-10 10v120l10 10h440l10 -10v-120z" />
    <glyph glyph-name="twosuperior" unicode="&#xb2;" horiz-adv-x="380" 
d="M340 340l-290.001 0.000976562l-10 10v90l10 20l100 60c12.667 7.33301 22.834 13.666 30.501 18.999s13.667 10.166 18 14.499s7.33301 8.5 9 12.5s2.5 8.66699 2.5 14c0 10 -2 15.833 -6 17.5s-8.66699 2.5 -14 2.5s-10 -0.833008 -14 -2.5s-6 -7.5 -6 -17.5l-10 -10
h-110l-10 10c0 40 12.5 71.667 37.5 95s62.5 35 112.5 35s87.5 -11.167 112.5 -33.5s37.5 -51.166 37.5 -86.499c0 -30 -9.16699 -55.333 -27.5 -76s-42.5 -38.667 -72.5 -54v-10h100l10 -10v-90z" />
    <glyph glyph-name="threesuperior" unicode="&#xb3;" horiz-adv-x="380" 
d="M130 500l0.000976562 60l30 20v10h-100l-10 10v90l10 10h260l10 -10v-90l-10 -20l-30 -20v-10c15.333 -5.33301 29.166 -15.333 41.499 -30s18.5 -34.667 18.5 -60c0 -17.333 -3.16699 -33.833 -9.5 -49.5s-16 -29.5 -29 -41.5s-29.667 -21.5 -50 -28.5
s-44.166 -10.5 -71.499 -10.5c-50 0 -89.167 11.667 -117.5 35s-42.5 55 -42.5 95l10 10h110l10 -10c0 -10 3.66699 -15.833 11 -17.5s13.666 -2.5 18.999 -2.5s11.666 0.833008 18.999 2.5s11 7.5 11 17.5s-1.16699 17.5 -3.5 22.5s-11.166 7.5 -26.499 7.5h-50z" />
    <glyph glyph-name="acute" unicode="&#xb4;" horiz-adv-x="480" 
d="M100 570v20l90 100l20 10h150l10 -10v-20l-110 -100l-20 -10h-130z" />
    <glyph glyph-name="mu" unicode="&#xb5;" horiz-adv-x="680" 
d="M430 30c-10 -15.333 -22.5 -25.833 -37.5 -31.5s-32.5 -8.5 -52.5 -8.5s-37.5 2.83301 -52.5 8.5s-27.5 16.167 -37.5 31.5h-10v-220l-10 -10h-150l-10 10v680l10 10h150l10 -10v-250c0 -22.667 2.83301 -41.167 8.5 -55.5s13.167 -25.5 22.5 -33.5s20 -13.5 32 -16.5
s24.333 -4.5 37 -4.5s25 1.5 37 4.5s22.667 8.5 32 16.5s16.833 19.167 22.5 33.5s8.5 32.833 8.5 55.5v250l10 10h150l10 -10v-480l-10 -10h-140l-10 10l-10 20h-10z" />
    <glyph glyph-name="paragraph" unicode="&#xb6;" horiz-adv-x="830" 
d="M430 -200l-149.998 0.000976562l-10 10v480l-10 10c-30 0 -57.833 3.83301 -83.5 11.5s-47.834 19.667 -66.501 36s-33.334 37 -44.001 62s-16 55.167 -16 90.5c0 34.667 5.33301 64.667 16 90s25.667 46.166 45 62.499s42.5 28.333 69.5 36s56.833 11.5 89.5 11.5h510
l10 -10v-130l-10 -10h-80l-10 -10v-730l-10 -10h-150l-10 10v730l-10 10h-60l-10 -10v-730z" />
    <glyph glyph-name="periodcentered" unicode="&#xb7;" horiz-adv-x="340" 
d="M260 160h-180l-10 10v160l10 10h180l10 -10v-160z" />
    <glyph glyph-name="cedilla" unicode="&#xb8;" horiz-adv-x="480" 
d="M200 -110l-29.9951 30v10l70 70h80l-50 -50v-10c20 0 38.333 -5.5 55 -16.5s25 -28.833 25 -53.5c0 -25.333 -10.833 -45 -32.5 -59s-47.5 -21 -77.5 -21c-20 0 -36.333 2.83301 -49 8.5s-26.334 16.167 -41.001 31.5v10l20 20h10
c4.66699 -5.33301 9.16699 -9.33301 13.5 -12s8.66602 -4.5 12.999 -5.5s9.16602 -1.66699 14.499 -2s11.666 -0.5 18.999 -0.5c15.333 0 25.833 2.5 31.5 7.5s8.5 12.5 8.5 22.5s-2.83301 17.5 -8.5 22.5s-16.167 7.5 -31.5 7.5c-5.33301 0 -9.83301 -0.5 -13.5 -1.5
s-6.83398 -2.16699 -9.50098 -3.5c-2.66699 -2 -5 -3.66699 -7 -5h-10z" />
    <glyph glyph-name="onesuperior" unicode="&#xb9;" horiz-adv-x="350" 
d="M40 440l10 10h70l10 10v80h-10l-20 -20h-40l-10 10v90l70 70l20 10h110l10 -10v-230l10 -10h50l10 -10v-90l-10 -10h-270l-10 10v90z" />
    <glyph glyph-name="ordmasculine" unicode="&#xba;" horiz-adv-x="520" 
d="M260 330c-27.333 0 -52.666 4.66699 -75.999 14s-43.5 22.5 -60.5 39.5s-30.167 37.167 -39.5 60.5s-14 48.666 -14 75.999s4.66699 52.666 14 75.999s22.5 43.5 39.5 60.5s37.167 30.167 60.5 39.5s48.666 14 75.999 14s52.666 -4.66699 75.999 -14
s43.5 -22.5 60.5 -39.5s30.167 -37.167 39.5 -60.5s14 -48.666 14 -75.999s-4.66699 -52.666 -14 -75.999s-22.5 -43.5 -39.5 -60.5s-37.167 -30.167 -60.5 -39.5s-48.666 -14 -75.999 -14zM200 520c0 -25.333 6.16699 -43.333 18.5 -54s26.166 -16 41.499 -16
s29.166 5.33301 41.499 16s18.5 28.667 18.5 54s-6.16699 43.333 -18.5 54s-26.166 16 -41.499 16s-29.166 -5.33301 -41.499 -16s-18.5 -28.667 -18.5 -54zM410 260h-300l-10 10v10l10 10h300l10 -10v-10z" />
    <glyph glyph-name="guillemotright" unicode="&#xbb;" horiz-adv-x="820" 
d="M70 40v50l160 150v20l-160 150v50l10 10h160l20 -10l160 -160l10 -20v-60l-10 -20l-160 -160l-20 -10h-160zM390 40v50l160 150v20l-160 150v50l10 10h160l20 -10l160 -160l10 -20v-60l-10 -20l-160 -160l-20 -10h-160z" />
    <glyph glyph-name="onequarter" unicode="&#xbc;" horiz-adv-x="860" 
d="M320 10l-10 -10h-80l-10 10v120l360 560l10 10h80l10 -10v-120zM40 440l10 10h70l10 10v80h-10l-20 -20h-40l-10 10v90l70 70l20 10h110l10 -10v-230l10 -10h50l10 -10v-90l-10 -10h-270l-10 10v90zM770 0h-110l-10 10v40l-10 10h-170l-10 10v100l10 20l160 160l20 10
h120l10 -10v-340zM650 220h-10l-40 -40v-10h40l10 10v40z" />
    <glyph glyph-name="onehalf" unicode="&#xbd;" horiz-adv-x="890" 
d="M320 10l-10 -10h-80l-10 10v120l360 560l10 10h80l10 -10v-120zM40 440l10 10h70l10 10v80h-10l-20 -20h-40l-10 10v90l70 70l20 10h110l10 -10v-230l10 -10h50l10 -10v-90l-10 -10h-270l-10 10v90zM830 0l-290.001 0.000976562l-10 10v90l10 20l100 60
c12.667 7.33301 22.834 13.666 30.501 18.999s13.667 10.166 18 14.499s7.33301 8.5 9 12.5s2.5 8.66699 2.5 14c0 10 -2 15.833 -6 17.5s-8.66699 2.5 -14 2.5s-10 -0.833008 -14 -2.5s-6 -7.5 -6 -17.5l-10 -10h-110l-10 10c0 40 12.5 71.667 37.5 95s62.5 35 112.5 35
s87.5 -11.167 112.5 -33.5s37.5 -51.166 37.5 -86.499c0 -30 -9.16699 -55.333 -27.5 -76s-42.5 -38.667 -72.5 -54v-10h100l10 -10v-90z" />
    <glyph glyph-name="threequarters" unicode="&#xbe;" horiz-adv-x="850" 
d="M310 10l-10 -10h-80l-10 10v120l360 560l10 10h80l10 -10v-120zM760 0h-110l-10 10v40l-10 10h-170l-10 10v100l10 20l160 160l20 10h120l10 -10v-340zM130 500l0.000976562 60l30 20v10h-100l-10 10v90l10 10h260l10 -10v-90l-10 -20l-30 -20v-10
c15.333 -5.33301 29.166 -15.333 41.499 -30s18.5 -34.667 18.5 -60c0 -17.333 -3.16699 -33.833 -9.5 -49.5s-16 -29.5 -29 -41.5s-29.667 -21.5 -50 -28.5s-44.166 -10.5 -71.499 -10.5c-50 0 -89.167 11.667 -117.5 35s-42.5 55 -42.5 95l10 10h110l10 -10
c0 -10 3.66699 -15.833 11 -17.5s13.666 -2.5 18.999 -2.5s11.666 0.833008 18.999 2.5s11 7.5 11 17.5s-1.16699 17.5 -3.5 22.5s-11.166 7.5 -26.499 7.5h-50zM640.001 220h-10l-40 -40v-10h40l10 10v40z" />
    <glyph glyph-name="questiondown" unicode="&#xbf;" horiz-adv-x="620" 
d="M60 0c0 24.667 4.16602 46.502 12.499 65.502s19 35.667 32 50s27 27 42 38l42.5 31c13.333 9.66699 24.666 18.834 33.999 27.501s15 18 17 28l10 10h140l10 -10c-2 -25.333 -7.16699 -46.666 -15.5 -63.999s-18.5 -32.333 -30.5 -45s-24.667 -23.834 -38 -33.501
s-25.666 -19.167 -36.999 -28.5s-20.666 -19.5 -27.999 -30.5s-11 -23.833 -11 -38.5c0 -20 5.33301 -36.667 16 -50s28.667 -20 54 -20c30 0 50.833 7.5 62.5 22.5s17.5 37.5 17.5 67.5l10 10h160l10 -10c0 -32.667 -5.16699 -63 -15.5 -91s-26 -52.333 -47 -73
s-48 -36.834 -81 -48.501s-71.833 -17.5 -116.5 -17.5c-42.667 0 -79.667 5.83301 -111 17.5s-57.333 27.167 -78 46.5s-36 41.666 -46 66.999s-15 51.666 -15 78.999zM229.999 500.002h180l10 -10v-160l-10 -10h-180l-10 10v160z" />
    <glyph glyph-name="Agrave" unicode="&#xc0;" horiz-adv-x="670" 
d="M470 120l-20 10h-230l-20 -10l-40 -110l-10 -10h-120l-10 10v130l220 550l10 10h170l10 -10l220 -550v-130l-10 -10h-120l-10 10zM260 290l10 -10h130l10 10l-70 190h-10zM440 760h-130l-20 10l-110 100v20l10 10h150l20 -10l90 -100v-20z" />
    <glyph glyph-name="Aacute" unicode="&#xc1;" horiz-adv-x="670" 
d="M470 120l-20 10h-230l-20 -10l-40 -110l-10 -10h-120l-10 10v130l220 550l10 10h170l10 -10l220 -550v-130l-10 -10h-120l-10 10zM260 290l10 -10h130l10 10l-70 190h-10zM220 770v20l90 100l20 10h150l10 -10v-20l-110 -100l-20 -10h-130z" />
    <glyph glyph-name="Acircumflex" unicode="&#xc2;" horiz-adv-x="670" 
d="M470 120l-20 10h-230l-20 -10l-40 -110l-10 -10h-120l-10 10v130l220 550l10 10h170l10 -10l220 -550v-130l-10 -10h-120l-10 10zM260 290l10 -10h130l10 10l-70 190h-10zM525 760h-110l-20 10l-50 40h-20l-50 -40l-20 -10h-110l-10 10v20l90 100l20 10h180l20 -10
l90 -100v-20z" />
    <glyph glyph-name="Atilde" unicode="&#xc3;" horiz-adv-x="670" 
d="M470 120l-20 10h-230l-20 -10l-40 -110l-10 -10h-120l-10 10v130l220 550l10 10h170l10 -10l220 -550v-130l-10 -10h-120l-10 10zM260 290l10 -10h130l10 10l-70 190h-10zM410 730c-20 0 -37.667 3.66699 -53 11s-29 15.333 -41 24s-22.5 16.667 -31.5 24
s-17.167 11 -24.5 11c-10 0 -17.5 -2.83301 -22.5 -8.5s-7.5 -16.167 -7.5 -31.5l-10 -10h-70l-10 10c0 40 10 73.333 30 100s50 40 90 40c20 0 37.667 -3.66699 53 -11s29 -15.333 41 -24s22.5 -16.667 31.5 -24s17.167 -11 24.5 -11c10 0 17.5 2.83301 22.5 8.5
s7.5 16.167 7.5 31.5l10 10h70l10 -10c0 -40 -10 -73.333 -30 -100s-50 -40 -90 -40z" />
    <glyph glyph-name="Adieresis" unicode="&#xc4;" horiz-adv-x="670" 
d="M470 120l-20 10h-230l-20 -10l-40 -110l-10 -10h-120l-10 10v130l220 550l10 10h170l10 -10l220 -550v-130l-10 -10h-120l-10 10zM260 290l10 -10h130l10 10l-70 190h-10zM515 760h-140l-10 10v120l10 10h140l10 -10v-120zM295 760h-140l-10 10v120l10 10h140l10 -10
v-120z" />
    <glyph glyph-name="Aring" unicode="&#xc5;" horiz-adv-x="670" 
d="M470 120l-20 10h-230l-20 -10l-40 -110l-10 -10h-120l-10 10v130l220 550l10 10c-40 20 -60 50 -60 90c0 35.333 12 62.5 36 81.5s58.667 28.5 104 28.5h10c45.333 0 80 -9.5 104 -28.5s36 -46.167 36 -81.5c0 -40 -20 -70 -60 -90l10 -10l220 -550v-130l-10 -10h-120
l-10 10zM260 290l10 -10h130l10 10l-70 190h-10zM340 760c20 0 33.333 2.5 40 7.5s10 12.5 10 22.5s-3.33301 17.5 -10 22.5s-20 7.5 -40 7.5h-10c-20 0 -33.333 -2.5 -40 -7.5s-10 -12.5 -10 -22.5s3.33301 -17.5 10 -22.5s20 -7.5 40 -7.5h10z" />
    <glyph glyph-name="AE" unicode="&#xc6;" horiz-adv-x="990" 
d="M940 690v-130l-10 -10h-280l-10 -10v-100l10 -10h260l10 -10v-130l-10 -10h-260l-10 -10v-110l10 -10h280l10 -10v-130l-10 -10h-460l-10 10v110l-10 10h-240l-20 -10l-60 -110l-10 -10h-100l-10 10v130l320 550l10 10h590zM460 290v250l-10 10h-10l-10 -10l-140 -250
l10 -10h150z" />
    <glyph glyph-name="Ccedilla" unicode="&#xc7;" horiz-adv-x="730" 
d="M320 -110l-29.9932 30v10l50 50v10c-42.667 4.66699 -82.834 15.334 -120.501 32.001s-70.5 39.667 -98.5 69s-50.167 65.5 -66.5 108.5s-24.5 93.167 -24.5 150.5c0 60 9.33301 112.5 28 157.5s44 82.5 76 112.5s69.167 52.5 111.5 67.5s87.166 22.5 134.499 22.5
c44.667 0 85.167 -5.33301 121.5 -16s68 -25.667 95 -45s49.167 -42.5 66.5 -69.5s29.666 -56.833 36.999 -89.5l-10 -10h-167l-13 10c-10 20 -24.167 36.667 -42.5 50s-47.5 20 -87.5 20c-22.667 0 -44.167 -3.5 -64.5 -10.5s-38.333 -18.5 -54 -34.5
s-28.167 -37.5 -37.5 -64.5s-14 -60.5 -14 -100.5s4.66699 -73.5 14 -100.5s21.833 -48.5 37.5 -64.5s33.667 -27.5 54 -34.5s41.833 -10.5 64.5 -10.5c40 0 69.167 7 87.5 21s32.5 33.667 42.5 59l13 10h167l10 -10c-7.33301 -35.333 -19 -66.166 -35 -92.499
s-35.167 -48.833 -57.5 -67.5s-47.666 -33.834 -75.999 -45.501s-58.833 -19.834 -91.5 -24.501l-20 -10l-30 -30v-10c20 0 38.333 -5.5 55 -16.5s25 -28.833 25 -53.5c0 -25.333 -10.833 -45 -32.5 -59s-47.5 -21 -77.5 -21c-20 0 -36.333 2.83301 -49 8.5
s-26.334 16.167 -41.001 31.5v10l20 20h10c4.66699 -5.33301 9.16699 -9.33301 13.5 -12s8.66602 -4.5 12.999 -5.5s9.16602 -1.66699 14.499 -2s11.666 -0.5 18.999 -0.5c15.333 0 25.833 2.5 31.5 7.5s8.5 12.5 8.5 22.5s-2.83301 17.5 -8.5 22.5s-16.167 7.5 -31.5 7.5
c-5.33301 0 -9.83301 -0.5 -13.5 -1.5s-6.83398 -2.16699 -9.50098 -3.5c-2.66699 -2 -5 -3.66699 -7 -5h-10z" />
    <glyph glyph-name="Egrave" unicode="&#xc8;" horiz-adv-x="650" 
d="M590 0h-510l-10 10v680l10 10h510l10 -10v-130l-10 -10h-330l-10 -10v-100l10 -10h310l10 -10v-130l-10 -10h-310l-10 -10v-110l10 -10h330l10 -10v-130zM430 760h-130l-20 10l-110 100v20l10 10h150l20 -10l90 -100v-20z" />
    <glyph glyph-name="Eacute" unicode="&#xc9;" horiz-adv-x="650" 
d="M590 0h-510l-10 10v680l10 10h510l10 -10v-130l-10 -10h-330l-10 -10v-100l10 -10h310l10 -10v-130l-10 -10h-310l-10 -10v-110l10 -10h330l10 -10v-130zM230 770v20l90 100l20 10h150l10 -10v-20l-110 -100l-20 -10h-130z" />
    <glyph glyph-name="Ecircumflex" unicode="&#xca;" horiz-adv-x="650" 
d="M590 0h-510l-10 10v680l10 10h510l10 -10v-130l-10 -10h-330l-10 -10v-100l10 -10h310l10 -10v-130l-10 -10h-310l-10 -10v-110l10 -10h330l10 -10v-130zM525 760h-110l-20 10l-50 40h-20l-50 -40l-20 -10h-110l-10 10v20l90 100l20 10h180l20 -10l90 -100v-20z" />
    <glyph glyph-name="Edieresis" unicode="&#xcb;" horiz-adv-x="650" 
d="M590 0h-510l-10 10v680l10 10h510l10 -10v-130l-10 -10h-330l-10 -10v-100l10 -10h310l10 -10v-130l-10 -10h-310l-10 -10v-110l10 -10h330l10 -10v-130zM515 760h-140l-10 10v120l10 10h140l10 -10v-120zM295 760h-140l-10 10v120l10 10h140l10 -10v-120z" />
    <glyph glyph-name="Igrave" unicode="&#xcc;" horiz-adv-x="320" 
d="M240 0h-160l-10 10v680l10 10h160l10 -10v-680zM261 760h-130l-20 10l-110 100v20l10 10h150l20 -10l90 -100v-20z" />
    <glyph glyph-name="Iacute" unicode="&#xcd;" horiz-adv-x="320" 
d="M240 0h-160l-10 10v680l10 10h160l10 -10v-680zM51 770v20l90 100l20 10h150l10 -10v-20l-110 -100l-20 -10h-130z" />
    <glyph glyph-name="Icircumflex" unicode="&#xce;" horiz-adv-x="320" 
d="M240 0h-160l-10 10v680l10 10h160l10 -10v-680zM351 760h-110l-20 10l-50 40h-20l-50 -40l-20 -10h-110l-10 10v20l90 100l20 10h180l20 -10l90 -100v-20z" />
    <glyph glyph-name="Idieresis" unicode="&#xcf;" horiz-adv-x="320" 
d="M240 0h-160l-10 10v680l10 10h160l10 -10v-680zM341 760h-140l-10 10v120l10 10h140l10 -10v-120zM121 760h-140l-10 10v120l10 10h140l10 -10v-120z" />
    <glyph glyph-name="Eth" unicode="&#xd0;" horiz-adv-x="730" 
d="M700 350c0 -55.333 -6.5 -104.667 -19.5 -148s-33.5 -80 -61.5 -110s-64.167 -52.833 -108.5 -68.5s-97.833 -23.5 -160.5 -23.5h-250l-10 10v260l-10 10h-70l-10 10v130l10 10h70l10 10v250l10 10h250c62.667 0 116.167 -8 160.5 -24s80.5 -39 108.5 -69
s48.5 -66.667 61.5 -110s19.5 -92.333 19.5 -147zM400 279.999h-120l-10 -10v-110l10 -10h80c27.333 0 51.166 2.83301 71.499 8.5s37 16 50 31s22.667 35.5 29 61.5s9.5 59 9.5 99s-3.16699 72.833 -9.5 98.5s-16 46 -29 61s-29.667 25.5 -50 31.5s-44.166 9 -71.499 9h-80
l-10 -10v-100l10 -10h120l10 -10v-130z" />
    <glyph glyph-name="Ntilde" unicode="&#xd1;" horiz-adv-x="770" 
d="M80 700h170l20 -10l240 -380h10v380l10 10h160l10 -10v-680l-10 -10h-170l-20 10l-240 380h-10v-380l-10 -10h-160l-10 10v680zM460 730c-20 0 -37.667 3.66699 -53 11s-29 15.333 -41 24s-22.5 16.667 -31.5 24s-17.167 11 -24.5 11c-10 0 -17.5 -2.83301 -22.5 -8.5
s-7.5 -16.167 -7.5 -31.5l-10 -10h-70l-10 10c0 40 10 73.333 30 100s50 40 90 40c20 0 37.667 -3.66699 53 -11s29 -15.333 41 -24s22.5 -16.667 31.5 -24s17.167 -11 24.5 -11c10 0 17.5 2.83301 22.5 8.5s7.5 16.167 7.5 31.5l10 10h70l10 -10
c0 -40 -10 -73.333 -30 -100s-50 -40 -90 -40z" />
    <glyph glyph-name="Ograve" unicode="&#xd2;" horiz-adv-x="760" 
d="M30 350c0 57.333 8.33301 108.333 25 153s40.334 82.334 71.001 113.001s67.5 54 110.5 70s90.833 24 143.5 24s100.5 -8 143.5 -24s79.833 -39.333 110.5 -70s54.334 -68.334 71.001 -113.001s25 -95.667 25 -153s-8.33301 -108.333 -25 -153
s-40.334 -82.334 -71.001 -113.001s-67.5 -54 -110.5 -70s-90.833 -24 -143.5 -24s-100.5 8 -143.5 24s-79.833 39.333 -110.5 70s-54.334 68.334 -71.001 113.001s-25 95.667 -25 153zM210 350c0 -70.667 14.5 -123.334 43.5 -158.001s71.167 -52 126.5 -52
s97.5 17.333 126.5 52s43.5 87.334 43.5 158.001s-14.5 123.334 -43.5 158.001s-71.167 52 -126.5 52s-97.5 -17.333 -126.5 -52s-43.5 -87.334 -43.5 -158.001zM490 760h-130l-20 10l-110 100v20l10 10h150l20 -10l90 -100v-20z" />
    <glyph glyph-name="Oacute" unicode="&#xd3;" horiz-adv-x="760" 
d="M30 350c0 57.333 8.33301 108.333 25 153s40.334 82.334 71.001 113.001s67.5 54 110.5 70s90.833 24 143.5 24s100.5 -8 143.5 -24s79.833 -39.333 110.5 -70s54.334 -68.334 71.001 -113.001s25 -95.667 25 -153s-8.33301 -108.333 -25 -153
s-40.334 -82.334 -71.001 -113.001s-67.5 -54 -110.5 -70s-90.833 -24 -143.5 -24s-100.5 8 -143.5 24s-79.833 39.333 -110.5 70s-54.334 68.334 -71.001 113.001s-25 95.667 -25 153zM210 350c0 -70.667 14.5 -123.334 43.5 -158.001s71.167 -52 126.5 -52
s97.5 17.333 126.5 52s43.5 87.334 43.5 158.001s-14.5 123.334 -43.5 158.001s-71.167 52 -126.5 52s-97.5 -17.333 -126.5 -52s-43.5 -87.334 -43.5 -158.001zM260 770v20l90 100l20 10h150l10 -10v-20l-110 -100l-20 -10h-130z" />
    <glyph glyph-name="Ocircumflex" unicode="&#xd4;" horiz-adv-x="760" 
d="M30 350c0 57.333 8.33301 108.333 25 153s40.334 82.334 71.001 113.001s67.5 54 110.5 70s90.833 24 143.5 24s100.5 -8 143.5 -24s79.833 -39.333 110.5 -70s54.334 -68.334 71.001 -113.001s25 -95.667 25 -153s-8.33301 -108.333 -25 -153
s-40.334 -82.334 -71.001 -113.001s-67.5 -54 -110.5 -70s-90.833 -24 -143.5 -24s-100.5 8 -143.5 24s-79.833 39.333 -110.5 70s-54.334 68.334 -71.001 113.001s-25 95.667 -25 153zM210 350c0 -70.667 14.5 -123.334 43.5 -158.001s71.167 -52 126.5 -52
s97.5 17.333 126.5 52s43.5 87.334 43.5 158.001s-14.5 123.334 -43.5 158.001s-71.167 52 -126.5 52s-97.5 -17.333 -126.5 -52s-43.5 -87.334 -43.5 -158.001zM570 760h-110l-20 10l-50 40h-20l-50 -40l-20 -10h-110l-10 10v20l90 100l20 10h180l20 -10l90 -100v-20z" />
    <glyph glyph-name="Otilde" unicode="&#xd5;" horiz-adv-x="760" 
d="M30 350c0 57.333 8.33301 108.333 25 153s40.334 82.334 71.001 113.001s67.5 54 110.5 70s90.833 24 143.5 24s100.5 -8 143.5 -24s79.833 -39.333 110.5 -70s54.334 -68.334 71.001 -113.001s25 -95.667 25 -153s-8.33301 -108.333 -25 -153
s-40.334 -82.334 -71.001 -113.001s-67.5 -54 -110.5 -70s-90.833 -24 -143.5 -24s-100.5 8 -143.5 24s-79.833 39.333 -110.5 70s-54.334 68.334 -71.001 113.001s-25 95.667 -25 153zM210 350c0 -70.667 14.5 -123.334 43.5 -158.001s71.167 -52 126.5 -52
s97.5 17.333 126.5 52s43.5 87.334 43.5 158.001s-14.5 123.334 -43.5 158.001s-71.167 52 -126.5 52s-97.5 -17.333 -126.5 -52s-43.5 -87.334 -43.5 -158.001zM455 730c-20 0 -37.667 3.66699 -53 11s-29 15.333 -41 24s-22.5 16.667 -31.5 24s-17.167 11 -24.5 11
c-10 0 -17.5 -2.83301 -22.5 -8.5s-7.5 -16.167 -7.5 -31.5l-10 -10h-70l-10 10c0 40 10 73.333 30 100s50 40 90 40c20 0 37.667 -3.66699 53 -11s29 -15.333 41 -24s22.5 -16.667 31.5 -24s17.167 -11 24.5 -11c10 0 17.5 2.83301 22.5 8.5s7.5 16.167 7.5 31.5l10 10h70
l10 -10c0 -40 -10 -73.333 -30 -100s-50 -40 -90 -40z" />
    <glyph glyph-name="Odieresis" unicode="&#xd6;" horiz-adv-x="760" 
d="M30 350c0 57.333 8.33301 108.333 25 153s40.334 82.334 71.001 113.001s67.5 54 110.5 70s90.833 24 143.5 24s100.5 -8 143.5 -24s79.833 -39.333 110.5 -70s54.334 -68.334 71.001 -113.001s25 -95.667 25 -153s-8.33301 -108.333 -25 -153
s-40.334 -82.334 -71.001 -113.001s-67.5 -54 -110.5 -70s-90.833 -24 -143.5 -24s-100.5 8 -143.5 24s-79.833 39.333 -110.5 70s-54.334 68.334 -71.001 113.001s-25 95.667 -25 153zM210 350c0 -70.667 14.5 -123.334 43.5 -158.001s71.167 -52 126.5 -52
s97.5 17.333 126.5 52s43.5 87.334 43.5 158.001s-14.5 123.334 -43.5 158.001s-71.167 52 -126.5 52s-97.5 -17.333 -126.5 -52s-43.5 -87.334 -43.5 -158.001zM560 760h-140l-10 10v120l10 10h140l10 -10v-120zM340 760h-140l-10 10v120l10 10h140l10 -10v-120z" />
    <glyph glyph-name="multiply" unicode="&#xd7;" horiz-adv-x="600" 
d="M460 0h-10l-140 140h-20l-140 -140h-10l-90 90v10l140 140v20l-140 140v10l90 90h10l140 -140h20l140 140h10l90 -90v-10l-140 -140v-20l140 -140v-10z" />
    <glyph glyph-name="Oslash" unicode="&#xd8;" horiz-adv-x="760" 
d="M480 520v10.001c-15.333 10 -30.833 17.5 -46.5 22.5s-33.5 7.5 -53.5 7.5c-55.333 0 -97.5 -17.333 -126.5 -52s-43.5 -87.334 -43.5 -158.001c0 -10 0.333008 -22.5 1 -37.5s3.66699 -32.5 9 -52.5h10zM380 -9.99902c-45.333 0 -84.166 5 -116.499 15
s-63.5 25 -93.5 45h-10l-40 -40l-20 -10h-30l-10 10v70l30 30v20c-20 30 -35 62.833 -45 98.5s-15 76.167 -15 121.5c0 57.333 8.33301 108.333 25 153s40.334 82.334 71.001 113.001s67.5 54 110.5 70s90.833 24 143.5 24c45.333 0 84.166 -5 116.499 -15
s63.5 -25 93.5 -45h10l40 40l20 10h30l10 -10v-70l-30 -30v-20c20 -30 35 -62.833 45 -98.5s15 -76.167 15 -121.5c0 -57.333 -8.33301 -108.333 -25 -153s-40.334 -82.334 -71.001 -113.001s-67.5 -54 -110.5 -70s-90.833 -24 -143.5 -24zM280 180.001v-10.001
c15.333 -10 30.833 -17.5 46.5 -22.5s33.5 -7.5 53.5 -7.5c55.333 0 97.5 17.333 126.5 52s43.5 87.334 43.5 158.001c0 10 -0.333008 22.5 -1 37.5s-3.66699 32.5 -9 52.5h-10z" />
    <glyph glyph-name="Ugrave" unicode="&#xd9;" horiz-adv-x="720" 
d="M660 270c0 -90.667 -26.1689 -160 -78.502 -208s-126.166 -72 -221.499 -72s-169.166 24 -221.499 72s-78.5 117.333 -78.5 208v420l10 10h160l10 -10v-420c0 -50 10 -84.167 30 -102.5s50 -27.5 90 -27.5s70 9.16699 90 27.5s30 52.5 30 102.5v420l10 10h160l10 -10
v-420zM459.998 760h-130l-20 10l-110 100v20l10 10h150l20 -10l90 -100v-20z" />
    <glyph glyph-name="Uacute" unicode="&#xda;" horiz-adv-x="720" 
d="M660 270c0 -90.667 -26.1689 -160 -78.502 -208s-126.166 -72 -221.499 -72s-169.166 24 -221.499 72s-78.5 117.333 -78.5 208v420l10 10h160l10 -10v-420c0 -50 10 -84.167 30 -102.5s50 -27.5 90 -27.5s70 9.16699 90 27.5s30 52.5 30 102.5v420l10 10h160l10 -10
v-420zM249.998 770v20l90 100l20 10h150l10 -10v-20l-110 -100l-20 -10h-130z" />
    <glyph glyph-name="Ucircumflex" unicode="&#xdb;" horiz-adv-x="720" 
d="M660 270c0 -90.667 -26.1689 -160 -78.502 -208s-126.166 -72 -221.499 -72s-169.166 24 -221.499 72s-78.5 117.333 -78.5 208v420l10 10h160l10 -10v-420c0 -50 10 -84.167 30 -102.5s50 -27.5 90 -27.5s70 9.16699 90 27.5s30 52.5 30 102.5v420l10 10h160l10 -10
v-420zM549.998 760h-110l-20 10l-50 40h-20l-50 -40l-20 -10h-110l-10 10v20l90 100l20 10h180l20 -10l90 -100v-20z" />
    <glyph glyph-name="Udieresis" unicode="&#xdc;" horiz-adv-x="720" 
d="M660 270c0 -90.667 -26.1689 -160 -78.502 -208s-126.166 -72 -221.499 -72s-169.166 24 -221.499 72s-78.5 117.333 -78.5 208v420l10 10h160l10 -10v-420c0 -50 10 -84.167 30 -102.5s50 -27.5 90 -27.5s70 9.16699 90 27.5s30 52.5 30 102.5v420l10 10h160l10 -10
v-420zM539.998 760h-140l-10 10v120l10 10h140l10 -10v-120zM319.998 760h-140l-10 10v120l10 10h140l10 -10v-120z" />
    <glyph glyph-name="Yacute" unicode="&#xdd;" horiz-adv-x="640" 
d="M410 250v-240l-10 -10h-160l-10 10v240l-200 310v130l10 10h90l20 -10l160 -270h20l160 270l20 10h90l10 -10v-130zM210 770v20l90 100l20 10h150l10 -10v-20l-110 -100l-20 -10h-130z" />
    <glyph glyph-name="Thorn" unicode="&#xde;" horiz-adv-x="630" 
d="M240 0l-159.999 0.000976562l-10 10v680l10 10h160l10 -10v-120l10 -10h130c70 0 125.833 -17.5 167.5 -52.5s62.5 -87.5 62.5 -157.5c0 -35.333 -5.83301 -66 -17.5 -92s-27.834 -47.833 -48.501 -65.5s-45 -30.834 -73 -39.501s-58.333 -13 -91 -13h-130l-10 -10v-120z
M440.001 350.001c0 24.667 -6.66699 40.832 -20 48.499s-30 11.5 -50 11.5h-110l-10 -10v-100l10 -10h110c10 0 19.333 0.833008 28 2.5s16 4.66699 22 9s10.833 10.333 14.5 18s5.5 17.834 5.5 30.501z" />
    <glyph glyph-name="germandbls" unicode="&#xdf;" horiz-adv-x="650" 
d="M630 200c0 -65.333 -21.1689 -116.667 -63.502 -154s-101.166 -56 -176.499 -56c-24 0 -43.667 1.66699 -59 5c-8 1.33301 -15 3 -21 5l-10 10v110l10 10h40c35.333 0 62.5 7.5 81.5 22.5s28.5 37.5 28.5 67.5c0 25.333 -8.33301 45 -25 59s-45 21 -85 21h-30l-10 10v110
l10 10h20c25.333 0 45 5.33301 59 16s21 28.667 21 54s-7 43.333 -21 54s-33.667 16 -59 16s-45 -5.33301 -59 -16s-21 -28.667 -21 -54v-490l-10 -10h-150l-10 10v350l-10 10h-60l-10 10v110l10 10h60l10 10c0 60 21.667 108.333 65 145s105 55 185 55
c40 0 75.5 -5.16699 106.5 -15.5s57.167 -24.333 78.5 -42s37.5 -38 48.5 -61s16.5 -46.833 16.5 -71.5c0 -35.333 -8.66699 -65 -26 -89s-38.666 -41 -63.999 -51v-10c40 -10 71.667 -28.333 95 -55s35 -65 35 -115z" />
    <glyph glyph-name="agrave" unicode="&#xe0;" horiz-adv-x="540" 
d="M490 0l-139.997 0.00195312l-10 10l-10 20h-10c-8 -7.33301 -18 -14 -30 -20c-10 -5.33301 -22.5 -10 -37.5 -14s-32.5 -6 -52.5 -6c-55.333 0 -99.166 14.167 -131.499 42.5s-48.5 67.5 -48.5 117.5c0 37.333 7.16699 67.166 21.5 89.499s32.166 39.5 53.499 51.5
s44.166 19.833 68.499 23.5s46.5 5.5 66.5 5.5c15.333 0 28.5 -0.5 39.5 -1.5s20.167 -2.16699 27.5 -3.5c8.66699 -2 16.334 -3.66699 23.001 -5l10 10v10c0 20 -5 33.333 -15 40s-25 10 -45 10c-5.33301 0 -10.833 -0.166992 -16.5 -0.5s-11.334 -1.5 -17.001 -3.5
s-10.834 -5 -15.501 -9s-8.33398 -9.66699 -11.001 -17l-10 -10h-140l-10 10c0 20 4 39.5 12 58.5s20.667 36 38 51s40 27.167 68 36.5s62 14 102 14c42.667 0 78.667 -4.33301 108 -13s53 -21.5 71 -38.5s31 -37.833 39 -62.5s12 -53.334 12 -86.001v-300zM320.003 200.002
l-15 5c-5.33301 1.33301 -11.666 2.5 -18.999 3.5s-16 1.5 -26 1.5c-25.333 0 -43.333 -4.5 -54 -13.5s-16 -21.167 -16 -36.5s6.16699 -25.833 18.5 -31.5s26.166 -8.5 41.499 -8.5c20 0 38.333 5 55 15s25 25 25 45v10zM380.003 560.002h-130l-20 10l-110 100v20l10 10
h150l20 -10l90 -100v-20z" />
    <glyph glyph-name="aacute" unicode="&#xe1;" horiz-adv-x="540" 
d="M490 0l-139.997 0.00195312l-10 10l-10 20h-10c-8 -7.33301 -18 -14 -30 -20c-10 -5.33301 -22.5 -10 -37.5 -14s-32.5 -6 -52.5 -6c-55.333 0 -99.166 14.167 -131.499 42.5s-48.5 67.5 -48.5 117.5c0 37.333 7.16699 67.166 21.5 89.499s32.166 39.5 53.499 51.5
s44.166 19.833 68.499 23.5s46.5 5.5 66.5 5.5c15.333 0 28.5 -0.5 39.5 -1.5s20.167 -2.16699 27.5 -3.5c8.66699 -2 16.334 -3.66699 23.001 -5l10 10v10c0 20 -5 33.333 -15 40s-25 10 -45 10c-5.33301 0 -10.833 -0.166992 -16.5 -0.5s-11.334 -1.5 -17.001 -3.5
s-10.834 -5 -15.501 -9s-8.33398 -9.66699 -11.001 -17l-10 -10h-140l-10 10c0 20 4 39.5 12 58.5s20.667 36 38 51s40 27.167 68 36.5s62 14 102 14c42.667 0 78.667 -4.33301 108 -13s53 -21.5 71 -38.5s31 -37.833 39 -62.5s12 -53.334 12 -86.001v-300zM320.003 200.002
l-15 5c-5.33301 1.33301 -11.666 2.5 -18.999 3.5s-16 1.5 -26 1.5c-25.333 0 -43.333 -4.5 -54 -13.5s-16 -21.167 -16 -36.5s6.16699 -25.833 18.5 -31.5s26.166 -8.5 41.499 -8.5c20 0 38.333 5 55 15s25 25 25 45v10zM150.003 570.002v20l90 100l20 10h150l10 -10v-20
l-110 -100l-20 -10h-130z" />
    <glyph glyph-name="acircumflex" unicode="&#xe2;" horiz-adv-x="540" 
d="M490 0l-139.997 0.00195312l-10 10l-10 20h-10c-8 -7.33301 -18 -14 -30 -20c-10 -5.33301 -22.5 -10 -37.5 -14s-32.5 -6 -52.5 -6c-55.333 0 -99.166 14.167 -131.499 42.5s-48.5 67.5 -48.5 117.5c0 37.333 7.16699 67.166 21.5 89.499s32.166 39.5 53.499 51.5
s44.166 19.833 68.499 23.5s46.5 5.5 66.5 5.5c15.333 0 28.5 -0.5 39.5 -1.5s20.167 -2.16699 27.5 -3.5c8.66699 -2 16.334 -3.66699 23.001 -5l10 10v10c0 20 -5 33.333 -15 40s-25 10 -45 10c-5.33301 0 -10.833 -0.166992 -16.5 -0.5s-11.334 -1.5 -17.001 -3.5
s-10.834 -5 -15.501 -9s-8.33398 -9.66699 -11.001 -17l-10 -10h-140l-10 10c0 20 4 39.5 12 58.5s20.667 36 38 51s40 27.167 68 36.5s62 14 102 14c42.667 0 78.667 -4.33301 108 -13s53 -21.5 71 -38.5s31 -37.833 39 -62.5s12 -53.334 12 -86.001v-300zM320.003 200.002
l-15 5c-5.33301 1.33301 -11.666 2.5 -18.999 3.5s-16 1.5 -26 1.5c-25.333 0 -43.333 -4.5 -54 -13.5s-16 -21.167 -16 -36.5s6.16699 -25.833 18.5 -31.5s26.166 -8.5 41.499 -8.5c20 0 38.333 5 55 15s25 25 25 45v10zM460.003 560.002h-110l-20 10l-50 40h-20l-50 -40
l-20 -10h-110l-10 10v20l90 100l20 10h180l20 -10l90 -100v-20z" />
    <glyph glyph-name="atilde" unicode="&#xe3;" horiz-adv-x="540" 
d="M490 0l-139.997 0.00195312l-10 10l-10 20h-10c-8 -7.33301 -18 -14 -30 -20c-10 -5.33301 -22.5 -10 -37.5 -14s-32.5 -6 -52.5 -6c-55.333 0 -99.166 14.167 -131.499 42.5s-48.5 67.5 -48.5 117.5c0 37.333 7.16699 67.166 21.5 89.499s32.166 39.5 53.499 51.5
s44.166 19.833 68.499 23.5s46.5 5.5 66.5 5.5c15.333 0 28.5 -0.5 39.5 -1.5s20.167 -2.16699 27.5 -3.5c8.66699 -2 16.334 -3.66699 23.001 -5l10 10v10c0 20 -5 33.333 -15 40s-25 10 -45 10c-5.33301 0 -10.833 -0.166992 -16.5 -0.5s-11.334 -1.5 -17.001 -3.5
s-10.834 -5 -15.501 -9s-8.33398 -9.66699 -11.001 -17l-10 -10h-140l-10 10c0 20 4 39.5 12 58.5s20.667 36 38 51s40 27.167 68 36.5s62 14 102 14c42.667 0 78.667 -4.33301 108 -13s53 -21.5 71 -38.5s31 -37.833 39 -62.5s12 -53.334 12 -86.001v-300zM320.003 200.002
l-15 5c-5.33301 1.33301 -11.666 2.5 -18.999 3.5s-16 1.5 -26 1.5c-25.333 0 -43.333 -4.5 -54 -13.5s-16 -21.167 -16 -36.5s6.16699 -25.833 18.5 -31.5s26.166 -8.5 41.499 -8.5c20 0 38.333 5 55 15s25 25 25 45v10zM350.003 540.002c-20 0 -37.667 3.66699 -53 11
s-29 15.333 -41 24s-22.5 16.667 -31.5 24s-17.167 11 -24.5 11c-10 0 -17.5 -2.83301 -22.5 -8.5s-7.5 -16.167 -7.5 -31.5l-10 -10h-70l-10 10c0 40 10 73.333 30 100s50 40 90 40c20 0 37.667 -3.66699 53 -11s29 -15.333 41 -24s22.5 -16.667 31.5 -24
s17.167 -11 24.5 -11c10 0 17.5 2.83301 22.5 8.5s7.5 16.167 7.5 31.5l10 10h70l10 -10c0 -40 -10 -73.333 -30 -100s-50 -40 -90 -40z" />
    <glyph glyph-name="adieresis" unicode="&#xe4;" horiz-adv-x="540" 
d="M490 0l-139.997 0.00195312l-10 10l-10 20h-10c-8 -7.33301 -18 -14 -30 -20c-10 -5.33301 -22.5 -10 -37.5 -14s-32.5 -6 -52.5 -6c-55.333 0 -99.166 14.167 -131.499 42.5s-48.5 67.5 -48.5 117.5c0 37.333 7.16699 67.166 21.5 89.499s32.166 39.5 53.499 51.5
s44.166 19.833 68.499 23.5s46.5 5.5 66.5 5.5c15.333 0 28.5 -0.5 39.5 -1.5s20.167 -2.16699 27.5 -3.5c8.66699 -2 16.334 -3.66699 23.001 -5l10 10v10c0 20 -5 33.333 -15 40s-25 10 -45 10c-5.33301 0 -10.833 -0.166992 -16.5 -0.5s-11.334 -1.5 -17.001 -3.5
s-10.834 -5 -15.501 -9s-8.33398 -9.66699 -11.001 -17l-10 -10h-140l-10 10c0 20 4 39.5 12 58.5s20.667 36 38 51s40 27.167 68 36.5s62 14 102 14c42.667 0 78.667 -4.33301 108 -13s53 -21.5 71 -38.5s31 -37.833 39 -62.5s12 -53.334 12 -86.001v-300zM320.003 200.002
l-15 5c-5.33301 1.33301 -11.666 2.5 -18.999 3.5s-16 1.5 -26 1.5c-25.333 0 -43.333 -4.5 -54 -13.5s-16 -21.167 -16 -36.5s6.16699 -25.833 18.5 -31.5s26.166 -8.5 41.499 -8.5c20 0 38.333 5 55 15s25 25 25 45v10zM450.003 560.002h-140l-10 10v120l10 10h140l10 -10
v-120zM230.003 560.002h-140l-10 10v120l10 10h140l10 -10v-120z" />
    <glyph glyph-name="aring" unicode="&#xe5;" horiz-adv-x="540" 
d="M490 0l-139.997 0.00195312l-10 10l-10 20h-10c-8 -7.33301 -18 -14 -30 -20c-10 -5.33301 -22.5 -10 -37.5 -14s-32.5 -6 -52.5 -6c-55.333 0 -99.166 14.167 -131.499 42.5s-48.5 67.5 -48.5 117.5c0 37.333 7.16699 67.166 21.5 89.499s32.166 39.5 53.499 51.5
s44.166 19.833 68.499 23.5s46.5 5.5 66.5 5.5c15.333 0 28.5 -0.5 39.5 -1.5s20.167 -2.16699 27.5 -3.5c8.66699 -2 16.334 -3.66699 23.001 -5l10 10v10c0 20 -5 33.333 -15 40s-25 10 -45 10c-5.33301 0 -10.833 -0.166992 -16.5 -0.5s-11.334 -1.5 -17.001 -3.5
s-10.834 -5 -15.501 -9s-8.33398 -9.66699 -11.001 -17l-10 -10h-140l-10 10c0 20 4 39.5 12 58.5s20.667 36 38 51s40 27.167 68 36.5s62 14 102 14c42.667 0 78.667 -4.33301 108 -13s53 -21.5 71 -38.5s31 -37.833 39 -62.5s12 -53.334 12 -86.001v-300zM320.003 200.002
l-15 5c-5.33301 1.33301 -11.666 2.5 -18.999 3.5s-16 1.5 -26 1.5c-25.333 0 -43.333 -4.5 -54 -13.5s-16 -21.167 -16 -36.5s6.16699 -25.833 18.5 -31.5s26.166 -8.5 41.499 -8.5c20 0 38.333 5 55 15s25 25 25 45v10zM320.003 660.002c0 10 -3.33301 19.167 -10 27.5
s-20 12.5 -40 12.5s-33.333 -4.16699 -40 -12.5s-10 -17.5 -10 -27.5s3.33301 -19.167 10 -27.5s20 -12.5 40 -12.5s33.333 4.16699 40 12.5s10 17.5 10 27.5zM130.003 660.002c0 35.333 12 64.166 36 86.499s58.667 33.5 104 33.5s80 -11.167 104 -33.5
s36 -51.166 36 -86.499c0 -15.333 -3 -30.166 -9 -44.499s-15 -27 -27 -38s-26.667 -20 -44 -27s-37.333 -10.5 -60 -10.5s-42.667 3.5 -60 10.5s-32 16 -44 27s-21 23.667 -27 38s-9 29.166 -9 44.499z" />
    <glyph glyph-name="ae" unicode="&#xe6;" horiz-adv-x="850" 
d="M830 210l-10.002 -10h-300l-10 -10c0 -5.33301 0.833008 -11.833 2.5 -19.5s5.33398 -15.334 11.001 -23.001s13.834 -14.167 24.501 -19.5s24.667 -8 42 -8c30 0 50 10 60 30l10 10h150l10 -10c-2.66699 -15.333 -8.66699 -32.166 -18 -50.499s-23 -35.666 -41 -51.999
s-41 -30 -69 -41s-62 -16.5 -102 -16.5c-35.333 0 -68.666 4.5 -99.999 13.5s-54.666 21.167 -69.999 36.5h-10c-35.333 -20 -68.666 -33.333 -99.999 -40s-64.666 -10 -99.999 -10c-60.667 0 -107.5 14.167 -140.5 42.5s-49.5 67.5 -49.5 117.5
c0 37.333 7.16699 67.166 21.5 89.499s32.166 39.5 53.499 51.5s44.166 19.833 68.499 23.5s46.5 5.5 66.5 5.5c15.333 0 28.5 -0.5 39.5 -1.5s20.167 -2.16699 27.5 -3.5c8.66699 -2 16.334 -3.66699 23.001 -5l10 10v10c0 20 -5 33.333 -15 40s-25 10 -45 10
c-5.33301 0 -10.833 -0.166992 -16.5 -0.5s-11.334 -1.5 -17.001 -3.5s-10.834 -5 -15.501 -9s-8.33398 -9.66699 -11.001 -17l-10 -10h-140l-10 10c0 20 4 39.5 12 58.5s20.667 36 38 51s40 27.167 68 36.5s62 14 102 14c35.333 0 65.333 -4.5 90 -13.5
s44.667 -21.167 60 -36.5h10c15.333 15.333 35.333 27.5 60 36.5s54.667 13.5 90 13.5c42.667 0 79.667 -6.5 111 -19.5s57.333 -31 78 -54s36 -50.5 46 -82.5s15 -66.667 15 -104v-40zM319.998 200l-15 5c-5.33301 1.33301 -11.666 2.5 -18.999 3.5s-16 1.5 -26 1.5
c-25.333 0 -43.333 -4.5 -54 -13.5s-16 -21.167 -16 -36.5s6.16699 -25.833 18.5 -31.5s26.166 -8.5 41.499 -8.5c20 0 38.333 5 55 15s25 25 25 45v10zM649.998 320c0 2.66699 -0.833008 7.16699 -2.5 13.5s-5 13 -10 20s-12.167 13.167 -21.5 18.5s-21.333 8 -36 8
c-15.333 0 -27.5 -2.66699 -36.5 -8s-16 -11.5 -21 -18.5s-8.33301 -13.667 -10 -20s-2.5 -10.833 -2.5 -13.5l10 -10h120z" />
    <glyph glyph-name="ccedilla" unicode="&#xe7;" horiz-adv-x="540" 
d="M220 -110l-29.9941 29.9951v10l50 50v10c-37.333 4.66699 -69.833 14.834 -97.5 30.501s-50.5 35 -68.5 58s-31.5 49.167 -40.5 78.5s-13.5 60.333 -13.5 93c0 40 6 76 18 108s29.333 59.333 52 82s50 40 82 52s68 18 108 18c70.667 0 125.834 -16.167 165.501 -48.5
s64.5 -76.166 74.5 -131.499l-10 -10h-150l-10 10c-5.33301 15.333 -14.5 25.833 -27.5 31.5s-27.167 8.5 -42.5 8.5c-25.333 0 -46.666 -8.83301 -63.999 -26.5s-26 -48.834 -26 -93.501c0 -22.667 2.33301 -41.667 7 -57s11 -27.666 19 -36.999s17.5 -16 28.5 -20
s22.833 -6 35.5 -6c15.333 0 29.5 2.83301 42.5 8.5s22.167 16.167 27.5 31.5l10 10h150l10 -10c-5.33301 -27.333 -13.333 -51.166 -24 -71.499s-23.834 -37.666 -39.501 -51.999s-33.334 -26.166 -53.001 -35.499s-40.834 -16.333 -63.501 -21l-20 -10l-30 -30v-10
c20 0 38.333 -5.5 55 -16.5s25 -28.833 25 -53.5c0 -25.333 -10.833 -45 -32.5 -59s-47.5 -21 -77.5 -21c-20 0 -36.333 2.83301 -49 8.5s-26.334 16.167 -41.001 31.5v10l20 20h10c4.66699 -5.33301 9.16699 -9.33301 13.5 -12s8.66602 -4.5 12.999 -5.5
s9.16602 -1.66699 14.499 -2s11.666 -0.5 18.999 -0.5c15.333 0 25.833 2.5 31.5 7.5s8.5 12.5 8.5 22.5s-2.83301 17.5 -8.5 22.5s-16.167 7.5 -31.5 7.5c-5.33301 0 -9.83301 -0.5 -13.5 -1.5s-6.83398 -2.16699 -9.50098 -3.5c-2.66699 -2 -5 -3.66699 -7 -5h-10z" />
    <glyph glyph-name="egrave" unicode="&#xe8;" horiz-adv-x="540" 
d="M520 210l-10.002 -10.001h-300l-10 -10c0 -5.33301 0.833008 -11.833 2.5 -19.5s5.33398 -15.334 11.001 -23.001s13.834 -14.167 24.501 -19.5s24.667 -8 42 -8c30 0 50 10 60 30l10 10h150l10 -10c-2.66699 -15.333 -8.66699 -32.166 -18 -50.499
s-23 -35.666 -41 -51.999s-41 -30 -69 -41s-62 -16.5 -102 -16.5c-45.333 0 -84.333 6.5 -117 19.5s-59.5 31 -80.5 54s-36.667 50.5 -47 82.5s-15.5 66.667 -15.5 104s5 72 15 104s25.333 59.5 46 82.5s46.667 41 78 54s68.333 19.5 111 19.5s79.667 -6.5 111 -19.5
s57.333 -31 78 -54s36 -50.5 46 -82.5s15 -66.667 15 -104v-40zM339.998 319.999c0 2.66699 -0.833008 7.16699 -2.5 13.5s-5 13 -10 20s-12.167 13.167 -21.5 18.5s-21.333 8 -36 8c-15.333 0 -27.5 -2.66699 -36.5 -8s-16 -11.5 -21 -18.5s-8.33301 -13.667 -10 -20
s-2.5 -10.833 -2.5 -13.5l10 -10h120zM369.998 559.999h-130l-20 10l-110 100v20l10 10h150l20 -10l90 -100v-20z" />
    <glyph glyph-name="eacute" unicode="&#xe9;" horiz-adv-x="540" 
d="M520 210l-10.002 -10.001h-300l-10 -10c0 -5.33301 0.833008 -11.833 2.5 -19.5s5.33398 -15.334 11.001 -23.001s13.834 -14.167 24.501 -19.5s24.667 -8 42 -8c30 0 50 10 60 30l10 10h150l10 -10c-2.66699 -15.333 -8.66699 -32.166 -18 -50.499
s-23 -35.666 -41 -51.999s-41 -30 -69 -41s-62 -16.5 -102 -16.5c-45.333 0 -84.333 6.5 -117 19.5s-59.5 31 -80.5 54s-36.667 50.5 -47 82.5s-15.5 66.667 -15.5 104s5 72 15 104s25.333 59.5 46 82.5s46.667 41 78 54s68.333 19.5 111 19.5s79.667 -6.5 111 -19.5
s57.333 -31 78 -54s36 -50.5 46 -82.5s15 -66.667 15 -104v-40zM339.998 319.999c0 2.66699 -0.833008 7.16699 -2.5 13.5s-5 13 -10 20s-12.167 13.167 -21.5 18.5s-21.333 8 -36 8c-15.333 0 -27.5 -2.66699 -36.5 -8s-16 -11.5 -21 -18.5s-8.33301 -13.667 -10 -20
s-2.5 -10.833 -2.5 -13.5l10 -10h120zM159.998 569.999v20l90 100l20 10h150l10 -10v-20l-110 -100l-20 -10h-130z" />
    <glyph glyph-name="ecircumflex" unicode="&#xea;" horiz-adv-x="540" 
d="M520 210l-10.002 -10.001h-300l-10 -10c0 -5.33301 0.833008 -11.833 2.5 -19.5s5.33398 -15.334 11.001 -23.001s13.834 -14.167 24.501 -19.5s24.667 -8 42 -8c30 0 50 10 60 30l10 10h150l10 -10c-2.66699 -15.333 -8.66699 -32.166 -18 -50.499
s-23 -35.666 -41 -51.999s-41 -30 -69 -41s-62 -16.5 -102 -16.5c-45.333 0 -84.333 6.5 -117 19.5s-59.5 31 -80.5 54s-36.667 50.5 -47 82.5s-15.5 66.667 -15.5 104s5 72 15 104s25.333 59.5 46 82.5s46.667 41 78 54s68.333 19.5 111 19.5s79.667 -6.5 111 -19.5
s57.333 -31 78 -54s36 -50.5 46 -82.5s15 -66.667 15 -104v-40zM339.998 319.999c0 2.66699 -0.833008 7.16699 -2.5 13.5s-5 13 -10 20s-12.167 13.167 -21.5 18.5s-21.333 8 -36 8c-15.333 0 -27.5 -2.66699 -36.5 -8s-16 -11.5 -21 -18.5s-8.33301 -13.667 -10 -20
s-2.5 -10.833 -2.5 -13.5l10 -10h120zM459.998 559.999h-110l-20 10l-50 40h-20l-50 -40l-20 -10h-110l-10 10v20l90 100l20 10h180l20 -10l90 -100v-20z" />
    <glyph glyph-name="edieresis" unicode="&#xeb;" horiz-adv-x="540" 
d="M520 210l-10.002 -10.001h-300l-10 -10c0 -5.33301 0.833008 -11.833 2.5 -19.5s5.33398 -15.334 11.001 -23.001s13.834 -14.167 24.501 -19.5s24.667 -8 42 -8c30 0 50 10 60 30l10 10h150l10 -10c-2.66699 -15.333 -8.66699 -32.166 -18 -50.499
s-23 -35.666 -41 -51.999s-41 -30 -69 -41s-62 -16.5 -102 -16.5c-45.333 0 -84.333 6.5 -117 19.5s-59.5 31 -80.5 54s-36.667 50.5 -47 82.5s-15.5 66.667 -15.5 104s5 72 15 104s25.333 59.5 46 82.5s46.667 41 78 54s68.333 19.5 111 19.5s79.667 -6.5 111 -19.5
s57.333 -31 78 -54s36 -50.5 46 -82.5s15 -66.667 15 -104v-40zM339.998 319.999c0 2.66699 -0.833008 7.16699 -2.5 13.5s-5 13 -10 20s-12.167 13.167 -21.5 18.5s-21.333 8 -36 8c-15.333 0 -27.5 -2.66699 -36.5 -8s-16 -11.5 -21 -18.5s-8.33301 -13.667 -10 -20
s-2.5 -10.833 -2.5 -13.5l10 -10h120zM449.998 559.999h-140l-10 10v120l10 10h140l10 -10v-120zM229.998 559.999h-140l-10 10v120l10 10h140l10 -10v-120z" />
    <glyph glyph-name="igrave" unicode="&#xec;" horiz-adv-x="260" 
d="M205 0h-150l-10 10v480l10 10h150l10 -10v-480zM225 560h-120l-20 10l-100 100v20l10 10h140l20 -10l80 -100v-20z" />
    <glyph glyph-name="iacute" unicode="&#xed;" horiz-adv-x="260" 
d="M205 0h-150l-10 10v480l10 10h150l10 -10v-480zM25 570v20l80 100l20 10h140l10 -10v-20l-100 -100l-20 -10h-120z" />
    <glyph glyph-name="icircumflex" unicode="&#xee;" horiz-adv-x="260" 
d="M205 0h-150l-10 10v480l10 10h150l10 -10v-480zM321 560h-110l-20 10l-50 40h-20l-50 -40l-20 -10h-110l-10 10v20l90 100l20 10h180l20 -10l90 -100v-20z" />
    <glyph glyph-name="idieresis" unicode="&#xef;" horiz-adv-x="260" 
d="M205 0h-150l-10 10v480l10 10h150l10 -10v-480zM312 560h-140l-10 10v120l10 10h140l10 -10v-120zM92 560h-140l-10 10v120l10 10h140l10 -10v-120z" />
    <glyph glyph-name="eth" unicode="&#xf0;" horiz-adv-x="560" 
d="M190 230c0 -35.333 7 -62.5 21 -81.5s33.667 -28.5 59 -28.5s45 9.5 59 28.5s21 46.167 21 81.5s-7 62.5 -21 81.5s-33.667 28.5 -59 28.5c-30 0 -50.833 -9.5 -62.5 -28.5s-17.5 -46.167 -17.5 -81.5zM270 -10c-37.333 0 -71.332 5.49609 -101.999 16.4961
s-57 26.833 -79 47.5s-39 45.834 -51 75.501s-18 63.167 -18 100.5c0 34.667 4.83301 66.834 14.5 96.501s23.5 55 41.5 76s40 37.5 66 49.5s55.333 18 88 18c25.333 0 47.833 -2.83301 67.5 -8.5s37.167 -16.167 52.5 -31.5h10c-1.33301 40 -11.333 73.333 -30 100h-10
l-30 -30l-20 -10h-80l-10 10v50l30 30v10h-10c-17.333 0 -32.833 -1 -46.5 -3s-25.167 -4.33301 -34.5 -7c-11.333 -2.66699 -21 -6 -29 -10l-10 10v100l10 10c21.333 7.33301 43.666 12.5 66.999 15.5s47.666 4.5 72.999 4.5c20 0 38.5 -0.833008 55.5 -2.5
s31.833 -4.16699 44.5 -7.5h10l30 30l20 10h70l10 -10v-60l-30 -30v-10c35.333 -30 60.833 -68.667 76.5 -116s23.5 -98.666 23.5 -153.999c0 -67.333 -5.66699 -124.5 -17 -171.5s-28.166 -85.167 -50.499 -114.5s-50.5 -50.666 -84.5 -63.999s-73.333 -20 -118 -20z" />
    <glyph glyph-name="ntilde" unicode="&#xf1;" horiz-adv-x="615" 
d="M565 0h-150.002l-10 10v250c0 35.333 -6.16699 62.5 -18.5 81.5s-36.166 28.5 -71.499 28.5c-12.667 0 -25 -2 -37 -6s-22.667 -10.667 -32 -20s-16.833 -21.666 -22.5 -36.999s-8.5 -34.333 -8.5 -57v-240l-10 -10h-150l-10 10v480l10 10h140l10 -10l10 -30h10
c10 10 27 20.833 51 32.5s53.667 17.5 89 17.5c34.667 0 65.167 -6 91.5 -18s48.333 -28.5 66 -49.5s30.834 -46.333 39.501 -76s13 -61.834 13 -96.501v-260zM384.998 540c-20 0 -37.667 3.66699 -53 11s-29 15.333 -41 24s-22.5 16.667 -31.5 24s-17.167 11 -24.5 11
c-10 0 -17.5 -2.83301 -22.5 -8.5s-7.5 -16.167 -7.5 -31.5l-10 -10h-70l-10 10c0 40 10 73.333 30 100s50 40 90 40c20 0 37.667 -3.66699 53 -11s29 -15.333 41 -24s22.5 -16.667 31.5 -24s17.167 -11 24.5 -11c10 0 17.5 2.83301 22.5 8.5s7.5 16.167 7.5 31.5l10 10h70
l10 -10c0 -40 -10 -73.333 -30 -100s-50 -40 -90 -40z" />
    <glyph glyph-name="ograve" unicode="&#xf2;" horiz-adv-x="560" 
d="M540 250c0 -40 -6 -76 -18 -108s-29.333 -59.333 -52 -82s-50 -40 -82 -52s-68 -18 -108 -18s-76 6 -108 18s-59.333 29.333 -82 52s-40 50 -52 82s-18 68 -18 108s6 76 18 108s29.333 59.333 52 82s50 40 82 52s68 18 108 18s76 -6 108 -18s59.333 -29.333 82 -52
s40 -50 52 -82s18 -68 18 -108zM370 250c0 22.667 -2.33398 41.6689 -7.00098 57.002s-11 27.666 -19 36.999s-17.5 16 -28.5 20s-22.833 6 -35.5 6c-25.333 0 -46.666 -8.83301 -63.999 -26.5s-26 -48.834 -26 -93.501c0 -22.667 2.33301 -41.667 7 -57
s11 -27.666 19 -36.999s17.5 -16 28.5 -20s22.833 -6 35.5 -6s24.5 2 35.5 6s20.5 10.667 28.5 20s14.333 21.666 19 36.999s7 34.333 7 57zM389.999 560.002h-130l-20 10l-110 100v20l10 10h150l20 -10l90 -100v-20z" />
    <glyph glyph-name="oacute" unicode="&#xf3;" horiz-adv-x="560" 
d="M540 250c0 -40 -6 -76 -18 -108s-29.333 -59.333 -52 -82s-50 -40 -82 -52s-68 -18 -108 -18s-76 6 -108 18s-59.333 29.333 -82 52s-40 50 -52 82s-18 68 -18 108s6 76 18 108s29.333 59.333 52 82s50 40 82 52s68 18 108 18s76 -6 108 -18s59.333 -29.333 82 -52
s40 -50 52 -82s18 -68 18 -108zM370 250c0 22.667 -2.33398 41.6689 -7.00098 57.002s-11 27.666 -19 36.999s-17.5 16 -28.5 20s-22.833 6 -35.5 6c-25.333 0 -46.666 -8.83301 -63.999 -26.5s-26 -48.834 -26 -93.501c0 -22.667 2.33301 -41.667 7 -57
s11 -27.666 19 -36.999s17.5 -16 28.5 -20s22.833 -6 35.5 -6s24.5 2 35.5 6s20.5 10.667 28.5 20s14.333 21.666 19 36.999s7 34.333 7 57zM159.999 570.002v20l90 100l20 10h150l10 -10v-20l-110 -100l-20 -10h-130z" />
    <glyph glyph-name="ocircumflex" unicode="&#xf4;" horiz-adv-x="560" 
d="M540 250c0 -40 -6 -76 -18 -108s-29.333 -59.333 -52 -82s-50 -40 -82 -52s-68 -18 -108 -18s-76 6 -108 18s-59.333 29.333 -82 52s-40 50 -52 82s-18 68 -18 108s6 76 18 108s29.333 59.333 52 82s50 40 82 52s68 18 108 18s76 -6 108 -18s59.333 -29.333 82 -52
s40 -50 52 -82s18 -68 18 -108zM370 250c0 22.667 -2.33398 41.6689 -7.00098 57.002s-11 27.666 -19 36.999s-17.5 16 -28.5 20s-22.833 6 -35.5 6c-25.333 0 -46.666 -8.83301 -63.999 -26.5s-26 -48.834 -26 -93.501c0 -22.667 2.33301 -41.667 7 -57
s11 -27.666 19 -36.999s17.5 -16 28.5 -20s22.833 -6 35.5 -6s24.5 2 35.5 6s20.5 10.667 28.5 20s14.333 21.666 19 36.999s7 34.333 7 57zM469.999 560.002h-110l-20 10l-50 40h-20l-50 -40l-20 -10h-110l-10 10v20l90 100l20 10h180l20 -10l90 -100v-20z" />
    <glyph glyph-name="otilde" unicode="&#xf5;" horiz-adv-x="560" 
d="M540 250c0 -40 -6 -76 -18 -108s-29.333 -59.333 -52 -82s-50 -40 -82 -52s-68 -18 -108 -18s-76 6 -108 18s-59.333 29.333 -82 52s-40 50 -52 82s-18 68 -18 108s6 76 18 108s29.333 59.333 52 82s50 40 82 52s68 18 108 18s76 -6 108 -18s59.333 -29.333 82 -52
s40 -50 52 -82s18 -68 18 -108zM370 250c0 22.667 -2.33398 41.6689 -7.00098 57.002s-11 27.666 -19 36.999s-17.5 16 -28.5 20s-22.833 6 -35.5 6c-25.333 0 -46.666 -8.83301 -63.999 -26.5s-26 -48.834 -26 -93.501c0 -22.667 2.33301 -41.667 7 -57
s11 -27.666 19 -36.999s17.5 -16 28.5 -20s22.833 -6 35.5 -6s24.5 2 35.5 6s20.5 10.667 28.5 20s14.333 21.666 19 36.999s7 34.333 7 57zM354.999 540.002c-20 0 -37.667 3.66699 -53 11s-29 15.333 -41 24s-22.5 16.667 -31.5 24s-17.167 11 -24.5 11
c-10 0 -17.5 -2.83301 -22.5 -8.5s-7.5 -16.167 -7.5 -31.5l-10 -10h-70l-10 10c0 40 10 73.333 30 100s50 40 90 40c20 0 37.667 -3.66699 53 -11s29 -15.333 41 -24s22.5 -16.667 31.5 -24s17.167 -11 24.5 -11c10 0 17.5 2.83301 22.5 8.5s7.5 16.167 7.5 31.5l10 10h70
l10 -10c0 -40 -10 -73.333 -30 -100s-50 -40 -90 -40z" />
    <glyph glyph-name="odieresis" unicode="&#xf6;" horiz-adv-x="560" 
d="M540 250c0 -40 -6 -76 -18 -108s-29.333 -59.333 -52 -82s-50 -40 -82 -52s-68 -18 -108 -18s-76 6 -108 18s-59.333 29.333 -82 52s-40 50 -52 82s-18 68 -18 108s6 76 18 108s29.333 59.333 52 82s50 40 82 52s68 18 108 18s76 -6 108 -18s59.333 -29.333 82 -52
s40 -50 52 -82s18 -68 18 -108zM370 250c0 22.667 -2.33398 41.6689 -7.00098 57.002s-11 27.666 -19 36.999s-17.5 16 -28.5 20s-22.833 6 -35.5 6c-25.333 0 -46.666 -8.83301 -63.999 -26.5s-26 -48.834 -26 -93.501c0 -22.667 2.33301 -41.667 7 -57
s11 -27.666 19 -36.999s17.5 -16 28.5 -20s22.833 -6 35.5 -6s24.5 2 35.5 6s20.5 10.667 28.5 20s14.333 21.666 19 36.999s7 34.333 7 57zM459.999 560.002h-140l-10 10v120l10 10h140l10 -10v-120zM239.999 560.002h-140l-10 10v120l10 10h140l10 -10v-120z" />
    <glyph glyph-name="divide" unicode="&#xf7;" horiz-adv-x="560" 
d="M500 180h-440l-10 10v120l10 10h440l10 -10v-120zM360 0h-160l-10 10v120l10 10h160l10 -10v-120zM360 360h-160l-10 10v120l10 10h160l10 -10v-120z" />
    <glyph glyph-name="oslash" unicode="&#xf8;" horiz-adv-x="560" 
d="M320 350l-0.000976562 10.001c-10 5.33301 -17.833 8.33301 -23.5 9s-11.167 1 -16.5 1c-25.333 0 -46.666 -8.83301 -63.999 -26.5s-26 -48.834 -26 -93.501v-10h10zM279.999 -9.99902c-25.333 0 -50.333 2.83301 -75 8.5s-49.667 16.167 -75 31.5h-20l-20 -20l-20 -10
h-30l-10 10v70l20 20v20c-10 20 -17.5 40.333 -22.5 61s-7.5 43.667 -7.5 69c0 40 6 76 18 108s29.333 59.333 52 82s50 40 82 52s68 18 108 18c25.333 0 50.333 -2.83301 75 -8.5s49.667 -16.167 75 -31.5h20l20 20l20 10h30l10 -10v-70l-20 -20v-20
c10 -20 17.5 -40.333 22.5 -61s7.5 -43.667 7.5 -69c0 -40 -6 -76 -18 -108s-29.333 -59.333 -52 -82s-50 -40 -82 -52s-68 -18 -108 -18zM239.999 150.001v-9.99902c10 -5.33301 17.833 -8.33301 23.5 -9s11.167 -1 16.5 -1c12.667 0 24.5 2 35.5 6s20.5 10.667 28.5 20
s14.333 21.666 19 36.999s7 34.333 7 57v10h-10z" />
    <glyph glyph-name="ugrave" unicode="&#xf9;" horiz-adv-x="595" 
d="M50 500h149.999l10 -10v-260c0 -35.333 5.83301 -60.833 17.5 -76.5s32.5 -23.5 62.5 -23.5c25.333 0 46.666 9.5 63.999 28.5s26 46.167 26 81.5v250l10 10h150l10 -10v-480l-10 -10h-140l-10 10l-10 30h-10c-5.33301 -5.33301 -11.166 -10.833 -17.499 -16.5
s-14.166 -11 -23.499 -16s-20.5 -9.16699 -33.5 -12.5s-28.167 -5 -45.5 -5c-70 0 -122.5 20.833 -157.5 62.5s-52.5 97.5 -52.5 167.5v270zM399.999 560h-130l-20 10l-110 100v20l10 10h150l20 -10l90 -100v-20z" />
    <glyph glyph-name="uacute" unicode="&#xfa;" horiz-adv-x="595" 
d="M50 500h149.999l10 -10v-260c0 -35.333 5.83301 -60.833 17.5 -76.5s32.5 -23.5 62.5 -23.5c25.333 0 46.666 9.5 63.999 28.5s26 46.167 26 81.5v250l10 10h150l10 -10v-480l-10 -10h-140l-10 10l-10 30h-10c-5.33301 -5.33301 -11.166 -10.833 -17.499 -16.5
s-14.166 -11 -23.499 -16s-20.5 -9.16699 -33.5 -12.5s-28.167 -5 -45.5 -5c-70 0 -122.5 20.833 -157.5 62.5s-52.5 97.5 -52.5 167.5v270zM169.999 570v20l90 100l20 10h150l10 -10v-20l-110 -100l-20 -10h-130z" />
    <glyph glyph-name="ucircumflex" unicode="&#xfb;" horiz-adv-x="595" 
d="M50 500h149.999l10 -10v-260c0 -35.333 5.83301 -60.833 17.5 -76.5s32.5 -23.5 62.5 -23.5c25.333 0 46.666 9.5 63.999 28.5s26 46.167 26 81.5v250l10 10h150l10 -10v-480l-10 -10h-140l-10 10l-10 30h-10c-5.33301 -5.33301 -11.166 -10.833 -17.499 -16.5
s-14.166 -11 -23.499 -16s-20.5 -9.16699 -33.5 -12.5s-28.167 -5 -45.5 -5c-70 0 -122.5 20.833 -157.5 62.5s-52.5 97.5 -52.5 167.5v270zM484.999 560h-110l-20 10l-50 40h-20l-50 -40l-20 -10h-110l-10 10v20l90 100l20 10h180l20 -10l90 -100v-20z" />
    <glyph glyph-name="udieresis" unicode="&#xfc;" horiz-adv-x="595" 
d="M50 500h149.999l10 -10v-260c0 -35.333 5.83301 -60.833 17.5 -76.5s32.5 -23.5 62.5 -23.5c25.333 0 46.666 9.5 63.999 28.5s26 46.167 26 81.5v250l10 10h150l10 -10v-480l-10 -10h-140l-10 10l-10 30h-10c-5.33301 -5.33301 -11.166 -10.833 -17.499 -16.5
s-14.166 -11 -23.499 -16s-20.5 -9.16699 -33.5 -12.5s-28.167 -5 -45.5 -5c-70 0 -122.5 20.833 -157.5 62.5s-52.5 97.5 -52.5 167.5v270zM474.999 560h-140l-10 10v120l10 10h140l10 -10v-120zM254.999 560h-140l-10 10v120l10 10h140l10 -10v-120z" />
    <glyph glyph-name="yacute" unicode="&#xfd;" horiz-adv-x="540" 
d="M185 0l-159.998 370v120l10 10h110l10 -10l110 -310h10l110 310l10 10h110l10 -10v-120l-160 -400c-10 -25.333 -21 -47.333 -33 -66s-26.833 -34.167 -44.5 -46.5s-38.834 -21.666 -63.501 -27.999s-54.334 -9.5 -89.001 -9.5h-70l-10 10v120l10 10h70
c15.333 0 27.833 1.16699 37.5 3.5s17.167 11.166 22.5 26.499v10zM165.002 570v20l90 100l20 10h150l10 -10v-20l-110 -100l-20 -10h-130z" />
    <glyph glyph-name="thorn" unicode="&#xfe;" horiz-adv-x="590" 
d="M570 250c0 -40 -5.33301 -76 -16 -108s-25.667 -59.333 -45 -82s-42.5 -40 -69.5 -52s-56.833 -18 -89.5 -18c-25.333 0 -49.166 4.5 -71.499 13.5s-38.5 21.167 -48.5 36.5h-10v-230l-10 -10h-150l-10 10v880l10 10h150l10 -10v-230h10c10 15.333 26.167 27.5 48.5 36.5
s46.166 13.5 71.499 13.5c32.667 0 62.5 -6 89.5 -18s50.167 -29.333 69.5 -52s34.333 -50 45 -82s16 -68 16 -108zM400 250c0 22.667 -2.33398 41.6689 -7.00098 57.002s-11 27.666 -19 36.999s-17.5 16 -28.5 20s-22.833 6 -35.5 6
c-25.333 0 -46.666 -8.83301 -63.999 -26.5s-26 -48.834 -26 -93.501c0 -22.667 2.33301 -41.667 7 -57s11 -27.666 19 -36.999s17.5 -16 28.5 -20s22.833 -6 35.5 -6s24.5 2 35.5 6s20.5 10.667 28.5 20s14.333 21.666 19 36.999s7 34.333 7 57z" />
    <glyph glyph-name="ydieresis" unicode="&#xff;" horiz-adv-x="540" 
d="M185 0l-159.998 370v120l10 10h110l10 -10l110 -310h10l110 310l10 10h110l10 -10v-120l-160 -400c-10 -25.333 -21 -47.333 -33 -66s-26.833 -34.167 -44.5 -46.5s-38.834 -21.666 -63.501 -27.999s-54.334 -9.5 -89.001 -9.5h-70l-10 10v120l10 10h70
c15.333 0 27.833 1.16699 37.5 3.5s17.167 11.166 22.5 26.499v10zM450.002 560h-140l-10 10v120l10 10h140l10 -10v-120zM230.002 560h-140l-10 10v120l10 10h140l10 -10v-120z" />
    <glyph glyph-name="Amacron" unicode="&#x100;" horiz-adv-x="670" 
d="M470 120l-20 10h-230l-20 -10l-40 -110l-10 -10h-120l-10 10v130l220 550l10 10h170l10 -10l220 -550v-130l-10 -10h-120l-10 10zM260 290l10 -10h130l10 10l-70 190h-10zM520 760h-370l-10 10v110l10 10h370l10 -10v-110z" />
    <glyph glyph-name="amacron" unicode="&#x101;" horiz-adv-x="540" 
d="M490 0l-139.997 0.00195312l-10 10l-10 20h-10c-8 -7.33301 -18 -14 -30 -20c-10 -5.33301 -22.5 -10 -37.5 -14s-32.5 -6 -52.5 -6c-55.333 0 -99.166 14.167 -131.499 42.5s-48.5 67.5 -48.5 117.5c0 37.333 7.16699 67.166 21.5 89.499s32.166 39.5 53.499 51.5
s44.166 19.833 68.499 23.5s46.5 5.5 66.5 5.5c15.333 0 28.5 -0.5 39.5 -1.5s20.167 -2.16699 27.5 -3.5c8.66699 -2 16.334 -3.66699 23.001 -5l10 10v10c0 20 -5 33.333 -15 40s-25 10 -45 10c-5.33301 0 -10.833 -0.166992 -16.5 -0.5s-11.334 -1.5 -17.001 -3.5
s-10.834 -5 -15.501 -9s-8.33398 -9.66699 -11.001 -17l-10 -10h-140l-10 10c0 20 4 39.5 12 58.5s20.667 36 38 51s40 27.167 68 36.5s62 14 102 14c42.667 0 78.667 -4.33301 108 -13s53 -21.5 71 -38.5s31 -37.833 39 -62.5s12 -53.334 12 -86.001v-300zM320.003 200.002
l-15 5c-5.33301 1.33301 -11.666 2.5 -18.999 3.5s-16 1.5 -26 1.5c-25.333 0 -43.333 -4.5 -54 -13.5s-16 -21.167 -16 -36.5s6.16699 -25.833 18.5 -31.5s26.166 -8.5 41.499 -8.5c20 0 38.333 5 55 15s25 25 25 45v10zM460.003 560.002h-370l-10 10v110l10 10h370l10 -10
v-110z" />
    <glyph glyph-name="Abreve" unicode="&#x102;" horiz-adv-x="670" 
d="M470 120l-20 10h-230l-20 -10l-40 -110l-10 -10h-120l-10 10v130l220 550l10 10h170l10 -10l220 -550v-130l-10 -10h-120l-10 10zM260 290l10 -10h130l10 10l-70 190h-10zM255 890c0 -15.333 5.83496 -27.5 17.502 -36.5s32.5 -13.5 62.5 -13.5s50.833 4.5 62.5 13.5
s17.5 21.167 17.5 36.5l10 10h80l10 -10c0 -20 -3.33301 -39 -10 -57s-17.167 -34 -31.5 -48s-32.833 -25 -55.5 -33s-50.334 -12 -83.001 -12s-60.334 4 -83.001 12s-41.167 19 -55.5 33s-24.833 30 -31.5 48s-10 37 -10 57l10 10h80z" />
    <glyph glyph-name="abreve" unicode="&#x103;" horiz-adv-x="540" 
d="M490 0l-139.997 0.00195312l-10 10l-10 20h-10c-8 -7.33301 -18 -14 -30 -20c-10 -5.33301 -22.5 -10 -37.5 -14s-32.5 -6 -52.5 -6c-55.333 0 -99.166 14.167 -131.499 42.5s-48.5 67.5 -48.5 117.5c0 37.333 7.16699 67.166 21.5 89.499s32.166 39.5 53.499 51.5
s44.166 19.833 68.499 23.5s46.5 5.5 66.5 5.5c15.333 0 28.5 -0.5 39.5 -1.5s20.167 -2.16699 27.5 -3.5c8.66699 -2 16.334 -3.66699 23.001 -5l10 10v10c0 20 -5 33.333 -15 40s-25 10 -45 10c-5.33301 0 -10.833 -0.166992 -16.5 -0.5s-11.334 -1.5 -17.001 -3.5
s-10.834 -5 -15.501 -9s-8.33398 -9.66699 -11.001 -17l-10 -10h-140l-10 10c0 20 4 39.5 12 58.5s20.667 36 38 51s40 27.167 68 36.5s62 14 102 14c42.667 0 78.667 -4.33301 108 -13s53 -21.5 71 -38.5s31 -37.833 39 -62.5s12 -53.334 12 -86.001v-300zM320.003 200.002
l-15 5c-5.33301 1.33301 -11.666 2.5 -18.999 3.5s-16 1.5 -26 1.5c-25.333 0 -43.333 -4.5 -54 -13.5s-16 -21.167 -16 -36.5s6.16699 -25.833 18.5 -31.5s26.166 -8.5 41.499 -8.5c20 0 38.333 5 55 15s25 25 25 45v10zM190.003 690.002
c0 -15.333 5.83496 -27.5 17.502 -36.5s32.5 -13.5 62.5 -13.5s50.833 4.5 62.5 13.5s17.5 21.167 17.5 36.5l10 10h80l10 -10c0 -20 -3.33301 -39 -10 -57s-17.167 -34 -31.5 -48s-32.833 -25 -55.5 -33s-50.334 -12 -83.001 -12s-60.334 4 -83.001 12s-41.167 19 -55.5 33
s-24.833 30 -31.5 48s-10 37 -10 57l10 10h80z" />
    <glyph glyph-name="Aogonek" unicode="&#x104;" horiz-adv-x="670" 
d="M470 120l-20.001 10.002h-230l-20 -10l-40 -110l-10 -10h-120l-10 10v130l220 550l10 10h170l10 -10l220 -550v-130l-10 -10c-30 -5.33301 -54.167 -12.833 -72.5 -22.5s-27.5 -22.167 -27.5 -37.5s4.5 -25.833 13.5 -31.5s21.167 -8.5 36.5 -8.5c14 0 26 1.66699 36 5
c5.33301 1.33301 10 3 14 5l10 -10v-80l-10 -10c-8.66699 -4 -18 -7.33301 -28 -10c-9.33301 -2.66699 -19.833 -5 -31.5 -7s-25.167 -3 -40.5 -3c-20 0 -38.5 2.5 -55.5 7.5s-31.667 12.5 -44 22.5s-22.166 22.5 -29.499 37.5s-11 32.5 -11 52.5
c0 25.333 9.5 48.666 28.5 69.999s46.167 34.666 81.5 39.999zM259.999 290.002l10 -10h130l10 10l-70 190h-10z" />
    <glyph glyph-name="aogonek" unicode="&#x105;" horiz-adv-x="540" 
d="M330 30l-9.99902 0.00195312c-8 -7.33301 -18 -14 -30 -20c-10 -5.33301 -22.5 -10 -37.5 -14s-32.5 -6 -52.5 -6c-55.333 0 -99.166 14.167 -131.499 42.5s-48.5 67.5 -48.5 117.5c0 37.333 7.16699 67.166 21.5 89.499s32.166 39.5 53.499 51.5
s44.166 19.833 68.499 23.5s46.5 5.5 66.5 5.5c15.333 0 28.5 -0.5 39.5 -1.5s20.167 -2.16699 27.5 -3.5c8.66699 -2 16.334 -3.66699 23.001 -5l10 10v10c0 20 -5 33.333 -15 40s-25 10 -45 10c-5.33301 0 -10.833 -0.166992 -16.5 -0.5s-11.334 -1.5 -17.001 -3.5
s-10.834 -5 -15.501 -9s-8.33398 -9.66699 -11.001 -17l-10 -10h-140l-10 10c0 20 4 39.5 12 58.5s20.667 36 38 51s40 27.167 68 36.5s62 14 102 14c42.667 0 78.667 -4.33301 108 -13s53 -21.5 71 -38.5s31 -37.833 39 -62.5s12 -53.334 12 -86.001v-300l-10 -10
c-30 -5.33301 -54.167 -12.833 -72.5 -22.5s-27.5 -22.167 -27.5 -37.5s4.5 -25.833 13.5 -31.5s21.167 -8.5 36.5 -8.5c14 0 26 1.66699 36 5c5.33301 1.33301 10 3 14 5l10 -10v-80l-10 -10c-8.66699 -4 -18 -7.33301 -28 -10c-9.33301 -2.66699 -19.833 -5 -31.5 -7
s-25.167 -3 -40.5 -3c-40 0 -73.333 9.5 -100 28.5s-40 46.167 -40 81.5c0 17.333 2.83301 32.333 8.5 45s12.834 23.5 21.501 32.5s18.334 16 29.001 21s21 8.83301 31 11.5zM320.001 200.002l-15 5c-5.33301 1.33301 -11.666 2.5 -18.999 3.5s-16 1.5 -26 1.5
c-25.333 0 -43.333 -4.5 -54 -13.5s-16 -21.167 -16 -36.5s6.16699 -25.833 18.5 -31.5s26.166 -8.5 41.499 -8.5c20 0 38.333 5 55 15s25 25 25 45v10z" />
    <glyph glyph-name="Cacute" unicode="&#x106;" horiz-adv-x="730" 
d="M380 -10c-47.333 0 -92.165 7.5 -134.498 22.5s-79.5 37.5 -111.5 67.5s-57.333 67.5 -76 112.5s-28 97.5 -28 157.5s9.33301 112.5 28 157.5s44 82.5 76 112.5s69.167 52.5 111.5 67.5s87.166 22.5 134.499 22.5c44.667 0 85.167 -5.33301 121.5 -16s68 -25.667 95 -45
s49.167 -42.5 66.5 -69.5s29.666 -56.833 36.999 -89.5l-10 -10h-167l-13 10c-10 20 -24.167 36.667 -42.5 50s-47.5 20 -87.5 20c-22.667 0 -44.167 -3.5 -64.5 -10.5s-38.333 -18.5 -54 -34.5s-28.167 -37.5 -37.5 -64.5s-14 -60.5 -14 -100.5s4.66699 -73.5 14 -100.5
s21.833 -48.5 37.5 -64.5s33.667 -27.5 54 -34.5s41.833 -10.5 64.5 -10.5c40 0 69.167 7 87.5 21s32.5 33.667 42.5 59l13 10h167l10 -10c-15.333 -70 -50 -125.833 -104 -167.5s-126 -62.5 -216 -62.5zM270.001 770v20l90 100l20 10h150l10 -10v-20l-110 -100l-20 -10
h-130z" />
    <glyph glyph-name="cacute" unicode="&#x107;" horiz-adv-x="540" 
d="M280 130c15.333 0 29.499 2.83105 42.499 8.49805s22.167 16.167 27.5 31.5l10 10h150l10 -10c-10 -55.333 -34.833 -99.166 -74.5 -131.499s-94.834 -48.5 -165.501 -48.5c-40 0 -76 6 -108 18s-59.333 29.333 -82 52s-40 50 -52 82s-18 68 -18 108s6 76 18 108
s29.333 59.333 52 82s50 40 82 52s68 18 108 18c70.667 0 125.834 -16.167 165.501 -48.5s64.5 -76.166 74.5 -131.499l-10 -10h-150l-10 10c-5.33301 15.333 -14.5 25.833 -27.5 31.5s-27.167 8.5 -42.5 8.5c-25.333 0 -46.666 -8.83301 -63.999 -26.5
s-26 -48.834 -26 -93.501c0 -22.667 2.33301 -41.667 7 -57s11 -27.666 19 -36.999s17.5 -16 28.5 -20s22.833 -6 35.5 -6zM169.999 569.998v20l90 100l20 10h150l10 -10v-20l-110 -100l-20 -10h-130z" />
    <glyph glyph-name="Ccircumflex" unicode="&#x108;" horiz-adv-x="730" 
d="M380 -10c-47.333 0 -92.165 7.5 -134.498 22.5s-79.5 37.5 -111.5 67.5s-57.333 67.5 -76 112.5s-28 97.5 -28 157.5s9.33301 112.5 28 157.5s44 82.5 76 112.5s69.167 52.5 111.5 67.5s87.166 22.5 134.499 22.5c44.667 0 85.167 -5.33301 121.5 -16s68 -25.667 95 -45
s49.167 -42.5 66.5 -69.5s29.666 -56.833 36.999 -89.5l-10 -10h-167l-13 10c-10 20 -24.167 36.667 -42.5 50s-47.5 20 -87.5 20c-22.667 0 -44.167 -3.5 -64.5 -10.5s-38.333 -18.5 -54 -34.5s-28.167 -37.5 -37.5 -64.5s-14 -60.5 -14 -100.5s4.66699 -73.5 14 -100.5
s21.833 -48.5 37.5 -64.5s33.667 -27.5 54 -34.5s41.833 -10.5 64.5 -10.5c40 0 69.167 7 87.5 21s32.5 33.667 42.5 59l13 10h167l10 -10c-15.333 -70 -50 -125.833 -104 -167.5s-126 -62.5 -216 -62.5zM570.001 760h-110l-20 10l-50 40h-20l-50 -40l-20 -10h-110l-10 10
v20l90 100l20 10h180l20 -10l90 -100v-20z" />
    <glyph glyph-name="ccircumflex" unicode="&#x109;" horiz-adv-x="540" 
d="M280 130c15.333 0 29.499 2.83105 42.499 8.49805s22.167 16.167 27.5 31.5l10 10h150l10 -10c-10 -55.333 -34.833 -99.166 -74.5 -131.499s-94.834 -48.5 -165.501 -48.5c-40 0 -76 6 -108 18s-59.333 29.333 -82 52s-40 50 -52 82s-18 68 -18 108s6 76 18 108
s29.333 59.333 52 82s50 40 82 52s68 18 108 18c70.667 0 125.834 -16.167 165.501 -48.5s64.5 -76.166 74.5 -131.499l-10 -10h-150l-10 10c-5.33301 15.333 -14.5 25.833 -27.5 31.5s-27.167 8.5 -42.5 8.5c-25.333 0 -46.666 -8.83301 -63.999 -26.5
s-26 -48.834 -26 -93.501c0 -22.667 2.33301 -41.667 7 -57s11 -27.666 19 -36.999s17.5 -16 28.5 -20s22.833 -6 35.5 -6zM469.999 559.998h-110l-20 10l-50 40h-20l-50 -40l-20 -10h-110l-10 10v20l90 100l20 10h180l20 -10l90 -100v-20z" />
    <glyph glyph-name="Cdotaccent" unicode="&#x10a;" horiz-adv-x="730" 
d="M380 -10c-47.333 0 -92.165 7.5 -134.498 22.5s-79.5 37.5 -111.5 67.5s-57.333 67.5 -76 112.5s-28 97.5 -28 157.5s9.33301 112.5 28 157.5s44 82.5 76 112.5s69.167 52.5 111.5 67.5s87.166 22.5 134.499 22.5c44.667 0 85.167 -5.33301 121.5 -16s68 -25.667 95 -45
s49.167 -42.5 66.5 -69.5s29.666 -56.833 36.999 -89.5l-10 -10h-167l-13 10c-10 20 -24.167 36.667 -42.5 50s-47.5 20 -87.5 20c-22.667 0 -44.167 -3.5 -64.5 -10.5s-38.333 -18.5 -54 -34.5s-28.167 -37.5 -37.5 -64.5s-14 -60.5 -14 -100.5s4.66699 -73.5 14 -100.5
s21.833 -48.5 37.5 -64.5s33.667 -27.5 54 -34.5s41.833 -10.5 64.5 -10.5c40 0 69.167 7 87.5 21s32.5 33.667 42.5 59l13 10h167l10 -10c-15.333 -70 -50 -125.833 -104 -167.5s-126 -62.5 -216 -62.5zM455.001 760h-150l-10 10v120l10 10h150l10 -10v-120z" />
    <glyph glyph-name="cdotaccent" unicode="&#x10b;" horiz-adv-x="540" 
d="M280 130c15.333 0 29.499 2.83105 42.499 8.49805s22.167 16.167 27.5 31.5l10 10h150l10 -10c-10 -55.333 -34.833 -99.166 -74.5 -131.499s-94.834 -48.5 -165.501 -48.5c-40 0 -76 6 -108 18s-59.333 29.333 -82 52s-40 50 -52 82s-18 68 -18 108s6 76 18 108
s29.333 59.333 52 82s50 40 82 52s68 18 108 18c70.667 0 125.834 -16.167 165.501 -48.5s64.5 -76.166 74.5 -131.499l-10 -10h-150l-10 10c-5.33301 15.333 -14.5 25.833 -27.5 31.5s-27.167 8.5 -42.5 8.5c-25.333 0 -46.666 -8.83301 -63.999 -26.5
s-26 -48.834 -26 -93.501c0 -22.667 2.33301 -41.667 7 -57s11 -27.666 19 -36.999s17.5 -16 28.5 -20s22.833 -6 35.5 -6zM354.999 559.998h-150l-10 10v120l10 10h150l10 -10v-120z" />
    <glyph glyph-name="Ccaron" unicode="&#x10c;" horiz-adv-x="730" 
d="M380 -10c-47.333 0 -92.165 7.5 -134.498 22.5s-79.5 37.5 -111.5 67.5s-57.333 67.5 -76 112.5s-28 97.5 -28 157.5s9.33301 112.5 28 157.5s44 82.5 76 112.5s69.167 52.5 111.5 67.5s87.166 22.5 134.499 22.5c44.667 0 85.167 -5.33301 121.5 -16s68 -25.667 95 -45
s49.167 -42.5 66.5 -69.5s29.666 -56.833 36.999 -89.5l-10 -10h-167l-13 10c-10 20 -24.167 36.667 -42.5 50s-47.5 20 -87.5 20c-22.667 0 -44.167 -3.5 -64.5 -10.5s-38.333 -18.5 -54 -34.5s-28.167 -37.5 -37.5 -64.5s-14 -60.5 -14 -100.5s4.66699 -73.5 14 -100.5
s21.833 -48.5 37.5 -64.5s33.667 -27.5 54 -34.5s41.833 -10.5 64.5 -10.5c40 0 69.167 7 87.5 21s32.5 33.667 42.5 59l13 10h167l10 -10c-15.333 -70 -50 -125.833 -104 -167.5s-126 -62.5 -216 -62.5zM580.001 890v-20l-90 -100l-20 -10h-180l-20 10l-90 100v20l10 10
h110l20 -10l50 -40h20l50 40l20 10h110z" />
    <glyph glyph-name="ccaron" unicode="&#x10d;" horiz-adv-x="540" 
d="M280 130c15.333 0 29.499 2.83105 42.499 8.49805s22.167 16.167 27.5 31.5l10 10h150l10 -10c-10 -55.333 -34.833 -99.166 -74.5 -131.499s-94.834 -48.5 -165.501 -48.5c-40 0 -76 6 -108 18s-59.333 29.333 -82 52s-40 50 -52 82s-18 68 -18 108s6 76 18 108
s29.333 59.333 52 82s50 40 82 52s68 18 108 18c70.667 0 125.834 -16.167 165.501 -48.5s64.5 -76.166 74.5 -131.499l-10 -10h-150l-10 10c-5.33301 15.333 -14.5 25.833 -27.5 31.5s-27.167 8.5 -42.5 8.5c-25.333 0 -46.666 -8.83301 -63.999 -26.5
s-26 -48.834 -26 -93.501c0 -22.667 2.33301 -41.667 7 -57s11 -27.666 19 -36.999s17.5 -16 28.5 -20s22.833 -6 35.5 -6zM479.999 689.998v-20l-90 -100l-20 -10h-180l-20 10l-90 100v20l10 10h110l20 -10l50 -40h20l50 40l20 10h110z" />
    <glyph glyph-name="Dcaron" unicode="&#x10e;" horiz-adv-x="710" 
d="M680 350c0 -55.333 -6.5 -104.667 -19.5 -148s-33.5 -80 -61.5 -110s-64.167 -52.833 -108.5 -68.5s-97.833 -23.5 -160.5 -23.5h-250l-10 10v680l10 10h250c62.667 0 116.167 -8 160.5 -24s80.5 -39 108.5 -69s48.5 -66.667 61.5 -110s19.5 -92.333 19.5 -147z
M500 349.999c0 40 -3.16699 72.833 -9.5 98.5s-16 46 -29 61s-29.667 25.5 -50 31.5s-44.166 9 -71.499 9h-80l-10 -10v-380l10 -10h80c27.333 0 51.166 2.83301 71.499 8.5s37 16 50 31s22.667 35.5 29 61.5s9.5 59 9.5 99zM550 889.999v-20l-90 -100l-20 -10h-180l-20 10
l-90 100v20l10 10h110l20 -10l50 -40h20l50 40l20 10h110z" />
    <glyph glyph-name="dcaron" unicode="&#x10f;" horiz-adv-x="710" 
d="M20 250c0 40 5.33301 76 16 108s25.667 59.333 45 82s42.5 40 69.5 52s56.833 18 89.5 18c25.333 0 49.166 -4.5 71.499 -13.5s38.5 -21.167 48.5 -36.5h10v230l10 10h150l10 -10v-680l-10 -10h-140l-10 10l-10 30h-10c-10 -15.333 -26.167 -27.5 -48.5 -36.5
s-46.166 -13.5 -71.499 -13.5c-32.667 0 -62.5 6 -89.5 18s-50.167 29.333 -69.5 52s-34.333 50 -45 82s-16 68 -16 108zM190 250c0 -22.667 2.33203 -41.665 6.99902 -56.998s11 -27.666 19 -36.999s17.5 -16 28.5 -20s22.833 -6 35.5 -6s24.5 2 35.5 6
s20.5 10.667 28.5 20s14.333 21.666 19 36.999s7 34.333 7 57s-2.33301 41.667 -7 57s-11 27.666 -19 36.999s-17.5 16 -28.5 20s-22.833 6 -35.5 6c-25.333 0 -46.666 -8.83301 -63.999 -26.5s-26 -48.834 -26 -93.501zM699.999 550.002l-50 -80l-10 -10h-60v10l50 90v10
l-10 10h-20l-10 10v100l10 10h100l10 -10v-110z" />
    <glyph glyph-name="Dcroat" unicode="&#x110;" horiz-adv-x="730" 
d="M700 350c0 -55.333 -6.5 -104.667 -19.5 -148s-33.5 -80 -61.5 -110s-64.167 -52.833 -108.5 -68.5s-97.833 -23.5 -160.5 -23.5h-250l-10 10v260l-10 10h-70l-10 10v130l10 10h70l10 10v250l10 10h250c62.667 0 116.167 -8 160.5 -24s80.5 -39 108.5 -69
s48.5 -66.667 61.5 -110s19.5 -92.333 19.5 -147zM400 279.999h-120l-10 -10v-110l10 -10h80c27.333 0 51.166 2.83301 71.499 8.5s37 16 50 31s22.667 35.5 29 61.5s9.5 59 9.5 99s-3.16699 72.833 -9.5 98.5s-16 46 -29 61s-29.667 25.5 -50 31.5s-44.166 9 -71.499 9h-80
l-10 -10v-100l10 -10h120l10 -10v-130z" />
    <glyph glyph-name="dcroat" unicode="&#x111;" horiz-adv-x="590" 
d="M360 40c-15.333 -20 -34.166 -33.333 -56.499 -40s-43.5 -10 -63.5 -10c-32.667 0 -62.5 6 -89.5 18s-50.167 28.5 -69.5 49.5s-34.333 46.167 -45 75.5s-16 61.666 -16 96.999c0 34.667 5.33301 66.834 16 96.501s25.667 55 45 76s42.5 37.5 69.5 49.5
s56.833 18 89.5 18c20 0 41.167 -3.33301 63.5 -10s41.166 -20 56.499 -40h10v80l-10 10h-100l-10 10v110l10 10h100l10 10v40l10 10h150l10 -10v-40l10 -10h40l10 -10v-110l-10 -10h-40l-10 -10v-490l-10 -10h-140l-10 10l-10 30h-10zM190 230
c0 -35.333 8.66699 -60.833 26 -76.5s38.666 -23.5 63.999 -23.5s46.666 7.83301 63.999 23.5s26 41.167 26 76.5s-8.66699 60.833 -26 76.5s-38.666 23.5 -63.999 23.5s-46.666 -7.83301 -63.999 -23.5s-26 -41.167 -26 -76.5z" />
    <glyph glyph-name="Emacron" unicode="&#x112;" horiz-adv-x="650" 
d="M590 0h-510l-10 10v680l10 10h510l10 -10v-130l-10 -10h-330l-10 -10v-100l10 -10h310l10 -10v-130l-10 -10h-310l-10 -10v-110l10 -10h330l10 -10v-130zM520 760h-370l-10 10v110l10 10h370l10 -10v-110z" />
    <glyph glyph-name="emacron" unicode="&#x113;" horiz-adv-x="540" 
d="M520 210l-10.002 -10.001h-300l-10 -10c0 -5.33301 0.833008 -11.833 2.5 -19.5s5.33398 -15.334 11.001 -23.001s13.834 -14.167 24.501 -19.5s24.667 -8 42 -8c30 0 50 10 60 30l10 10h150l10 -10c-2.66699 -15.333 -8.66699 -32.166 -18 -50.499
s-23 -35.666 -41 -51.999s-41 -30 -69 -41s-62 -16.5 -102 -16.5c-45.333 0 -84.333 6.5 -117 19.5s-59.5 31 -80.5 54s-36.667 50.5 -47 82.5s-15.5 66.667 -15.5 104s5 72 15 104s25.333 59.5 46 82.5s46.667 41 78 54s68.333 19.5 111 19.5s79.667 -6.5 111 -19.5
s57.333 -31 78 -54s36 -50.5 46 -82.5s15 -66.667 15 -104v-40zM339.998 319.999c0 2.66699 -0.833008 7.16699 -2.5 13.5s-5 13 -10 20s-12.167 13.167 -21.5 18.5s-21.333 8 -36 8c-15.333 0 -27.5 -2.66699 -36.5 -8s-16 -11.5 -21 -18.5s-8.33301 -13.667 -10 -20
s-2.5 -10.833 -2.5 -13.5l10 -10h120zM453.998 559.999h-370l-10 10v110l10 10h370l10 -10v-110z" />
    <glyph glyph-name="Ebreve" unicode="&#x114;" horiz-adv-x="650" 
d="M590 0h-510l-10 10v680l10 10h510l10 -10v-130l-10 -10h-330l-10 -10v-100l10 -10h310l10 -10v-130l-10 -10h-310l-10 -10v-110l10 -10h330l10 -10v-130zM255 890c0 -15.333 5.83496 -27.5 17.502 -36.5s32.5 -13.5 62.5 -13.5s50.833 4.5 62.5 13.5
s17.5 21.167 17.5 36.5l10 10h80l10 -10c0 -20 -3.33301 -39 -10 -57s-17.167 -34 -31.5 -48s-32.833 -25 -55.5 -33s-50.334 -12 -83.001 -12s-60.334 4 -83.001 12s-41.167 19 -55.5 33s-24.833 30 -31.5 48s-10 37 -10 57l10 10h80z" />
    <glyph glyph-name="ebreve" unicode="&#x115;" horiz-adv-x="540" 
d="M520 210l-10.002 -10.001h-300l-10 -10c0 -5.33301 0.833008 -11.833 2.5 -19.5s5.33398 -15.334 11.001 -23.001s13.834 -14.167 24.501 -19.5s24.667 -8 42 -8c30 0 50 10 60 30l10 10h150l10 -10c-2.66699 -15.333 -8.66699 -32.166 -18 -50.499
s-23 -35.666 -41 -51.999s-41 -30 -69 -41s-62 -16.5 -102 -16.5c-45.333 0 -84.333 6.5 -117 19.5s-59.5 31 -80.5 54s-36.667 50.5 -47 82.5s-15.5 66.667 -15.5 104s5 72 15 104s25.333 59.5 46 82.5s46.667 41 78 54s68.333 19.5 111 19.5s79.667 -6.5 111 -19.5
s57.333 -31 78 -54s36 -50.5 46 -82.5s15 -66.667 15 -104v-40zM339.998 319.999c0 2.66699 -0.833008 7.16699 -2.5 13.5s-5 13 -10 20s-12.167 13.167 -21.5 18.5s-21.333 8 -36 8c-15.333 0 -27.5 -2.66699 -36.5 -8s-16 -11.5 -21 -18.5s-8.33301 -13.667 -10 -20
s-2.5 -10.833 -2.5 -13.5l10 -10h120zM189.998 689.999c0 -15.333 5.83496 -27.5 17.502 -36.5s32.5 -13.5 62.5 -13.5s50.833 4.5 62.5 13.5s17.5 21.167 17.5 36.5l10 10h80l10 -10c0 -20 -3.33301 -39 -10 -57s-17.167 -34 -31.5 -48s-32.833 -25 -55.5 -33
s-50.334 -12 -83.001 -12s-60.334 4 -83.001 12s-41.167 19 -55.5 33s-24.833 30 -31.5 48s-10 37 -10 57l10 10h80z" />
    <glyph glyph-name="Edotaccent" unicode="&#x116;" horiz-adv-x="650" 
d="M590 0h-510l-10 10v680l10 10h510l10 -10v-130l-10 -10h-330l-10 -10v-100l10 -10h310l10 -10v-130l-10 -10h-310l-10 -10v-110l10 -10h330l10 -10v-130zM415 760h-150l-10 10v120l10 10h150l10 -10v-120z" />
    <glyph glyph-name="edotaccent" unicode="&#x117;" horiz-adv-x="540" 
d="M520 210l-10.002 -10.001h-300l-10 -10c0 -5.33301 0.833008 -11.833 2.5 -19.5s5.33398 -15.334 11.001 -23.001s13.834 -14.167 24.501 -19.5s24.667 -8 42 -8c30 0 50 10 60 30l10 10h150l10 -10c-2.66699 -15.333 -8.66699 -32.166 -18 -50.499
s-23 -35.666 -41 -51.999s-41 -30 -69 -41s-62 -16.5 -102 -16.5c-45.333 0 -84.333 6.5 -117 19.5s-59.5 31 -80.5 54s-36.667 50.5 -47 82.5s-15.5 66.667 -15.5 104s5 72 15 104s25.333 59.5 46 82.5s46.667 41 78 54s68.333 19.5 111 19.5s79.667 -6.5 111 -19.5
s57.333 -31 78 -54s36 -50.5 46 -82.5s15 -66.667 15 -104v-40zM339.998 319.999c0 2.66699 -0.833008 7.16699 -2.5 13.5s-5 13 -10 20s-12.167 13.167 -21.5 18.5s-21.333 8 -36 8c-15.333 0 -27.5 -2.66699 -36.5 -8s-16 -11.5 -21 -18.5s-8.33301 -13.667 -10 -20
s-2.5 -10.833 -2.5 -13.5l10 -10h120zM343.998 559.999h-150l-10 10v120l10 10h150l10 -10v-120z" />
    <glyph glyph-name="Eogonek" unicode="&#x118;" horiz-adv-x="650" 
d="M80 0l-10 10.001v680l10 10h510l10 -10v-130l-10 -10h-330l-10 -10v-100l10 -10h310l10 -10v-130l-10 -10h-310l-10 -10v-110l10 -10h330l10 -10v-130l-10 -10c-30 -5.33301 -54.167 -12.833 -72.5 -22.5s-27.5 -22.167 -27.5 -37.5s4.5 -25.833 13.5 -31.5
s21.167 -8.5 36.5 -8.5c14 0 26 1.66699 36 5c5.33301 1.33301 10 3 14 5l10 -10v-80l-10 -10c-8.66699 -4 -18 -7.33301 -28 -10c-9.33301 -2.66699 -19.833 -5 -31.5 -7s-25.167 -3 -40.5 -3c-21.333 0 -40.666 2.83301 -57.999 8.5s-32 13.5 -44 23.5
s-21.333 21.667 -28 35s-10 27.666 -10 42.999c0 25.333 6.16699 45.333 18.5 60s26.166 24.667 41.499 30v10h-330z" />
    <glyph glyph-name="eogonek" unicode="&#x119;" horiz-adv-x="540" 
d="M510 150c-5.33301 -25.333 -13.3369 -46.332 -24.0039 -62.999s-22.667 -30.834 -36 -42.501s-27.166 -21.5 -41.499 -29.5s-27.166 -15.667 -38.499 -23s-20.833 -15 -28.5 -23s-11.5 -17.667 -11.5 -29c0 -15.333 4.5 -25.833 13.5 -31.5s21.167 -8.5 36.5 -8.5
c14 0 26 1.66699 36 5c5.33301 1.33301 10 3 14 5l10 -10v-80l-10 -10c-8.66699 -4 -18 -7.33301 -28 -10c-9.33301 -2.66699 -19.833 -5 -31.5 -7s-25.167 -3 -40.5 -3c-40 0 -73.333 9.5 -100 28.5s-40 46.167 -40 81.5c0 12.667 3.33301 26.667 10 42s20 28 40 38v10
c-40 4.66699 -74 14.834 -102 30.501s-50.667 35 -68 58s-30 49.167 -38 78.5s-12 60.333 -12 93c0 37.333 5 72 15 104s25.333 59.5 46 82.5s46.667 41 78 54s68.333 19.5 111 19.5s79.667 -6.5 111 -19.5s57.333 -31 78 -54s36 -50.5 46 -82.5s15 -66.667 15 -104v-40
l-10 -10h-300l-10 -10c0 -5.33301 0.833008 -11.833 2.5 -19.5s5.33398 -15.334 11.001 -23.001s13.834 -14.167 24.501 -19.5s24.667 -8 42 -8c30 0 50 10 60 30l10 10h150zM339.996 320.001c0 2.66699 -0.833008 7.16699 -2.5 13.5s-5 13 -10 20
s-12.167 13.167 -21.5 18.5s-21.333 8 -36 8c-15.333 0 -27.5 -2.66699 -36.5 -8s-16 -11.5 -21 -18.5s-8.33301 -13.667 -10 -20s-2.5 -10.833 -2.5 -13.5l10 -10h120z" />
    <glyph glyph-name="Ecaron" unicode="&#x11a;" horiz-adv-x="650" 
d="M590 0h-510l-10 10v680l10 10h510l10 -10v-130l-10 -10h-330l-10 -10v-100l10 -10h310l10 -10v-130l-10 -10h-310l-10 -10v-110l10 -10h330l10 -10v-130zM540 890v-20l-90 -100l-20 -10h-180l-20 10l-90 100v20l10 10h110l20 -10l50 -40h20l50 40l20 10h110z" />
    <glyph glyph-name="ecaron" unicode="&#x11b;" horiz-adv-x="540" 
d="M520 210l-10.002 -10.001h-300l-10 -10c0 -5.33301 0.833008 -11.833 2.5 -19.5s5.33398 -15.334 11.001 -23.001s13.834 -14.167 24.501 -19.5s24.667 -8 42 -8c30 0 50 10 60 30l10 10h150l10 -10c-2.66699 -15.333 -8.66699 -32.166 -18 -50.499
s-23 -35.666 -41 -51.999s-41 -30 -69 -41s-62 -16.5 -102 -16.5c-45.333 0 -84.333 6.5 -117 19.5s-59.5 31 -80.5 54s-36.667 50.5 -47 82.5s-15.5 66.667 -15.5 104s5 72 15 104s25.333 59.5 46 82.5s46.667 41 78 54s68.333 19.5 111 19.5s79.667 -6.5 111 -19.5
s57.333 -31 78 -54s36 -50.5 46 -82.5s15 -66.667 15 -104v-40zM339.998 319.999c0 2.66699 -0.833008 7.16699 -2.5 13.5s-5 13 -10 20s-12.167 13.167 -21.5 18.5s-21.333 8 -36 8c-15.333 0 -27.5 -2.66699 -36.5 -8s-16 -11.5 -21 -18.5s-8.33301 -13.667 -10 -20
s-2.5 -10.833 -2.5 -13.5l10 -10h120zM469.998 689.999v-20l-90 -100l-20 -10h-180l-20 10l-90 100v20l10 10h110l20 -10l50 -40h20l50 40l20 10h110z" />
    <glyph glyph-name="Gcircumflex" unicode="&#x11c;" horiz-adv-x="760" 
d="M390 560c-27.333 0 -52.1641 -3.50391 -74.4971 -10.5039s-41.333 -18.5 -57 -34.5s-27.667 -37.5 -36 -64.5s-12.5 -60.5 -12.5 -100.5c0 -42.667 4.66699 -77.5 14 -104.5s22.166 -48.333 38.499 -64s35.333 -26.5 57 -32.5s45.167 -9 70.5 -9
c24.667 0 46 3.33301 64 10s32.5 15.334 43.5 26.001s19.167 22.5 24.5 35.5s8 25.833 8 38.5l-10 10h-160l-10 10v120l10 10h340l10 -10v-380l-10 -10h-130l-10 10l-10 40h-10c-5.33301 -5.33301 -12.333 -11.333 -21 -18s-20 -13.167 -34 -19.5
s-30.5 -11.666 -49.5 -15.999s-40.833 -6.5 -65.5 -6.5c-50 0 -95.833 8 -137.5 24s-77.5 39.333 -107.5 70s-53.333 68.334 -70 113.001s-25 95.667 -25 153s8.5 108.333 25.5 153s41 82.334 72 113.001s68.667 54 113 70s94.166 24 149.499 24
c44.667 0 85.167 -5.33301 121.5 -16s68 -25.667 95 -45s49.167 -42.5 66.5 -69.5s29.666 -56.833 36.999 -89.5l-10 -10h-167l-13 10c-10 20 -24.167 36.667 -42.5 50s-47.5 20 -87.5 20zM580.002 759.996h-110l-20 10l-50 40h-20l-50 -40l-20 -10h-110l-10 10v20l90 100
l20 10h180l20 -10l90 -100v-20z" />
    <glyph glyph-name="gcircumflex" unicode="&#x11d;" horiz-adv-x="585" 
d="M20 260c0 37.333 5.33301 71.333 16 102s25.667 57 45 79s42.5 39 69.5 51s56.833 18 89.5 18c25.333 0 49.166 -4.5 71.499 -13.5s38.5 -21.167 48.5 -36.5h10l10 30l10 10h140l10 -10v-440c0 -80 -20.833 -143.333 -62.5 -190s-107.5 -70 -197.5 -70
c-42.667 0 -78.667 5.16699 -108 15.5s-53 23.5 -71 39.5s-31 34.167 -39 54.5s-12 40.5 -12 60.5l10 10h140l10 -10c5.33301 -15.333 14.5 -25.833 27.5 -31.5s27.167 -8.5 42.5 -8.5c30 0 52.5 9.16699 67.5 27.5s22.5 52.5 22.5 102.5v10h-10
c-10 -15.333 -26.167 -27.5 -48.5 -36.5s-46.166 -13.5 -71.499 -13.5c-32.667 0 -62.5 6 -89.5 18s-50.167 29 -69.5 51s-34.333 48.333 -45 79s-16 64.667 -16 102zM190 260c0 -40 8.66699 -68.333 26 -85s38.666 -25 63.999 -25s46.666 8.33301 63.999 25s26 45 26 85
s-8.66699 68.333 -26 85s-38.666 25 -63.999 25s-46.666 -8.33301 -63.999 -25s-26 -45 -26 -85zM480 560h-110l-20 10l-50 40h-20l-50 -40l-20 -10h-110l-10 10v20l90 100l20 10h180l20 -10l90 -100v-20z" />
    <glyph glyph-name="Gbreve" unicode="&#x11e;" horiz-adv-x="760" 
d="M390 560c-27.333 0 -52.1641 -3.50391 -74.4971 -10.5039s-41.333 -18.5 -57 -34.5s-27.667 -37.5 -36 -64.5s-12.5 -60.5 -12.5 -100.5c0 -42.667 4.66699 -77.5 14 -104.5s22.166 -48.333 38.499 -64s35.333 -26.5 57 -32.5s45.167 -9 70.5 -9
c24.667 0 46 3.33301 64 10s32.5 15.334 43.5 26.001s19.167 22.5 24.5 35.5s8 25.833 8 38.5l-10 10h-160l-10 10v120l10 10h340l10 -10v-380l-10 -10h-130l-10 10l-10 40h-10c-5.33301 -5.33301 -12.333 -11.333 -21 -18s-20 -13.167 -34 -19.5
s-30.5 -11.666 -49.5 -15.999s-40.833 -6.5 -65.5 -6.5c-50 0 -95.833 8 -137.5 24s-77.5 39.333 -107.5 70s-53.333 68.334 -70 113.001s-25 95.667 -25 153s8.5 108.333 25.5 153s41 82.334 72 113.001s68.667 54 113 70s94.166 24 149.499 24
c44.667 0 85.167 -5.33301 121.5 -16s68 -25.667 95 -45s49.167 -42.5 66.5 -69.5s29.666 -56.833 36.999 -89.5l-10 -10h-167l-13 10c-10 20 -24.167 36.667 -42.5 50s-47.5 20 -87.5 20zM310.002 889.996c0 -15.333 5.83496 -27.5 17.502 -36.5s32.5 -13.5 62.5 -13.5
s50.833 4.5 62.5 13.5s17.5 21.167 17.5 36.5l10 10h80l10 -10c0 -20 -3.33301 -39 -10 -57s-17.167 -34 -31.5 -48s-32.833 -25 -55.5 -33s-50.334 -12 -83.001 -12s-60.334 4 -83.001 12s-41.167 19 -55.5 33s-24.833 30 -31.5 48s-10 37 -10 57l10 10h80z" />
    <glyph glyph-name="gbreve" unicode="&#x11f;" horiz-adv-x="585" 
d="M20 260c0 37.333 5.33301 71.333 16 102s25.667 57 45 79s42.5 39 69.5 51s56.833 18 89.5 18c25.333 0 49.166 -4.5 71.499 -13.5s38.5 -21.167 48.5 -36.5h10l10 30l10 10h140l10 -10v-440c0 -80 -20.833 -143.333 -62.5 -190s-107.5 -70 -197.5 -70
c-42.667 0 -78.667 5.16699 -108 15.5s-53 23.5 -71 39.5s-31 34.167 -39 54.5s-12 40.5 -12 60.5l10 10h140l10 -10c5.33301 -15.333 14.5 -25.833 27.5 -31.5s27.167 -8.5 42.5 -8.5c30 0 52.5 9.16699 67.5 27.5s22.5 52.5 22.5 102.5v10h-10
c-10 -15.333 -26.167 -27.5 -48.5 -36.5s-46.166 -13.5 -71.499 -13.5c-32.667 0 -62.5 6 -89.5 18s-50.167 29 -69.5 51s-34.333 48.333 -45 79s-16 64.667 -16 102zM190 260c0 -40 8.66699 -68.333 26 -85s38.666 -25 63.999 -25s46.666 8.33301 63.999 25s26 45 26 85
s-8.66699 68.333 -26 85s-38.666 25 -63.999 25s-46.666 -8.33301 -63.999 -25s-26 -45 -26 -85zM210 690c0 -15.333 5.83496 -27.5 17.502 -36.5s32.5 -13.5 62.5 -13.5s50.833 4.5 62.5 13.5s17.5 21.167 17.5 36.5l10 10h80l10 -10c0 -20 -3.33301 -39 -10 -57
s-17.167 -34 -31.5 -48s-32.833 -25 -55.5 -33s-50.334 -12 -83.001 -12s-60.334 4 -83.001 12s-41.167 19 -55.5 33s-24.833 30 -31.5 48s-10 37 -10 57l10 10h80z" />
    <glyph glyph-name="Gdotaccent" unicode="&#x120;" horiz-adv-x="760" 
d="M390 560c-27.333 0 -52.1641 -3.50391 -74.4971 -10.5039s-41.333 -18.5 -57 -34.5s-27.667 -37.5 -36 -64.5s-12.5 -60.5 -12.5 -100.5c0 -42.667 4.66699 -77.5 14 -104.5s22.166 -48.333 38.499 -64s35.333 -26.5 57 -32.5s45.167 -9 70.5 -9
c24.667 0 46 3.33301 64 10s32.5 15.334 43.5 26.001s19.167 22.5 24.5 35.5s8 25.833 8 38.5l-10 10h-160l-10 10v120l10 10h340l10 -10v-380l-10 -10h-130l-10 10l-10 40h-10c-5.33301 -5.33301 -12.333 -11.333 -21 -18s-20 -13.167 -34 -19.5
s-30.5 -11.666 -49.5 -15.999s-40.833 -6.5 -65.5 -6.5c-50 0 -95.833 8 -137.5 24s-77.5 39.333 -107.5 70s-53.333 68.334 -70 113.001s-25 95.667 -25 153s8.5 108.333 25.5 153s41 82.334 72 113.001s68.667 54 113 70s94.166 24 149.499 24
c44.667 0 85.167 -5.33301 121.5 -16s68 -25.667 95 -45s49.167 -42.5 66.5 -69.5s29.666 -56.833 36.999 -89.5l-10 -10h-167l-13 10c-10 20 -24.167 36.667 -42.5 50s-47.5 20 -87.5 20zM465.002 759.996h-150l-10 10v120l10 10h150l10 -10v-120z" />
    <glyph glyph-name="gdotaccent" unicode="&#x121;" horiz-adv-x="585" 
d="M20 260c0 37.333 5.33301 71.333 16 102s25.667 57 45 79s42.5 39 69.5 51s56.833 18 89.5 18c25.333 0 49.166 -4.5 71.499 -13.5s38.5 -21.167 48.5 -36.5h10l10 30l10 10h140l10 -10v-440c0 -80 -20.833 -143.333 -62.5 -190s-107.5 -70 -197.5 -70
c-42.667 0 -78.667 5.16699 -108 15.5s-53 23.5 -71 39.5s-31 34.167 -39 54.5s-12 40.5 -12 60.5l10 10h140l10 -10c5.33301 -15.333 14.5 -25.833 27.5 -31.5s27.167 -8.5 42.5 -8.5c30 0 52.5 9.16699 67.5 27.5s22.5 52.5 22.5 102.5v10h-10
c-10 -15.333 -26.167 -27.5 -48.5 -36.5s-46.166 -13.5 -71.499 -13.5c-32.667 0 -62.5 6 -89.5 18s-50.167 29 -69.5 51s-34.333 48.333 -45 79s-16 64.667 -16 102zM190 260c0 -40 8.66699 -68.333 26 -85s38.666 -25 63.999 -25s46.666 8.33301 63.999 25s26 45 26 85
s-8.66699 68.333 -26 85s-38.666 25 -63.999 25s-46.666 -8.33301 -63.999 -25s-26 -45 -26 -85zM366 560h-150l-10 10v120l10 10h150l10 -10v-120z" />
    <glyph glyph-name="Gcommaaccent" unicode="&#x122;" horiz-adv-x="760" 
d="M390 560c-27.333 0 -52.1641 -3.50391 -74.4971 -10.5039s-41.333 -18.5 -57 -34.5s-27.667 -37.5 -36 -64.5s-12.5 -60.5 -12.5 -100.5c0 -42.667 4.66699 -77.5 14 -104.5s22.166 -48.333 38.499 -64s35.333 -26.5 57 -32.5s45.167 -9 70.5 -9
c24.667 0 46 3.33301 64 10s32.5 15.334 43.5 26.001s19.167 22.5 24.5 35.5s8 25.833 8 38.5l-10 10h-160l-10 10v120l10 10h340l10 -10v-380l-10 -10h-130l-10 10l-10 40h-10c-5.33301 -5.33301 -12.333 -11.333 -21 -18s-20 -13.167 -34 -19.5
s-30.5 -11.666 -49.5 -15.999s-40.833 -6.5 -65.5 -6.5c-50 0 -95.833 8 -137.5 24s-77.5 39.333 -107.5 70s-53.333 68.334 -70 113.001s-25 95.667 -25 153s8.5 108.333 25.5 153s41 82.334 72 113.001s68.667 54 113 70s94.166 24 149.499 24
c44.667 0 85.167 -5.33301 121.5 -16s68 -25.667 95 -45s49.167 -42.5 66.5 -69.5s29.666 -56.833 36.999 -89.5l-10 -10h-167l-13 10c-10 20 -24.167 36.667 -42.5 50s-47.5 20 -87.5 20zM440.002 -160.004l-60 -50l-20 -10h-60v10l40 50v10l-10 10h-30l-10 10v80l10 10
h140l10 -10v-90z" />
    <glyph glyph-name="gcommaaccent" unicode="&#x123;" horiz-adv-x="585" 
d="M20 260c0 37.333 5.33301 71.333 16 102s25.667 57 45 79s42.5 39 69.5 51s56.833 18 89.5 18c25.333 0 49.166 -4.5 71.499 -13.5s38.5 -21.167 48.5 -36.5h10l10 30l10 10h140l10 -10v-440c0 -80 -20.833 -143.333 -62.5 -190s-107.5 -70 -197.5 -70
c-42.667 0 -78.667 5.16699 -108 15.5s-53 23.5 -71 39.5s-31 34.167 -39 54.5s-12 40.5 -12 60.5l10 10h140l10 -10c5.33301 -15.333 14.5 -25.833 27.5 -31.5s27.167 -8.5 42.5 -8.5c30 0 52.5 9.16699 67.5 27.5s22.5 52.5 22.5 102.5v10h-10
c-10 -15.333 -26.167 -27.5 -48.5 -36.5s-46.166 -13.5 -71.499 -13.5c-32.667 0 -62.5 6 -89.5 18s-50.167 29 -69.5 51s-34.333 48.333 -45 79s-16 64.667 -16 102zM190 260c0 -40 8.66699 -68.333 26 -85s38.666 -25 63.999 -25s46.666 8.33301 63.999 25s26 45 26 85
s-8.66699 68.333 -26 85s-38.666 25 -63.999 25s-46.666 -8.33301 -63.999 -25s-26 -45 -26 -85zM220 680l60 50l20 10h60v-10l-40 -50v-10l10 -10h30l10 -10v-80l-10 -10h-140l-10 10v90z" />
    <glyph glyph-name="Hcircumflex" unicode="&#x124;" horiz-adv-x="750" 
d="M670 0h-160l-10 10v260l-10 10h-230l-10 -10v-260l-10 -10h-160l-10 10v680l10 10h160l10 -10v-250l10 -10h230l10 10v250l10 10h160l10 -10v-680zM565 760h-110l-20 10l-50 40h-20l-50 -40l-20 -10h-110l-10 10v20l90 100l20 10h180l20 -10l90 -100v-20z" />
    <glyph glyph-name="hcircumflex" unicode="&#x125;" horiz-adv-x="615" 
d="M565 0h-150.002l-10 10v250c0 35.333 -6.16699 62.5 -18.5 81.5s-36.166 28.5 -71.499 28.5c-12.667 0 -25 -2 -37 -6s-22.667 -10.667 -32 -20s-16.833 -21.666 -22.5 -36.999s-8.5 -34.333 -8.5 -57v-240l-10 -10h-150l-10 10v680l10 10h150l10 -10v-230h10
c10 10 27 20.833 51 32.5s53.667 17.5 89 17.5c34.667 0 65.167 -6 91.5 -18s48.333 -28.5 66 -49.5s30.834 -46.333 39.501 -76s13 -61.834 13 -96.501v-260zM320.998 760h-110l-20 10l-50 40h-20l-50 -40l-20 -10h-110l-10 10v20l90 100l20 10h180l20 -10l90 -100v-20z
" />
    <glyph glyph-name="Hbar" unicode="&#x126;" horiz-adv-x="770" 
d="M680 0h-160l-10 10v250l-10 10h-230l-10 -10v-250l-10 -10h-160l-10 10v470l-10 10h-50l-10 10v120l10 10h50l10 10v50l10 10h160l10 -10v-50l10 -10h230l10 10v50l10 10h160l10 -10v-50l10 -10h50l10 -10v-120l-10 -10h-50l-10 -10v-470zM260 430l10 -10h230l10 10v50
l-10 10h-230l-10 -10v-50z" />
    <glyph glyph-name="hbar" unicode="&#x127;" horiz-adv-x="620" 
d="M220 410h9.99805c10 10 27 20.833 51 32.5s53.667 17.5 89 17.5c34.667 0 65.167 -6 91.5 -18s48.333 -28.5 66 -49.5s30.834 -46.333 39.501 -76s13 -61.834 13 -96.501v-210l-10 -10h-150l-10 10v200c0 35.333 -6.16699 62.5 -18.5 81.5s-36.166 28.5 -71.499 28.5
c-12.667 0 -25 -2 -37 -6s-22.667 -10.667 -32 -20s-16.833 -21.666 -22.5 -36.999s-8.5 -34.333 -8.5 -57v-190l-10 -10h-150l-10 10v480l-10 10h-50l-10 10v110l10 10h50l10 10v50l10 10h150l10 -10v-50l10 -10h140l10 -10v-110l-10 -10h-140l-10 -10v-80z" />
    <glyph glyph-name="Itilde" unicode="&#x128;" horiz-adv-x="320" 
d="M240 0h-160l-10 10v680l10 10h160l10 -10v-680zM236 730c-20 0 -37.667 3.66699 -53 11s-29 15.333 -41 24s-22.5 16.667 -31.5 24s-17.167 11 -24.5 11c-10 0 -17.5 -2.83301 -22.5 -8.5s-7.5 -16.167 -7.5 -31.5l-10 -10h-70l-10 10c0 40 10 73.333 30 100s50 40 90 40
c20 0 37.667 -3.66699 53 -11s29 -15.333 41 -24s22.5 -16.667 31.5 -24s17.167 -11 24.5 -11c10 0 17.5 2.83301 22.5 8.5s7.5 16.167 7.5 31.5l10 10h70l10 -10c0 -40 -10 -73.333 -30 -100s-50 -40 -90 -40z" />
    <glyph glyph-name="itilde" unicode="&#x129;" horiz-adv-x="260" 
d="M205 0h-150l-10 10v480l10 10h150l10 -10v-480zM206 540c-20 0 -37.667 3.66699 -53 11s-29 15.333 -41 24s-22.5 16.667 -31.5 24s-17.167 11 -24.5 11c-10 0 -17.5 -2.83301 -22.5 -8.5s-7.5 -16.167 -7.5 -31.5l-10 -10h-70l-10 10c0 40 10 73.333 30 100s50 40 90 40
c20 0 37.667 -3.66699 53 -11s29 -15.333 41 -24s22.5 -16.667 31.5 -24s17.167 -11 24.5 -11c10 0 17.5 2.83301 22.5 8.5s7.5 16.167 7.5 31.5l10 10h70l10 -10c0 -40 -10 -73.333 -30 -100s-50 -40 -90 -40z" />
    <glyph glyph-name="Imacron" unicode="&#x12a;" horiz-adv-x="320" 
d="M240 0h-160l-10 10v680l10 10h160l10 -10v-680zM345 760h-370l-10 10v110l10 10h370l10 -10v-110z" />
    <glyph glyph-name="imacron" unicode="&#x12b;" horiz-adv-x="260" 
d="M205 0h-150l-10 10v480l10 10h150l10 -10v-480zM316 560h-370l-10 10v110l10 10h370l10 -10v-110z" />
    <glyph glyph-name="Ibreve" unicode="&#x12c;" horiz-adv-x="320" 
d="M240 0h-160l-10 10v680l10 10h160l10 -10v-680zM81 890c0 -15.333 5.83496 -27.5 17.502 -36.5s32.5 -13.5 62.5 -13.5s50.833 4.5 62.5 13.5s17.5 21.167 17.5 36.5l10 10h80l10 -10c0 -20 -3.33301 -39 -10 -57s-17.167 -34 -31.5 -48s-32.833 -25 -55.5 -33
s-50.334 -12 -83.001 -12s-60.334 4 -83.001 12s-41.167 19 -55.5 33s-24.833 30 -31.5 48s-10 37 -10 57l10 10h80z" />
    <glyph glyph-name="ibreve" unicode="&#x12d;" horiz-adv-x="260" 
d="M205 0h-150l-10 10v480l10 10h150l10 -10v-480zM51 690c0 -15.333 5.83496 -27.5 17.502 -36.5s32.5 -13.5 62.5 -13.5s50.833 4.5 62.5 13.5s17.5 21.167 17.5 36.5l10 10h80l10 -10c0 -20 -3.33301 -39 -10 -57s-17.167 -34 -31.5 -48s-32.833 -25 -55.5 -33
s-50.334 -12 -83.001 -12s-60.334 4 -83.001 12s-41.167 19 -55.5 33s-24.833 30 -31.5 48s-10 37 -10 57l10 10h80z" />
    <glyph glyph-name="Iogonek" unicode="&#x12e;" horiz-adv-x="320" 
d="M240 0c-30 -5.33301 -54.167 -12.833 -72.5 -22.5s-27.5 -22.167 -27.5 -37.5s4.5 -25.833 13.5 -31.5s21.167 -8.5 36.5 -8.5c14 0 26 1.66699 36 5c5.33301 1.33301 10 3 14 5l10 -10v-80l-10 -10c-8.66699 -4 -18 -7.33301 -28 -10
c-9.33301 -2.66699 -19.833 -5 -31.5 -7s-25.167 -3 -40.5 -3c-40 0 -73.333 9.5 -100 28.5s-40 46.167 -40 81.5c0 25.333 6.66699 47.5 20 66.5s30 33.5 50 43.5v680l10 10h160l10 -10v-680z" />
    <glyph glyph-name="iogonek" unicode="&#x12f;" horiz-adv-x="265" 
d="M210 0c-30 -5.33301 -54.167 -12.833 -72.5 -22.5s-27.5 -22.167 -27.5 -37.5s4.5 -25.833 13.5 -31.5s21.167 -8.5 36.5 -8.5c14 0 26 1.66699 36 5c5.33301 1.33301 10 3 14 5l10 -10v-80l-10 -10c-8.66699 -4 -18 -7.33301 -28 -10
c-9.33301 -2.66699 -19.833 -5 -31.5 -7s-25.167 -3 -40.5 -3c-40 0 -73.333 9.5 -100 28.5s-40 46.167 -40 81.5c0 25.333 7 47.5 21 66.5s33.667 33.5 59 43.5v480l10 10h150l10 -10v-480zM210 560h-150l-10 10v120l10 10h150l10 -10v-120z" />
    <glyph glyph-name="Idotaccent" unicode="&#x130;" horiz-adv-x="320" 
d="M240 0h-160l-10 10v680l10 10h160l10 -10v-680zM236 760h-150l-10 10v120l10 10h150l10 -10v-120z" />
    <glyph glyph-name="dotlessi" unicode="&#x131;" horiz-adv-x="260" 
d="M205 0h-150l-10 10v480l10 10h150l10 -10v-480z" />
    <glyph glyph-name="IJ" unicode="&#x132;" horiz-adv-x="680" 
d="M320 0l-10 10.001v130l10 10h40c30 0 50.833 7.5 62.5 22.5s17.5 37.5 17.5 67.5v450l10 10h160l10 -10v-450c0 -37.333 -6 -70.833 -18 -100.5s-29.333 -54.834 -52 -75.501s-50 -36.5 -82 -47.5s-68 -16.5 -108 -16.5h-40zM240 0.000976562h-160l-10 10v680l10 10h160
l10 -10v-680z" />
    <glyph glyph-name="ij" unicode="&#x133;" horiz-adv-x="520" 
d="M205 0h-150l-10 10v480l10 10h150l10 -10v-480zM205 560h-150l-10 10v120l10 10h150l10 -10v-120zM475 -10c0 -60.667 -15.333 -107.5 -46 -140.5s-78.667 -49.5 -144 -49.5h-90l-10 10v120l10 10h60c20 0 33.333 3.33301 40 10s10 20 10 40v500l10 10h150l10 -10v-500z
M465 560h-150l-10 10v120l10 10h150l10 -10v-120z" />
    <glyph glyph-name="Jcircumflex" unicode="&#x134;" horiz-adv-x="590" 
d="M530 230c0 -37.333 -6 -70.832 -18 -100.499s-29.333 -54.834 -52 -75.501s-50 -36.5 -82 -47.5s-68 -16.5 -108 -16.5c-50 0 -91.667 7.33301 -125 22s-60 33.5 -80 56.5s-34.167 48.833 -42.5 77.5s-12.5 56.667 -12.5 84v20l10 10h160l10 -10v-20
c0 -30 5.83301 -52.5 17.5 -67.5s32.5 -22.5 62.5 -22.5s50.833 7.5 62.5 22.5s17.5 37.5 17.5 67.5v460l10 10h160l10 -10v-460zM630 760.001h-110l-20 10l-50 40h-20l-50 -40l-20 -10h-110l-10 10v20l90 100l20 10h180l20 -10l90 -100v-20z" />
    <glyph glyph-name="jcircumflex" unicode="&#x135;" horiz-adv-x="260" 
d="M315 560h-110l-20 10l-50 40h-10l-50 -40l-20 -10h-110l-10 10v20l90 100l20 10h170l20 -10l90 -100v-20zM215 -10c0 -60.667 -15.333 -107.5 -46 -140.5s-78.667 -49.5 -144 -49.5h-65l-10 10v120l10 10h35c20 0 33.333 3.33301 40 10s10 20 10 40v500l10 10h150l10 -10
v-500z" />
    <glyph glyph-name="Kcommaaccent" unicode="&#x136;" horiz-adv-x="660" 
d="M630 0h-80l-20 10l-220 220h-10l-50 -50v-170l-10 -10h-160l-10 10v680l10 10h160l10 -10v-270h10l270 270l20 10h70l10 -10v-130l-200 -200v-10l210 -210v-130zM420 -160l-60 -50l-20 -10h-60v10l40 50v10l-10 10h-30l-10 10v80l10 10h140l10 -10v-90z" />
    <glyph glyph-name="kcommaaccent" unicode="&#x137;" horiz-adv-x="550" 
d="M515 0h-90l-20 10l-110 130h-10l-60 -60l-10 -20v-50l-10 -10h-150l-10 10v680l10 10h150l10 -10v-390h10l190 190l20 10h70l10 -10v-120l-100 -100v-10l110 -130v-120zM355 -160l-60 -50l-20 -10h-60v10l40 50v10l-10 10h-30l-10 10v80l10 10h140l10 -10v-90z" />
    <glyph glyph-name="kgreenlandic" unicode="&#x138;" horiz-adv-x="550" 
d="M515 0h-90l-20 10l-110 130h-10l-60 -60l-10 -20v-50l-10 -10h-150l-10 10v480l10 10h150l10 -10v-190h10l190 190l20 10h70l10 -10v-120l-100 -100v-10l110 -130v-120z" />
    <glyph glyph-name="Lacute" unicode="&#x139;" 
d="M550 0h-470l-10 10v680l10 10h160l10 -10v-530l10 -10h290l10 -10v-130zM51 770v20l90 100l20 10h150l10 -10v-20l-110 -100l-20 -10h-130z" />
    <glyph glyph-name="lacute" unicode="&#x13a;" horiz-adv-x="260" 
d="M205 0h-150l-10 10v680l10 10h150l10 -10v-680zM26 770v20l90 100l20 10h150l10 -10v-20l-110 -100l-20 -10h-130z" />
    <glyph glyph-name="Lcommaaccent" unicode="&#x13b;" 
d="M550 0h-470l-10 10v680l10 10h160l10 -10v-530l10 -10h290l10 -10v-130zM380 -160l-60 -50l-20 -10h-60v10l40 50v10l-10 10h-30l-10 10v80l10 10h140l10 -10v-90z" />
    <glyph glyph-name="lcommaaccent" unicode="&#x13c;" horiz-adv-x="260" 
d="M205 0h-150l-10 10v680l10 10h150l10 -10v-680zM200 -160l-60 -50l-20 -10h-60v10l40 50v10l-10 10h-30l-10 10v80l10 10h140l10 -10v-90z" />
    <glyph glyph-name="Lcaron" unicode="&#x13d;" 
d="M550 0h-470l-10 10v680l10 10h160l10 -10v-530l10 -10h290l10 -10v-130zM420 550l-50 -80l-10 -10h-60v10l50 90v10l-10 10h-20l-10 10v100l10 10h100l10 -10v-110z" />
    <glyph glyph-name="lcaron" unicode="&#x13e;" horiz-adv-x="385" 
d="M205 0h-150l-10 10v680l10 10h150l10 -10v-680zM375 550l-50 -80l-10 -10h-60v10l50 90v10l-10 10h-20l-10 10v100l10 10h100l10 -10v-110z" />
    <glyph glyph-name="Ldot" unicode="&#x13f;" 
d="M550 0h-470l-10 10v680l10 10h160l10 -10v-530l10 -10h290l10 -10v-130zM520 326h-150l-10 10v120l10 10h150l10 -10v-120z" />
    <glyph glyph-name="ldot" unicode="&#x140;" horiz-adv-x="440" 
d="M205 0h-150l-10 10v680l10 10h150l10 -10v-680zM425 326h-150l-10 10v120l10 10h150l10 -10v-120z" />
    <glyph glyph-name="Lslash" unicode="&#x141;" horiz-adv-x="600" 
d="M270 160l10 -10h290l10 -10v-130l-10 -10h-470l-10 10v80h-10l-40 -30h-30l-10 10v150l80 60l10 20v390l10 10h160l10 -10v-260h10l120 90h30l10 -10v-150l-160 -120l-10 -20v-60z" />
    <glyph glyph-name="lslash" unicode="&#x142;" horiz-adv-x="350" 
d="M250 0h-150l-10 10v150h-10l-40 -30h-30l-10 10v150l80 60l10 20v320l10 10h150l10 -10v-190h10l40 30h30l10 -10v-150l-80 -60l-10 -20v-280z" />
    <glyph glyph-name="Nacute" unicode="&#x143;" horiz-adv-x="770" 
d="M80 700h170l20 -10l240 -380h10v380l10 10h160l10 -10v-680l-10 -10h-170l-20 10l-240 380h-10v-380l-10 -10h-160l-10 10v680zM270 770v20l90 100l20 10h150l10 -10v-20l-110 -100l-20 -10h-130z" />
    <glyph glyph-name="nacute" unicode="&#x144;" horiz-adv-x="615" 
d="M565 0h-150.002l-10 10v250c0 35.333 -6.16699 62.5 -18.5 81.5s-36.166 28.5 -71.499 28.5c-12.667 0 -25 -2 -37 -6s-22.667 -10.667 -32 -20s-16.833 -21.666 -22.5 -36.999s-8.5 -34.333 -8.5 -57v-240l-10 -10h-150l-10 10v480l10 10h140l10 -10l10 -30h10
c10 10 27 20.833 51 32.5s53.667 17.5 89 17.5c34.667 0 65.167 -6 91.5 -18s48.333 -28.5 66 -49.5s30.834 -46.333 39.501 -76s13 -61.834 13 -96.501v-260zM199.998 570v20l90 100l20 10h150l10 -10v-20l-110 -100l-20 -10h-130z" />
    <glyph glyph-name="Ncommaaccent" unicode="&#x145;" horiz-adv-x="770" 
d="M80 700h170l20 -10l240 -380h10v380l10 10h160l10 -10v-680l-10 -10h-170l-20 10l-240 380h-10v-380l-10 -10h-160l-10 10v680zM460 -160l-60 -50l-20 -10h-60v10l40 50v10l-10 10h-30l-10 10v80l10 10h140l10 -10v-90z" />
    <glyph glyph-name="ncommaaccent" unicode="&#x146;" horiz-adv-x="615" 
d="M565 0h-150.002l-10 10v250c0 35.333 -6.16699 62.5 -18.5 81.5s-36.166 28.5 -71.499 28.5c-12.667 0 -25 -2 -37 -6s-22.667 -10.667 -32 -20s-16.833 -21.666 -22.5 -36.999s-8.5 -34.333 -8.5 -57v-240l-10 -10h-150l-10 10v480l10 10h140l10 -10l10 -30h10
c10 10 27 20.833 51 32.5s53.667 17.5 89 17.5c34.667 0 65.167 -6 91.5 -18s48.333 -28.5 66 -49.5s30.834 -46.333 39.501 -76s13 -61.834 13 -96.501v-260zM378.998 -160l-60 -50l-20 -10h-60v10l40 50v10l-10 10h-30l-10 10v80l10 10h140l10 -10v-90z" />
    <glyph glyph-name="Ncaron" unicode="&#x147;" horiz-adv-x="770" 
d="M80 700h170l20 -10l240 -380h10v380l10 10h160l10 -10v-680l-10 -10h-170l-20 10l-240 380h-10v-380l-10 -10h-160l-10 10v680zM575 890v-20l-90 -100l-20 -10h-180l-20 10l-90 100v20l10 10h110l20 -10l50 -40h20l50 40l20 10h110z" />
    <glyph glyph-name="ncaron" unicode="&#x148;" horiz-adv-x="615" 
d="M565 0h-150.002l-10 10v250c0 35.333 -6.16699 62.5 -18.5 81.5s-36.166 28.5 -71.499 28.5c-12.667 0 -25 -2 -37 -6s-22.667 -10.667 -32 -20s-16.833 -21.666 -22.5 -36.999s-8.5 -34.333 -8.5 -57v-240l-10 -10h-150l-10 10v480l10 10h140l10 -10l10 -30h10
c10 10 27 20.833 51 32.5s53.667 17.5 89 17.5c34.667 0 65.167 -6 91.5 -18s48.333 -28.5 66 -49.5s30.834 -46.333 39.501 -76s13 -61.834 13 -96.501v-260zM504.998 690v-20l-90 -100l-20 -10h-180l-20 10l-90 100v20l10 10h110l20 -10l50 -40h20l50 40l20 10h110z" />
    <glyph glyph-name="napostrophe" unicode="&#x149;" horiz-adv-x="660" 
d="M610 0h-150.002l-10 10v250c0 35.333 -6.16699 62.5 -18.5 81.5s-36.166 28.5 -71.499 28.5c-12.667 0 -25 -2 -37 -6s-22.667 -10.667 -32 -20s-16.833 -21.666 -22.5 -36.999s-8.5 -34.333 -8.5 -57v-240l-10 -10h-150l-10 10v480l10 10h140l10 -10l10 -30h10
c10 10 27 20.833 51 32.5s53.667 17.5 89 17.5c34.667 0 65.167 -6 91.5 -18s48.333 -28.5 66 -49.5s30.834 -46.333 39.501 -76s13 -61.834 13 -96.501v-260zM119.998 590l-50 -80l-10 -10h-60v10l40 70v10l-10 10h-20l-10 10v80l10 10h110l10 -10v-70z" />
    <glyph glyph-name="Eng" unicode="&#x14a;" horiz-adv-x="770" 
d="M400 -220l-10 10v130l10 10h40c30 0 50.833 5.33301 62.5 16s17.5 28.667 17.5 54l-260 390h-10v-380l-10 -10h-160l-10 10v680l10 10h170l20 -10l240 -360h10v360l10 10h160l10 -10v-680c0 -75.333 -21.5 -132.5 -64.5 -171.5s-104.833 -58.5 -185.5 -58.5h-50z" />
    <glyph glyph-name="eng" unicode="&#x14b;" horiz-adv-x="615" 
d="M575 -30c0 -60.667 -15.334 -107.5 -46.001 -140.5s-78.667 -49.5 -144 -49.5h-65l-10 10v120l10 10h35c20 0 33.333 3.33301 40 10s10 20 10 40v290c0 35.333 -6.16699 62.5 -18.5 81.5s-36.166 28.5 -71.499 28.5c-12.667 0 -25 -2 -37 -6s-22.667 -10.667 -32 -20
s-16.833 -21.666 -22.5 -36.999s-8.5 -34.333 -8.5 -57v-240l-10 -10h-150l-10 10v480l10 10h140l10 -10l10 -30h10c10 10 27 20.833 51 32.5s53.667 17.5 89 17.5c34.667 0 64.667 -6 90 -18s46.5 -28.5 63.5 -49.5s30 -46.333 39 -76s14.833 -61.834 17.5 -96.501v-300z
" />
    <glyph glyph-name="Omacron" unicode="&#x14c;" horiz-adv-x="760" 
d="M30 350c0 57.333 8.33301 108.333 25 153s40.334 82.334 71.001 113.001s67.5 54 110.5 70s90.833 24 143.5 24s100.5 -8 143.5 -24s79.833 -39.333 110.5 -70s54.334 -68.334 71.001 -113.001s25 -95.667 25 -153s-8.33301 -108.333 -25 -153
s-40.334 -82.334 -71.001 -113.001s-67.5 -54 -110.5 -70s-90.833 -24 -143.5 -24s-100.5 8 -143.5 24s-79.833 39.333 -110.5 70s-54.334 68.334 -71.001 113.001s-25 95.667 -25 153zM210 350c0 -70.667 14.5 -123.334 43.5 -158.001s71.167 -52 126.5 -52
s97.5 17.333 126.5 52s43.5 87.334 43.5 158.001s-14.5 123.334 -43.5 158.001s-71.167 52 -126.5 52s-97.5 -17.333 -126.5 -52s-43.5 -87.334 -43.5 -158.001zM566 760h-370l-10 10v110l10 10h370l10 -10v-110z" />
    <glyph glyph-name="omacron" unicode="&#x14d;" horiz-adv-x="560" 
d="M540 250c0 -40 -6 -76 -18 -108s-29.333 -59.333 -52 -82s-50 -40 -82 -52s-68 -18 -108 -18s-76 6 -108 18s-59.333 29.333 -82 52s-40 50 -52 82s-18 68 -18 108s6 76 18 108s29.333 59.333 52 82s50 40 82 52s68 18 108 18s76 -6 108 -18s59.333 -29.333 82 -52
s40 -50 52 -82s18 -68 18 -108zM370 250c0 22.667 -2.33398 41.6689 -7.00098 57.002s-11 27.666 -19 36.999s-17.5 16 -28.5 20s-22.833 6 -35.5 6c-25.333 0 -46.666 -8.83301 -63.999 -26.5s-26 -48.834 -26 -93.501c0 -22.667 2.33301 -41.667 7 -57
s11 -27.666 19 -36.999s17.5 -16 28.5 -20s22.833 -6 35.5 -6s24.5 2 35.5 6s20.5 10.667 28.5 20s14.333 21.666 19 36.999s7 34.333 7 57zM464.999 560.002h-370l-10 10v110l10 10h370l10 -10v-110z" />
    <glyph glyph-name="Obreve" unicode="&#x14e;" horiz-adv-x="760" 
d="M30 350c0 57.333 8.33301 108.333 25 153s40.334 82.334 71.001 113.001s67.5 54 110.5 70s90.833 24 143.5 24s100.5 -8 143.5 -24s79.833 -39.333 110.5 -70s54.334 -68.334 71.001 -113.001s25 -95.667 25 -153s-8.33301 -108.333 -25 -153
s-40.334 -82.334 -71.001 -113.001s-67.5 -54 -110.5 -70s-90.833 -24 -143.5 -24s-100.5 8 -143.5 24s-79.833 39.333 -110.5 70s-54.334 68.334 -71.001 113.001s-25 95.667 -25 153zM210 350c0 -70.667 14.5 -123.334 43.5 -158.001s71.167 -52 126.5 -52
s97.5 17.333 126.5 52s43.5 87.334 43.5 158.001s-14.5 123.334 -43.5 158.001s-71.167 52 -126.5 52s-97.5 -17.333 -126.5 -52s-43.5 -87.334 -43.5 -158.001zM300 890c0 -15.333 5.83496 -27.5 17.502 -36.5s32.5 -13.5 62.5 -13.5s50.833 4.5 62.5 13.5
s17.5 21.167 17.5 36.5l10 10h80l10 -10c0 -20 -3.33301 -39 -10 -57s-17.167 -34 -31.5 -48s-32.833 -25 -55.5 -33s-50.334 -12 -83.001 -12s-60.334 4 -83.001 12s-41.167 19 -55.5 33s-24.833 30 -31.5 48s-10 37 -10 57l10 10h80z" />
    <glyph glyph-name="obreve" unicode="&#x14f;" horiz-adv-x="560" 
d="M540 250c0 -40 -6 -76 -18 -108s-29.333 -59.333 -52 -82s-50 -40 -82 -52s-68 -18 -108 -18s-76 6 -108 18s-59.333 29.333 -82 52s-40 50 -52 82s-18 68 -18 108s6 76 18 108s29.333 59.333 52 82s50 40 82 52s68 18 108 18s76 -6 108 -18s59.333 -29.333 82 -52
s40 -50 52 -82s18 -68 18 -108zM370 250c0 22.667 -2.33398 41.6689 -7.00098 57.002s-11 27.666 -19 36.999s-17.5 16 -28.5 20s-22.833 6 -35.5 6c-25.333 0 -46.666 -8.83301 -63.999 -26.5s-26 -48.834 -26 -93.501c0 -22.667 2.33301 -41.667 7 -57
s11 -27.666 19 -36.999s17.5 -16 28.5 -20s22.833 -6 35.5 -6s24.5 2 35.5 6s20.5 10.667 28.5 20s14.333 21.666 19 36.999s7 34.333 7 57zM199.999 690.002c0 -15.333 5.83496 -27.5 17.502 -36.5s32.5 -13.5 62.5 -13.5s50.833 4.5 62.5 13.5s17.5 21.167 17.5 36.5
l10 10h80l10 -10c0 -20 -3.33301 -39 -10 -57s-17.167 -34 -31.5 -48s-32.833 -25 -55.5 -33s-50.334 -12 -83.001 -12s-60.334 4 -83.001 12s-41.167 19 -55.5 33s-24.833 30 -31.5 48s-10 37 -10 57l10 10h80z" />
    <glyph glyph-name="Ohungarumlaut" unicode="&#x150;" horiz-adv-x="760" 
d="M30 350c0 57.333 8.33301 108.333 25 153s40.334 82.334 71.001 113.001s67.5 54 110.5 70s90.833 24 143.5 24s100.5 -8 143.5 -24s79.833 -39.333 110.5 -70s54.334 -68.334 71.001 -113.001s25 -95.667 25 -153s-8.33301 -108.333 -25 -153
s-40.334 -82.334 -71.001 -113.001s-67.5 -54 -110.5 -70s-90.833 -24 -143.5 -24s-100.5 8 -143.5 24s-79.833 39.333 -110.5 70s-54.334 68.334 -71.001 113.001s-25 95.667 -25 153zM210 350c0 -70.667 14.5 -123.334 43.5 -158.001s71.167 -52 126.5 -52
s97.5 17.333 126.5 52s43.5 87.334 43.5 158.001s-14.5 123.334 -43.5 158.001s-71.167 52 -126.5 52s-97.5 -17.333 -126.5 -52s-43.5 -87.334 -43.5 -158.001zM150 770v20l90 100l20 10h150l10 -10v-20l-110 -100l-20 -10h-130zM390 770v20l90 100l20 10h150l10 -10v-20
l-110 -100l-20 -10h-130z" />
    <glyph glyph-name="ohungarumlaut" unicode="&#x151;" horiz-adv-x="560" 
d="M540 250c0 -40 -6 -76 -18 -108s-29.333 -59.333 -52 -82s-50 -40 -82 -52s-68 -18 -108 -18s-76 6 -108 18s-59.333 29.333 -82 52s-40 50 -52 82s-18 68 -18 108s6 76 18 108s29.333 59.333 52 82s50 40 82 52s68 18 108 18s76 -6 108 -18s59.333 -29.333 82 -52
s40 -50 52 -82s18 -68 18 -108zM370 250c0 22.667 -2.33398 41.6689 -7.00098 57.002s-11 27.666 -19 36.999s-17.5 16 -28.5 20s-22.833 6 -35.5 6c-25.333 0 -46.666 -8.83301 -63.999 -26.5s-26 -48.834 -26 -93.501c0 -22.667 2.33301 -41.667 7 -57
s11 -27.666 19 -36.999s17.5 -16 28.5 -20s22.833 -6 35.5 -6s24.5 2 35.5 6s20.5 10.667 28.5 20s14.333 21.666 19 36.999s7 34.333 7 57zM69.999 570.002v20l90 100l20 10h150l10 -10v-20l-110 -100l-20 -10h-130zM309.999 570.002v20l90 100l20 10h150l10 -10v-20
l-110 -100l-20 -10h-130z" />
    <glyph glyph-name="OE" unicode="&#x152;" horiz-adv-x="1060" 
d="M370 140c55.333 0 95.833 17.333 121.5 52s38.5 87.334 38.5 158.001s-12.833 123.334 -38.5 158.001s-66.167 52 -121.5 52s-95.833 -17.333 -121.5 -52s-38.5 -87.334 -38.5 -158.001s12.833 -123.334 38.5 -158.001s66.167 -52 121.5 -52zM1000 700l10 -10.002v-130
l-10 -10h-280l-10 -10v-100l10 -10h260l10 -10v-130l-10 -10h-260l-10 -10v-110l10 -10h280l10 -10v-130l-10 -10h-460l-10 10v30h-10c-15.333 -15.333 -37.5 -27.5 -66.5 -36.5s-63.5 -13.5 -103.5 -13.5c-47.333 0 -90.666 8 -129.999 24s-73 39.333 -101 70
s-49.833 68.334 -65.5 113.001s-23.5 95.667 -23.5 153s7.83301 108.333 23.5 153s37.5 82.334 65.5 113.001s61.667 54 101 70s82.666 24 129.999 24c40 0 74.5 -4.5 103.5 -13.5s51.167 -21.167 66.5 -36.5h10v30l10 10h460z" />
    <glyph glyph-name="oe" unicode="&#x153;" horiz-adv-x="890" 
d="M630 -10c-40 0 -73.335 4.99902 -100.002 14.999s-50 25 -70 45h-10c-20 -20 -44.5 -35 -73.5 -45s-61.167 -15 -96.5 -15c-40 0 -76 6 -108 18s-59.333 29.333 -82 52s-40 50 -52 82s-18 68 -18 108s6 76 18 108s29.333 59.333 52 82s50 40 82 52s68 18 108 18
c35.333 0 67.5 -5 96.5 -15s53.5 -25 73.5 -45h10c20 20 42.833 35 68.5 45s56.167 15 91.5 15c42.667 0 79.667 -6.5 111 -19.5s57.333 -31 78 -54s36 -50.5 46 -82.5s15 -66.667 15 -104v-40l-10 -10h-300l-10 -10c0 -5.33301 0.833008 -11.833 2.5 -19.5
s5.33398 -15.334 11.001 -23.001s13.834 -14.167 24.501 -19.5s24.667 -8 42 -8c30 0 50 10 60 30l10 10h150l10 -10c-2.66699 -15.333 -8.66699 -32.166 -18 -50.499s-23 -35.666 -41 -51.999s-41 -30 -69 -41s-62 -16.5 -102 -16.5zM369.998 249.999
c0 22.667 -2.33398 41.6689 -7.00098 57.002s-11 27.666 -19 36.999s-17.5 16 -28.5 20s-22.833 6 -35.5 6c-25.333 0 -46.666 -8.83301 -63.999 -26.5s-26 -48.834 -26 -93.501c0 -22.667 2.33301 -41.667 7 -57s11 -27.666 19 -36.999s17.5 -16 28.5 -20
s22.833 -6 35.5 -6s24.5 2 35.5 6s20.5 10.667 28.5 20s14.333 21.666 19 36.999s7 34.333 7 57zM689.997 320.001c0 2.66699 -0.833008 7.16699 -2.5 13.5s-5 13 -10 20s-12.167 13.167 -21.5 18.5s-21.333 8 -36 8c-15.333 0 -27.5 -2.66699 -36.5 -8s-16 -11.5 -21 -18.5
s-8.33301 -13.667 -10 -20s-2.5 -10.833 -2.5 -13.5l10 -10h120z" />
    <glyph glyph-name="Racute" unicode="&#x154;" horiz-adv-x="710" 
d="M680 480c0 -27.333 -3.5 -51.833 -10.5 -73.5s-16.5 -40.5 -28.5 -56.5s-25.833 -29.833 -41.5 -41.5s-32.167 -21.167 -49.5 -28.5v-10l110 -130v-130l-10 -10h-80l-20 10l-200 240l-20 10h-70l-10 -10v-240l-10 -10h-160l-10 10v680l10 10h350
c37.333 0 71.333 -4.83301 102 -14.5s57 -24 79 -43s39 -42.167 51 -69.5s18 -58.333 18 -93zM500 480c0 30 -6.66699 49.167 -20 57.5s-30 12.5 -50 12.5h-170l-10 -10v-120l10 -10h170c20 0 36.667 4.16699 50 12.5s20 27.5 20 57.5zM240 770v20l90 100l20 10h150l10 -10
v-20l-110 -100l-20 -10h-130z" />
    <glyph glyph-name="racute" unicode="&#x155;" horiz-adv-x="435" 
d="M405 360h-80c-40 0 -68.333 -6.66699 -85 -20s-25 -40 -25 -80v-250l-10 -10h-150l-10 10v480l10 10h140l10 -10l10 -30h10c4.66699 7.33301 11.667 14 21 20c8 5.33301 19.167 10 33.5 14s32.833 6 55.5 6h70l10 -10v-120zM105 570v20l90 100l20 10h150l10 -10v-20
l-110 -100l-20 -10h-130z" />
    <glyph glyph-name="Rcommaaccent" unicode="&#x156;" horiz-adv-x="710" 
d="M680 480c0 -27.333 -3.5 -51.833 -10.5 -73.5s-16.5 -40.5 -28.5 -56.5s-25.833 -29.833 -41.5 -41.5s-32.167 -21.167 -49.5 -28.5v-10l110 -130v-130l-10 -10h-80l-20 10l-200 240l-20 10h-70l-10 -10v-240l-10 -10h-160l-10 10v680l10 10h350
c37.333 0 71.333 -4.83301 102 -14.5s57 -24 79 -43s39 -42.167 51 -69.5s18 -58.333 18 -93zM500 480c0 30 -6.66699 49.167 -20 57.5s-30 12.5 -50 12.5h-170l-10 -10v-120l10 -10h170c20 0 36.667 4.16699 50 12.5s20 27.5 20 57.5zM440 -160l-60 -50l-20 -10h-60v10
l40 50v10l-10 10h-30l-10 10v80l10 10h140l10 -10v-90z" />
    <glyph glyph-name="rcommaaccent" unicode="&#x157;" horiz-adv-x="435" 
d="M405 360h-80c-40 0 -68.333 -6.66699 -85 -20s-25 -40 -25 -80v-250l-10 -10h-150l-10 10v480l10 10h140l10 -10l10 -30h10c4.66699 7.33301 11.667 14 21 20c8 5.33301 19.167 10 33.5 14s32.833 6 55.5 6h70l10 -10v-120zM200 -160l-60 -50l-20 -10h-60v10l40 50v10
l-10 10h-30l-10 10v80l10 10h140l10 -10v-90z" />
    <glyph glyph-name="Rcaron" unicode="&#x158;" horiz-adv-x="710" 
d="M680 480c0 -27.333 -3.5 -51.833 -10.5 -73.5s-16.5 -40.5 -28.5 -56.5s-25.833 -29.833 -41.5 -41.5s-32.167 -21.167 -49.5 -28.5v-10l110 -130v-130l-10 -10h-80l-20 10l-200 240l-20 10h-70l-10 -10v-240l-10 -10h-160l-10 10v680l10 10h350
c37.333 0 71.333 -4.83301 102 -14.5s57 -24 79 -43s39 -42.167 51 -69.5s18 -58.333 18 -93zM500 480c0 30 -6.66699 49.167 -20 57.5s-30 12.5 -50 12.5h-170l-10 -10v-120l10 -10h170c20 0 36.667 4.16699 50 12.5s20 27.5 20 57.5zM550 890v-20l-90 -100l-20 -10h-180
l-20 10l-90 100v20l10 10h110l20 -10l50 -40h20l50 40l20 10h110z" />
    <glyph glyph-name="rcaron" unicode="&#x159;" horiz-adv-x="435" 
d="M405 360h-80c-40 0 -68.333 -6.66699 -85 -20s-25 -40 -25 -80v-250l-10 -10h-150l-10 10v480l10 10h140l10 -10l10 -30h10c4.66699 7.33301 11.667 14 21 20c8 5.33301 19.167 10 33.5 14s32.833 6 55.5 6h70l10 -10v-120zM426 690v-20l-90 -100l-20 -10h-180l-20 10
l-90 100v20l10 10h110l20 -10l50 -40h20l50 40l20 10h110z" />
    <glyph glyph-name="Sacute" unicode="&#x15a;" horiz-adv-x="670" 
d="M470 200c0 12.667 -2.49902 22.832 -7.49902 30.499s-12.167 14 -21.5 19s-20.833 9 -34.5 12s-29.167 5.83301 -46.5 8.5l-70 10c-52.667 7.33301 -95.334 18.833 -128.001 34.5s-58 33.834 -76 54.501s-30.167 43 -36.5 67s-9.5 48.667 -9.5 74
c0 27.333 5.66699 53.166 17 77.499s29 45.5 53 63.5s54.167 32.333 90.5 43s79.5 16 129.5 16c90 0 160.833 -17.5 212.5 -52.5s77.5 -87.5 77.5 -157.5l-10 -10h-160l-10 10c0 20 -8.33301 36.667 -25 50s-45 20 -85 20c-80 0 -120 -20 -120 -60
c0 -20 9.5 -33.667 28.5 -41s46.167 -13.666 81.5 -18.999l70 -10c52.667 -7.33301 95.334 -18.333 128.001 -33s58 -32 76 -52s30.167 -42.333 36.5 -67s9.5 -50.667 9.5 -78s-5.33301 -54.166 -16 -80.499s-27.834 -49.833 -51.501 -70.5s-54.667 -37.334 -93 -50.001
s-84.833 -19 -139.5 -19c-100.667 0 -177.5 19.5 -230.5 58.5s-79.5 96.167 -79.5 171.5l10 10h160l10 -10c0 -30 10.333 -52.5 31 -67.5s53.667 -22.5 99 -22.5c40 0 71.667 5.33301 95 16s35 28.667 35 54zM210.001 769.998v20l90 100l20 10h150l10 -10v-20l-110 -100
l-20 -10h-130z" />
    <glyph glyph-name="sacute" unicode="&#x15b;" horiz-adv-x="510" 
d="M330 150c0 7.33301 -1.5 13.1719 -4.5 17.5049s-8.16699 7.66602 -15.5 9.99902s-17.5 4.33301 -30.5 6l-49.5 6.5c-40 4.66699 -73 12.5 -99 23.5s-46.5 23.667 -61.5 38s-25.333 30 -31 47s-8.5 34.167 -8.5 51.5c0 22.667 4 43.667 12 63s20.667 36.166 38 50.499
s40 25.666 68 33.999s62 12.5 102 12.5c30 0 58.333 -3.16699 85 -9.5s50 -16 70 -29s35.833 -29.667 47.5 -50s17.5 -44.166 17.5 -71.499l-10 -10h-140l-10 10c0 15.333 -3.66699 25.833 -11 31.5s-23.666 8.5 -48.999 8.5c-15.333 0 -29.166 -1.33301 -41.499 -4
s-18.5 -11.334 -18.5 -26.001c0 -5.33301 1 -9.83301 3 -13.5s6 -7 12 -10s15 -5.83301 27 -8.5s28 -5.33398 48 -8.00098c40 -5.33301 73.5 -11.833 100.5 -19.5s48.5 -17.834 64.5 -30.501s27.5 -28 34.5 -46s10.5 -39.333 10.5 -64c0 -20 -3.5 -40.167 -10.5 -60.5
s-19.333 -38.5 -37 -54.5s-41.334 -29.167 -71.001 -39.5s-66.834 -15.5 -111.501 -15.5c-80 0 -140 15.833 -180 47.5s-60 72.5 -60 122.5l10 10h140l10 -10c0 -20 7 -33.333 21 -40s33.667 -10 59 -10c20 0 36.667 1.66699 50 5s20 15 20 35zM130 570.006v20l90 100l20 10
h150l10 -10v-20l-110 -100l-20 -10h-130z" />
    <glyph glyph-name="Scircumflex" unicode="&#x15c;" horiz-adv-x="670" 
d="M470 200c0 12.667 -2.49902 22.832 -7.49902 30.499s-12.167 14 -21.5 19s-20.833 9 -34.5 12s-29.167 5.83301 -46.5 8.5l-70 10c-52.667 7.33301 -95.334 18.833 -128.001 34.5s-58 33.834 -76 54.501s-30.167 43 -36.5 67s-9.5 48.667 -9.5 74
c0 27.333 5.66699 53.166 17 77.499s29 45.5 53 63.5s54.167 32.333 90.5 43s79.5 16 129.5 16c90 0 160.833 -17.5 212.5 -52.5s77.5 -87.5 77.5 -157.5l-10 -10h-160l-10 10c0 20 -8.33301 36.667 -25 50s-45 20 -85 20c-80 0 -120 -20 -120 -60
c0 -20 9.5 -33.667 28.5 -41s46.167 -13.666 81.5 -18.999l70 -10c52.667 -7.33301 95.334 -18.333 128.001 -33s58 -32 76 -52s30.167 -42.333 36.5 -67s9.5 -50.667 9.5 -78s-5.33301 -54.166 -16 -80.499s-27.834 -49.833 -51.501 -70.5s-54.667 -37.334 -93 -50.001
s-84.833 -19 -139.5 -19c-100.667 0 -177.5 19.5 -230.5 58.5s-79.5 96.167 -79.5 171.5l10 10h160l10 -10c0 -30 10.333 -52.5 31 -67.5s53.667 -22.5 99 -22.5c40 0 71.667 5.33301 95 16s35 28.667 35 54zM520.001 759.998h-110l-20 10l-50 40h-20l-50 -40l-20 -10h-110
l-10 10v20l90 100l20 10h180l20 -10l90 -100v-20z" />
    <glyph glyph-name="scircumflex" unicode="&#x15d;" horiz-adv-x="510" 
d="M330 150c0 7.33301 -1.5 13.1719 -4.5 17.5049s-8.16699 7.66602 -15.5 9.99902s-17.5 4.33301 -30.5 6l-49.5 6.5c-40 4.66699 -73 12.5 -99 23.5s-46.5 23.667 -61.5 38s-25.333 30 -31 47s-8.5 34.167 -8.5 51.5c0 22.667 4 43.667 12 63s20.667 36.166 38 50.499
s40 25.666 68 33.999s62 12.5 102 12.5c30 0 58.333 -3.16699 85 -9.5s50 -16 70 -29s35.833 -29.667 47.5 -50s17.5 -44.166 17.5 -71.499l-10 -10h-140l-10 10c0 15.333 -3.66699 25.833 -11 31.5s-23.666 8.5 -48.999 8.5c-15.333 0 -29.166 -1.33301 -41.499 -4
s-18.5 -11.334 -18.5 -26.001c0 -5.33301 1 -9.83301 3 -13.5s6 -7 12 -10s15 -5.83301 27 -8.5s28 -5.33398 48 -8.00098c40 -5.33301 73.5 -11.833 100.5 -19.5s48.5 -17.834 64.5 -30.501s27.5 -28 34.5 -46s10.5 -39.333 10.5 -64c0 -20 -3.5 -40.167 -10.5 -60.5
s-19.333 -38.5 -37 -54.5s-41.334 -29.167 -71.001 -39.5s-66.834 -15.5 -111.501 -15.5c-80 0 -140 15.833 -180 47.5s-60 72.5 -60 122.5l10 10h140l10 -10c0 -20 7 -33.333 21 -40s33.667 -10 59 -10c20 0 36.667 1.66699 50 5s20 15 20 35zM440 560.006h-110l-20 10
l-50 40h-20l-50 -40l-20 -10h-110l-10 10v20l90 100l20 10h180l20 -10l90 -100v-20z" />
    <glyph glyph-name="Scedilla" unicode="&#x15e;" horiz-adv-x="670" 
d="M280 -110l-29.9961 29.998v10l50 50v10c-40 2.66699 -76.5 9 -109.5 19s-61.5 24.5 -85.5 43.5s-42.5 42.333 -55.5 70s-19.5 60.167 -19.5 97.5l10 10h160l10 -10c0 -30 10.333 -52.5 31 -67.5s53.667 -22.5 99 -22.5c40 0 71.667 5.33301 95 16s35 28.667 35 54
c0 12.667 -2.5 22.834 -7.5 30.501s-12.167 14 -21.5 19s-20.833 9 -34.5 12s-29.167 5.83301 -46.5 8.5l-70 10c-52.667 7.33301 -95.334 18.833 -128.001 34.5s-58 33.834 -76 54.501s-30.167 43 -36.5 67s-9.5 48.667 -9.5 74c0 27.333 5.66699 53.166 17 77.499
s29 45.5 53 63.5s54.167 32.333 90.5 43s79.5 16 129.5 16c90 0 160.833 -17.5 212.5 -52.5s77.5 -87.5 77.5 -157.5l-10 -10h-160l-10 10c0 20 -8.33301 36.667 -25 50s-45 20 -85 20c-80 0 -120 -20 -120 -60c0 -20 9.5 -33.667 28.5 -41s46.167 -13.666 81.5 -18.999
l70 -10c52.667 -7.33301 95.334 -18.333 128.001 -33s58 -32 76 -52s30.167 -42.333 36.5 -67s9.5 -50.667 9.5 -78c0 -60.667 -21.167 -110 -63.5 -148s-101.166 -62 -176.499 -72l-20 -10l-30 -30v-10c20 0 38.333 -5.5 55 -16.5s25 -28.833 25 -53.5
c0 -25.333 -10.833 -45 -32.5 -59s-47.5 -21 -77.5 -21c-20 0 -36.333 2.83301 -49 8.5s-26.334 16.167 -41.001 31.5v10l20 20h10c4.66699 -5.33301 9.16699 -9.33301 13.5 -12s8.66602 -4.5 12.999 -5.5s9.16602 -1.66699 14.499 -2s11.666 -0.5 18.999 -0.5
c15.333 0 25.833 2.5 31.5 7.5s8.5 12.5 8.5 22.5s-2.83301 17.5 -8.5 22.5s-16.167 7.5 -31.5 7.5c-5.33301 0 -9.83301 -0.5 -13.5 -1.5s-6.83398 -2.16699 -9.50098 -3.5c-2.66699 -2 -5 -3.66699 -7 -5h-10z" />
    <glyph glyph-name="scedilla" unicode="&#x15f;" horiz-adv-x="510" 
d="M200 -110l-29.9971 30.0039v10l50 50v10c-30 2.66699 -57.333 8.33398 -82 17.001s-45.667 20.167 -63 34.5s-30.833 31.333 -40.5 51s-14.5 42.167 -14.5 67.5l10 10h140l10 -10c0 -15.333 7 -25.833 21 -31.5s33.667 -8.5 59 -8.5c10 0 19.333 0.166992 28 0.5
s16 1.5 22 3.5s10.833 5 14.5 9s5.5 9.66699 5.5 17s-1.5 13.166 -4.5 17.499s-8.16699 7.66602 -15.5 9.99902s-17.5 4.33301 -30.5 6l-49.5 6.5c-40 4.66699 -73 12.5 -99 23.5s-46.5 23.667 -61.5 38s-25.333 30 -31 47s-8.5 34.167 -8.5 51.5c0 22.667 4 43.667 12 63
s20.667 36.166 38 50.499s40 25.666 68 33.999s62 12.5 102 12.5c30 0 58.333 -3.16699 85 -9.5s50 -16 70 -29s35.833 -29.667 47.5 -50s17.5 -44.166 17.5 -71.499l-10 -10h-140l-10 10c0 10 -3.66699 17.5 -11 22.5s-23.666 7.5 -48.999 7.5
c-15.333 0 -29.166 -0.833008 -41.499 -2.5s-18.5 -7.5 -18.5 -17.5c0 -5.33301 1 -9.83301 3 -13.5s6 -7 12 -10s15 -5.83301 27 -8.5s28 -5.33398 48 -8.00098c40 -5.33301 73.5 -11.833 100.5 -19.5s48.5 -17.834 64.5 -30.501s27.5 -28 34.5 -46s10.5 -39.333 10.5 -64
c0 -40 -13.333 -75.833 -40 -107.5s-70 -52.5 -130 -62.5l-20 -10l-30 -30v-10c20 0 38.333 -5.5 55 -16.5s25 -28.833 25 -53.5c0 -25.333 -10.833 -45 -32.5 -59s-47.5 -21 -77.5 -21c-20 0 -36.333 2.83301 -49 8.5s-26.334 16.167 -41.001 31.5v10l20 20h10
c4.66699 -5.33301 9.16699 -9.33301 13.5 -12s8.66602 -4.5 12.999 -5.5s9.16602 -1.66699 14.499 -2s11.666 -0.5 18.999 -0.5c15.333 0 25.833 2.5 31.5 7.5s8.5 12.5 8.5 22.5s-2.83301 17.5 -8.5 22.5s-16.167 7.5 -31.5 7.5c-5.33301 0 -9.83301 -0.5 -13.5 -1.5
s-6.83398 -2.16699 -9.50098 -3.5c-2.66699 -2 -5 -3.66699 -7 -5h-10z" />
    <glyph glyph-name="Scaron" unicode="&#x160;" horiz-adv-x="670" 
d="M470 200c0 12.667 -2.49902 22.832 -7.49902 30.499s-12.167 14 -21.5 19s-20.833 9 -34.5 12s-29.167 5.83301 -46.5 8.5l-70 10c-52.667 7.33301 -95.334 18.833 -128.001 34.5s-58 33.834 -76 54.501s-30.167 43 -36.5 67s-9.5 48.667 -9.5 74
c0 27.333 5.66699 53.166 17 77.499s29 45.5 53 63.5s54.167 32.333 90.5 43s79.5 16 129.5 16c90 0 160.833 -17.5 212.5 -52.5s77.5 -87.5 77.5 -157.5l-10 -10h-160l-10 10c0 20 -8.33301 36.667 -25 50s-45 20 -85 20c-80 0 -120 -20 -120 -60
c0 -20 9.5 -33.667 28.5 -41s46.167 -13.666 81.5 -18.999l70 -10c52.667 -7.33301 95.334 -18.333 128.001 -33s58 -32 76 -52s30.167 -42.333 36.5 -67s9.5 -50.667 9.5 -78s-5.33301 -54.166 -16 -80.499s-27.834 -49.833 -51.501 -70.5s-54.667 -37.334 -93 -50.001
s-84.833 -19 -139.5 -19c-100.667 0 -177.5 19.5 -230.5 58.5s-79.5 96.167 -79.5 171.5l10 10h160l10 -10c0 -30 10.333 -52.5 31 -67.5s53.667 -22.5 99 -22.5c40 0 71.667 5.33301 95 16s35 28.667 35 54zM530.001 889.998v-20l-90 -100l-20 -10h-180l-20 10l-90 100v20
l10 10h110l20 -10l50 -40h20l50 40l20 10h110z" />
    <glyph glyph-name="scaron" unicode="&#x161;" horiz-adv-x="510" 
d="M330 150c0 7.33301 -1.5 13.1719 -4.5 17.5049s-8.16699 7.66602 -15.5 9.99902s-17.5 4.33301 -30.5 6l-49.5 6.5c-40 4.66699 -73 12.5 -99 23.5s-46.5 23.667 -61.5 38s-25.333 30 -31 47s-8.5 34.167 -8.5 51.5c0 22.667 4 43.667 12 63s20.667 36.166 38 50.499
s40 25.666 68 33.999s62 12.5 102 12.5c30 0 58.333 -3.16699 85 -9.5s50 -16 70 -29s35.833 -29.667 47.5 -50s17.5 -44.166 17.5 -71.499l-10 -10h-140l-10 10c0 15.333 -3.66699 25.833 -11 31.5s-23.666 8.5 -48.999 8.5c-15.333 0 -29.166 -1.33301 -41.499 -4
s-18.5 -11.334 -18.5 -26.001c0 -5.33301 1 -9.83301 3 -13.5s6 -7 12 -10s15 -5.83301 27 -8.5s28 -5.33398 48 -8.00098c40 -5.33301 73.5 -11.833 100.5 -19.5s48.5 -17.834 64.5 -30.501s27.5 -28 34.5 -46s10.5 -39.333 10.5 -64c0 -20 -3.5 -40.167 -10.5 -60.5
s-19.333 -38.5 -37 -54.5s-41.334 -29.167 -71.001 -39.5s-66.834 -15.5 -111.501 -15.5c-80 0 -140 15.833 -180 47.5s-60 72.5 -60 122.5l10 10h140l10 -10c0 -20 7 -33.333 21 -40s33.667 -10 59 -10c20 0 36.667 1.66699 50 5s20 15 20 35zM450 690.006v-20l-90 -100
l-20 -10h-180l-20 10l-90 100v20l10 10h110l20 -10l50 -40h20l50 40l20 10h110z" />
    <glyph glyph-name="Tcommaaccent" unicode="&#x162;" horiz-adv-x="660" 
d="M630 550h-200l-10 -10v-530l-10 -10h-160l-10 10v530l-10 10h-200l-10 10v130l10 10h600l10 -10v-130zM400 -160l-60 -50l-20 -10h-60v10l40 50v10l-10 10h-30l-10 10v80l10 10h140l10 -10v-90z" />
    <glyph glyph-name="tcommaaccent" unicode="&#x163;" horiz-adv-x="430" 
d="M280 620v-110l10 -10h100l10 -10v-120l-10 -10h-100l-10 -10v-180c0 -20 10 -30 30 -30h80l10 -10v-120l-10 -10h-110c-22.667 0 -44.167 2.66699 -64.5 8s-38.333 14 -54 26s-28.167 27.5 -37.5 46.5s-14 42.167 -14 69.5v200l-10 10h-80l-10 10v120l10 10h80l10 10v110
l10 10h150zM310 -160l-60 -50l-20 -10h-60v10l40 50v10l-10 10h-30l-10 10v80l10 10h140l10 -10v-90z" />
    <glyph glyph-name="Tcaron" unicode="&#x164;" horiz-adv-x="660" 
d="M630 550h-200l-10 -10v-530l-10 -10h-160l-10 10v530l-10 10h-200l-10 10v130l10 10h600l10 -10v-130zM530 890v-20l-90 -100l-20 -10h-180l-20 10l-90 100v20l10 10h110l20 -10l50 -40h20l50 40l20 10h110z" />
    <glyph glyph-name="tcaron" unicode="&#x165;" horiz-adv-x="430" 
d="M280 620v-110l10 -10h100l10 -10v-120l-10 -10h-100l-10 -10v-180c0 -20 10 -30 30 -30h80l10 -10v-120l-10 -10h-110c-22.667 0 -44.167 2.66699 -64.5 8s-38.333 14 -54 26s-28.167 27.5 -37.5 46.5s-14 42.167 -14 69.5v200l-10 10h-80l-10 10v120l10 10h80l10 10v110
l10 10h150zM430 620l-50 -80l-10 -10h-60v10l50 90v10l-10 10h-20l-10 10v100l10 10h100l10 -10v-110z" />
    <glyph glyph-name="Tbar" unicode="&#x166;" horiz-adv-x="660" 
d="M420 10l-10 -10h-160l-10 10v270l-10 10h-90l-10 10v120l10 10h90l10 10v100l-10 10h-200l-10 10v130l10 10h600l10 -10v-130l-10 -10h-200l-10 -10v-100l10 -10h90l10 -10v-120l-10 -10h-90l-10 -10v-270z" />
    <glyph glyph-name="tbar" unicode="&#x167;" horiz-adv-x="430" 
d="M280 170c0 -20 10 -30 30 -30h80l10 -10v-120l-10 -10h-110c-22.667 0 -44.167 2.66699 -64.5 8s-38.333 14 -54 26s-28.167 27.5 -37.5 46.5s-14 42.167 -14 69.5v30l-10 10h-70l-10 10v110l10 10h70l10 10v20l-10 10h-80l-10 10v120l10 10h80l10 10v110l10 10h150
l10 -10v-110l10 -10h100l10 -10v-120l-10 -10h-100l-10 -10v-20l10 -10h80l10 -10v-110l-10 -10h-80l-10 -10v-10z" />
    <glyph glyph-name="Utilde" unicode="&#x168;" horiz-adv-x="720" 
d="M660 270c0 -90.667 -26.1689 -160 -78.502 -208s-126.166 -72 -221.499 -72s-169.166 24 -221.499 72s-78.5 117.333 -78.5 208v420l10 10h160l10 -10v-420c0 -50 10 -84.167 30 -102.5s50 -27.5 90 -27.5s70 9.16699 90 27.5s30 52.5 30 102.5v420l10 10h160l10 -10
v-420zM434.998 730c-20 0 -37.667 3.66699 -53 11s-29 15.333 -41 24s-22.5 16.667 -31.5 24s-17.167 11 -24.5 11c-10 0 -17.5 -2.83301 -22.5 -8.5s-7.5 -16.167 -7.5 -31.5l-10 -10h-70l-10 10c0 40 10 73.333 30 100s50 40 90 40c20 0 37.667 -3.66699 53 -11
s29 -15.333 41 -24s22.5 -16.667 31.5 -24s17.167 -11 24.5 -11c10 0 17.5 2.83301 22.5 8.5s7.5 16.167 7.5 31.5l10 10h70l10 -10c0 -40 -10 -73.333 -30 -100s-50 -40 -90 -40z" />
    <glyph glyph-name="utilde" unicode="&#x169;" horiz-adv-x="595" 
d="M50 500h149.999l10 -10v-260c0 -35.333 5.83301 -60.833 17.5 -76.5s32.5 -23.5 62.5 -23.5c25.333 0 46.666 9.5 63.999 28.5s26 46.167 26 81.5v250l10 10h150l10 -10v-480l-10 -10h-140l-10 10l-10 30h-10c-5.33301 -5.33301 -11.166 -10.833 -17.499 -16.5
s-14.166 -11 -23.499 -16s-20.5 -9.16699 -33.5 -12.5s-28.167 -5 -45.5 -5c-70 0 -122.5 20.833 -157.5 62.5s-52.5 97.5 -52.5 167.5v270zM374.999 540c-20 0 -37.667 3.66699 -53 11s-29 15.333 -41 24s-22.5 16.667 -31.5 24s-17.167 11 -24.5 11
c-10 0 -17.5 -2.83301 -22.5 -8.5s-7.5 -16.167 -7.5 -31.5l-10 -10h-70l-10 10c0 40 10 73.333 30 100s50 40 90 40c20 0 37.667 -3.66699 53 -11s29 -15.333 41 -24s22.5 -16.667 31.5 -24s17.167 -11 24.5 -11c10 0 17.5 2.83301 22.5 8.5s7.5 16.167 7.5 31.5l10 10h70
l10 -10c0 -40 -10 -73.333 -30 -100s-50 -40 -90 -40z" />
    <glyph glyph-name="Umacron" unicode="&#x16a;" horiz-adv-x="720" 
d="M660 270c0 -90.667 -26.1689 -160 -78.502 -208s-126.166 -72 -221.499 -72s-169.166 24 -221.499 72s-78.5 117.333 -78.5 208v420l10 10h160l10 -10v-420c0 -50 10 -84.167 30 -102.5s50 -27.5 90 -27.5s70 9.16699 90 27.5s30 52.5 30 102.5v420l10 10h160l10 -10
v-420zM544.998 760h-370l-10 10v110l10 10h370l10 -10v-110z" />
    <glyph glyph-name="umacron" unicode="&#x16b;" horiz-adv-x="595" 
d="M50 500h149.999l10 -10v-260c0 -35.333 5.83301 -60.833 17.5 -76.5s32.5 -23.5 62.5 -23.5c25.333 0 46.666 9.5 63.999 28.5s26 46.167 26 81.5v250l10 10h150l10 -10v-480l-10 -10h-140l-10 10l-10 30h-10c-5.33301 -5.33301 -11.166 -10.833 -17.499 -16.5
s-14.166 -11 -23.499 -16s-20.5 -9.16699 -33.5 -12.5s-28.167 -5 -45.5 -5c-70 0 -122.5 20.833 -157.5 62.5s-52.5 97.5 -52.5 167.5v270zM485.999 560h-370l-10 10v110l10 10h370l10 -10v-110z" />
    <glyph glyph-name="Ubreve" unicode="&#x16c;" horiz-adv-x="720" 
d="M660 270c0 -90.667 -26.1689 -160 -78.502 -208s-126.166 -72 -221.499 -72s-169.166 24 -221.499 72s-78.5 117.333 -78.5 208v420l10 10h160l10 -10v-420c0 -50 10 -84.167 30 -102.5s50 -27.5 90 -27.5s70 9.16699 90 27.5s30 52.5 30 102.5v420l10 10h160l10 -10
v-420zM279.998 890c0 -15.333 5.83496 -27.5 17.502 -36.5s32.5 -13.5 62.5 -13.5s50.833 4.5 62.5 13.5s17.5 21.167 17.5 36.5l10 10h80l10 -10c0 -20 -3.33301 -39 -10 -57s-17.167 -34 -31.5 -48s-32.833 -25 -55.5 -33s-50.334 -12 -83.001 -12s-60.334 4 -83.001 12
s-41.167 19 -55.5 33s-24.833 30 -31.5 48s-10 37 -10 57l10 10h80z" />
    <glyph glyph-name="ubreve" unicode="&#x16d;" horiz-adv-x="595" 
d="M50 500h149.999l10 -10v-260c0 -35.333 5.83301 -60.833 17.5 -76.5s32.5 -23.5 62.5 -23.5c25.333 0 46.666 9.5 63.999 28.5s26 46.167 26 81.5v250l10 10h150l10 -10v-480l-10 -10h-140l-10 10l-10 30h-10c-5.33301 -5.33301 -11.166 -10.833 -17.499 -16.5
s-14.166 -11 -23.499 -16s-20.5 -9.16699 -33.5 -12.5s-28.167 -5 -45.5 -5c-70 0 -122.5 20.833 -157.5 62.5s-52.5 97.5 -52.5 167.5v270zM215.999 690c0 -15.333 5.83496 -27.5 17.502 -36.5s32.5 -13.5 62.5 -13.5s50.833 4.5 62.5 13.5s17.5 21.167 17.5 36.5l10 10h80
l10 -10c0 -20 -3.33301 -39 -10 -57s-17.167 -34 -31.5 -48s-32.833 -25 -55.5 -33s-50.334 -12 -83.001 -12s-60.334 4 -83.001 12s-41.167 19 -55.5 33s-24.833 30 -31.5 48s-10 37 -10 57l10 10h80z" />
    <glyph glyph-name="Uring" unicode="&#x16e;" horiz-adv-x="720" 
d="M660 270c0 -90.667 -26.1689 -160 -78.502 -208s-126.166 -72 -221.499 -72s-169.166 24 -221.499 72s-78.5 117.333 -78.5 208v420l10 10h160l10 -10v-420c0 -50 10 -84.167 30 -102.5s50 -27.5 90 -27.5s70 9.16699 90 27.5s30 52.5 30 102.5v420l10 10h160l10 -10
v-420zM408.998 790c0 10 -3.33301 19.167 -10 27.5s-20 12.5 -40 12.5s-33.333 -4.16699 -40 -12.5s-10 -17.5 -10 -27.5s3.33301 -19.167 10 -27.5s20 -12.5 40 -12.5s33.333 4.16699 40 12.5s10 17.5 10 27.5zM218.998 790c0 35.333 12 64.166 36 86.499
s58.667 33.5 104 33.5s80 -11.167 104 -33.5s36 -51.166 36 -86.499c0 -15.333 -3 -30.166 -9 -44.499s-15 -27 -27 -38s-26.667 -20 -44 -27s-37.333 -10.5 -60 -10.5s-42.667 3.5 -60 10.5s-32 16 -44 27s-21 23.667 -27 38s-9 29.166 -9 44.499z" />
    <glyph glyph-name="uring" unicode="&#x16f;" horiz-adv-x="595" 
d="M50 500h149.999l10 -10v-260c0 -35.333 5.83301 -60.833 17.5 -76.5s32.5 -23.5 62.5 -23.5c25.333 0 46.666 9.5 63.999 28.5s26 46.167 26 81.5v250l10 10h150l10 -10v-480l-10 -10h-140l-10 10l-10 30h-10c-5.33301 -5.33301 -11.166 -10.833 -17.499 -16.5
s-14.166 -11 -23.499 -16s-20.5 -9.16699 -33.5 -12.5s-28.167 -5 -45.5 -5c-70 0 -122.5 20.833 -157.5 62.5s-52.5 97.5 -52.5 167.5v270zM344.999 660c0 10 -3.33301 19.167 -10 27.5s-20 12.5 -40 12.5s-33.333 -4.16699 -40 -12.5s-10 -17.5 -10 -27.5
s3.33301 -19.167 10 -27.5s20 -12.5 40 -12.5s33.333 4.16699 40 12.5s10 17.5 10 27.5zM154.999 660c0 35.333 12 64.166 36 86.499s58.667 33.5 104 33.5s80 -11.167 104 -33.5s36 -51.166 36 -86.499c0 -15.333 -3 -30.166 -9 -44.499s-15 -27 -27 -38
s-26.667 -20 -44 -27s-37.333 -10.5 -60 -10.5s-42.667 3.5 -60 10.5s-32 16 -44 27s-21 23.667 -27 38s-9 29.166 -9 44.499z" />
    <glyph glyph-name="Uhungarumlaut" unicode="&#x170;" horiz-adv-x="720" 
d="M660 270c0 -90.667 -26.1689 -160 -78.502 -208s-126.166 -72 -221.499 -72s-169.166 24 -221.499 72s-78.5 117.333 -78.5 208v420l10 10h160l10 -10v-420c0 -50 10 -84.167 30 -102.5s50 -27.5 90 -27.5s70 9.16699 90 27.5s30 52.5 30 102.5v420l10 10h160l10 -10
v-420zM149.998 770v20l90 100l20 10h150l10 -10v-20l-110 -100l-20 -10h-130zM389.998 770v20l90 100l20 10h150l10 -10v-20l-110 -100l-20 -10h-130z" />
    <glyph glyph-name="uhungarumlaut" unicode="&#x171;" horiz-adv-x="595" 
d="M50 500h149.999l10 -10v-260c0 -35.333 5.83301 -60.833 17.5 -76.5s32.5 -23.5 62.5 -23.5c25.333 0 46.666 9.5 63.999 28.5s26 46.167 26 81.5v250l10 10h150l10 -10v-480l-10 -10h-140l-10 10l-10 30h-10c-5.33301 -5.33301 -11.166 -10.833 -17.499 -16.5
s-14.166 -11 -23.499 -16s-20.5 -9.16699 -33.5 -12.5s-28.167 -5 -45.5 -5c-70 0 -122.5 20.833 -157.5 62.5s-52.5 97.5 -52.5 167.5v270zM79.999 570v20l90 100l20 10h150l10 -10v-20l-110 -100l-20 -10h-130zM319.999 570v20l90 100l20 10h150l10 -10v-20l-110 -100
l-20 -10h-130z" />
    <glyph glyph-name="Uogonek" unicode="&#x172;" horiz-adv-x="720" 
d="M660 270c0 -45.333 -5.66797 -83.001 -17.001 -113.001s-25.5 -55 -42.5 -75s-35.5 -36.167 -55.5 -48.5s-38.5 -23.166 -55.5 -32.499s-31.167 -18.5 -42.5 -27.5s-17 -20.167 -17 -33.5c0 -15.333 4.5 -25.833 13.5 -31.5s21.167 -8.5 36.5 -8.5c14 0 26 1.66699 36 5
c5.33301 1.33301 10 3 14 5l10 -10v-80l-10 -10c-8.66699 -4 -18 -7.33301 -28 -10c-9.33301 -2.66699 -19.833 -5 -31.5 -7s-25.167 -3 -40.5 -3c-40 0 -73.333 9.5 -100 28.5s-40 46.167 -40 81.5c0 15.333 2.83301 30 8.5 44s16.167 26 31.5 36v10
c-85.333 5.33301 -151.666 32 -198.999 80s-71 114.667 -71 200v420l10 10h160l10 -10v-420c0 -50 10 -84.167 30 -102.5s50 -27.5 90 -27.5s70 9.16699 90 27.5s30 52.5 30 102.5v420l10 10h160l10 -10v-420z" />
    <glyph glyph-name="uogonek" unicode="&#x173;" horiz-adv-x="595" 
d="M380 40h-10.0029c-5.33301 -5.33301 -11.166 -10.833 -17.499 -16.5s-14.166 -11 -23.499 -16s-20.5 -9.16699 -33.5 -12.5s-28.167 -5 -45.5 -5c-70 0 -122.5 20.833 -157.5 62.5s-52.5 97.5 -52.5 167.5v270l10 10h150l10 -10v-260
c0 -35.333 5.83301 -60.833 17.5 -76.5s32.5 -23.5 62.5 -23.5c25.333 0 46.666 9.5 63.999 28.5s26 46.167 26 81.5v250l10 10h150l10 -10v-480l-10 -10c-30 -5.33301 -54.167 -12.833 -72.5 -22.5s-27.5 -22.167 -27.5 -37.5s4.5 -25.833 13.5 -31.5
s21.167 -8.5 36.5 -8.5c14 0 26 1.66699 36 5c5.33301 1.33301 10 3 14 5l10 -10v-80l-10 -10c-8.66699 -4 -18 -7.33301 -28 -10c-9.33301 -2.66699 -19.833 -5 -31.5 -7s-25.167 -3 -40.5 -3c-40 0 -73.333 9.5 -100 28.5s-40 46.167 -40 81.5
c0 17.333 2.83301 32.333 8.5 45s12.834 23.5 21.501 32.5s18.334 16 29.001 21s21 8.83301 31 11.5z" />
    <glyph glyph-name="Wcircumflex" unicode="&#x174;" horiz-adv-x="1010" 
d="M590 700l10 -10l110 -410h10l90 410l10 10h140l10 -10v-130l-160 -550l-10 -10h-170l-10 10l-110 410h-10l-110 -410l-10 -10h-170l-10 10l-160 550v130l10 10h140l10 -10l90 -410h10l110 410l10 10h170zM695 760h-110l-20 10l-50 40h-20l-50 -40l-20 -10h-110l-10 10v20
l90 100l20 10h180l20 -10l90 -100v-20z" />
    <glyph glyph-name="wcircumflex" unicode="&#x175;" horiz-adv-x="800" 
d="M395 270l-80 -260l-10 -10h-140l-10 10l-120 360v120l10 10h120l10 -10l60 -240h10l70 240l10 10h150l10 -10l70 -240h10l60 240l10 10h120l10 -10v-120l-120 -360l-10 -10h-140l-10 10l-80 260h-10zM590 560h-110l-20 10l-50 40h-20l-50 -40l-20 -10h-110l-10 10v20
l90 100l20 10h180l20 -10l90 -100v-20z" />
    <glyph glyph-name="Ycircumflex" unicode="&#x176;" horiz-adv-x="640" 
d="M410 250v-240l-10 -10h-160l-10 10v240l-200 310v130l10 10h90l20 -10l160 -270h20l160 270l20 10h90l10 -10v-130zM510 760h-110l-20 10l-50 40h-20l-50 -40l-20 -10h-110l-10 10v20l90 100l20 10h180l20 -10l90 -100v-20z" />
    <glyph glyph-name="ycircumflex" unicode="&#x177;" horiz-adv-x="540" 
d="M185 0l-159.998 370v120l10 10h110l10 -10l110 -310h10l110 310l10 10h110l10 -10v-120l-160 -400c-10 -25.333 -21 -47.333 -33 -66s-26.833 -34.167 -44.5 -46.5s-38.834 -21.666 -63.501 -27.999s-54.334 -9.5 -89.001 -9.5h-70l-10 10v120l10 10h70
c15.333 0 27.833 1.16699 37.5 3.5s17.167 11.166 22.5 26.499v10zM460.002 560h-110l-20 10l-50 40h-20l-50 -40l-20 -10h-110l-10 10v20l90 100l20 10h180l20 -10l90 -100v-20z" />
    <glyph glyph-name="Ydieresis" unicode="&#x178;" horiz-adv-x="640" 
d="M410 250v-240l-10 -10h-160l-10 10v240l-200 310v130l10 10h90l20 -10l160 -270h20l160 270l20 10h90l10 -10v-130zM500 760h-140l-10 10v120l10 10h140l10 -10v-120zM280 760h-140l-10 10v120l10 10h140l10 -10v-120z" />
    <glyph glyph-name="Zacute" unicode="&#x179;" horiz-adv-x="640" 
d="M590 0h-540l-10 10v140l10 20l300 370v10h-290l-10 10v130l10 10h510l10 -10v-140l-10 -20l-300 -370v-10h320l10 -10v-130zM200 770v20l90 100l20 10h150l10 -10v-20l-110 -100l-20 -10h-130z" />
    <glyph glyph-name="zacute" unicode="&#x17a;" horiz-adv-x="520" 
d="M480 0h-440l-10 10v130l10 20l210 190v10h-200l-10 10v120l10 10h420l10 -10v-130l-10 -20l-210 -190v-10h220l10 -10v-120zM150 570v20l90 100l20 10h150l10 -10v-20l-110 -100l-20 -10h-130z" />
    <glyph glyph-name="Zdotaccent" unicode="&#x17b;" horiz-adv-x="640" 
d="M590 0h-540l-10 10v140l10 20l300 370v10h-290l-10 10v130l10 10h510l10 -10v-140l-10 -20l-300 -370v-10h320l10 -10v-130zM390 760h-150l-10 10v120l10 10h150l10 -10v-120z" />
    <glyph glyph-name="zdotaccent" unicode="&#x17c;" horiz-adv-x="520" 
d="M480 0h-440l-10 10v130l10 20l210 190v10h-200l-10 10v120l10 10h420l10 -10v-130l-10 -20l-210 -190v-10h220l10 -10v-120zM330 560h-150l-10 10v120l10 10h150l10 -10v-120z" />
    <glyph glyph-name="Zcaron" unicode="&#x17d;" horiz-adv-x="640" 
d="M590 0h-540l-10 10v140l10 20l300 370v10h-290l-10 10v130l10 10h510l10 -10v-140l-10 -20l-300 -370v-10h320l10 -10v-130zM520 890v-20l-90 -100l-20 -10h-180l-20 10l-90 100v20l10 10h110l20 -10l50 -40h20l50 40l20 10h110z" />
    <glyph glyph-name="zcaron" unicode="&#x17e;" horiz-adv-x="520" 
d="M480 0h-440l-10 10v130l10 20l210 190v10h-200l-10 10v120l10 10h420l10 -10v-130l-10 -20l-210 -190v-10h220l10 -10v-120zM460 690v-20l-90 -100l-20 -10h-180l-20 10l-90 100v20l10 10h110l20 -10l50 -40h20l50 40l20 10h110z" />
    <glyph glyph-name="longs" unicode="&#x17f;" horiz-adv-x="410" 
d="M280 0h-150l-10 10v340l-10 10h-80l-10 10v120l10 10h80l10 10v40c0 27.333 4.66699 50.5 14 69.5s21.833 34.5 37.5 46.5s33.667 20.667 54 26s41.833 8 64.5 8h120l10 -10v-120l-10 -10h-90c-20 0 -30 -10 -30 -30v-520z" />
    <glyph glyph-name="uni018F" unicode="&#x18f;" horiz-adv-x="680" 
d="M340 140c35.333 0 64.5 8.66699 87.5 26s37.167 48.666 42.5 93.999l-10 10h-240l-10 -10c5.33301 -45.333 19.5 -76.666 42.5 -93.999s52.167 -26 87.5 -26zM660 340c0 -55.333 -6.83203 -104.67 -20.499 -148.003s-34 -80 -61 -110s-60.333 -52.833 -100 -68.5
s-85.834 -23.5 -138.501 -23.5c-55.333 0 -103 8.33301 -143 25s-73.167 40.334 -99.5 71.001s-45.833 67.5 -58.5 110.5s-19 90.833 -19 143.5v60l10 10h430l10 10c-5.33301 45.333 -18.333 80 -39 104s-51 36 -91 36c-17.333 0 -32 -1.33301 -44 -4s-22 -6.5 -30 -11.5
s-14.833 -11.167 -20.5 -18.5s-10.834 -16 -15.501 -26l-10 -10h-170l-10 10c10 30 22.833 57.833 38.5 83.5s35.334 47.834 59.001 66.501s52 33.334 85 44.001s72.167 16 117.5 16c50 0 94.833 -8.5 134.5 -25.5s73.167 -41.5 100.5 -73.5s48.333 -70.833 63 -116.5
s22 -97.167 22 -154.5z" />
    <glyph glyph-name="florin" unicode="&#x192;" horiz-adv-x="680" 
d="M360 -10c-10 -40 -21.334 -72.333 -34.001 -97s-27.5 -44 -44.5 -58s-36.333 -23.333 -58 -28s-46.167 -7 -73.5 -7h-90l-10 10v120l10 10h50c12.667 0 22.834 0.666992 30.501 2s14 4 19 8s9 9.16699 12 15.5s5.83301 14.5 8.5 24.5l90 360l-10 10h-80l-10 10v120l10 10
h120l10 10c10 40 22 72.333 36 97s30 44 48 58s38.333 23.333 61 28s47.667 7 75 7h90l10 -10v-120l-10 -10h-50c-15.333 0 -27.5 -0.666992 -36.5 -2s-16.333 -4 -22 -8s-10 -9.16699 -13 -15.5s-5.83301 -14.5 -8.5 -24.5l10 -10h140l10 -10v-120l-10 -10h-180l-10 -10z
" />
    <glyph glyph-name="uni01B5" unicode="&#x1b5;" horiz-adv-x="640" 
d="M590 0h-540l-10 10v140l10 20l90 110v10h-70l-10 10v120l10 10h180l20 10l80 100v10h-290l-10 10v130l10 10h510l10 -10v-140l-10 -20l-70 -90v-10h70l10 -10v-120l-10 -10h-180l-20 -10l-100 -120v-10h320l10 -10v-130z" />
    <glyph glyph-name="uni01B6" unicode="&#x1b6;" horiz-adv-x="520" 
d="M480 0h-440l-10 10v130l10 20l30 30v10h-20l-10 10v90l10 10h150l20 10l30 30v10h-200l-10 10v120l10 10h420l10 -10v-130l-10 -20l-20 -20v-10h20l10 -10v-90l-10 -10h-150l-20 -10l-40 -40v-10h220l10 -10v-120z" />
    <glyph glyph-name="Aringacute" unicode="&#x1fa;" horiz-adv-x="670" 
d="M470 120l-20 10h-230l-20 -10l-40 -110l-10 -10h-120l-10 10v130l170 420v10c-5.33301 10 -8.33301 19.5 -9 28.5s-1 16.167 -1 21.5c0 35.333 12 64.166 36 86.499s58.667 33.5 104 33.5h30c45.333 0 80 -11.167 104 -33.5s36 -51.166 36 -86.499
c0 -5.33301 -0.333008 -12.5 -1 -21.5s-3.66699 -18.5 -9 -28.5v-10l170 -420v-130l-10 -10h-120l-10 10zM220 770v20l90 100l20 10h150l10 -10v-20l-110 -100l-20 -10h-130zM260 290l10 -10h130l10 10l-70 190h-10zM350 580c20 0 33.333 4.16699 40 12.5s10 17.5 10 27.5
s-3.33301 19.167 -10 27.5s-20 12.5 -40 12.5h-30c-20 0 -33.333 -4.16699 -40 -12.5s-10 -17.5 -10 -27.5s3.33301 -19.167 10 -27.5s20 -12.5 40 -12.5h30z" />
    <glyph glyph-name="aringacute" unicode="&#x1fb;" horiz-adv-x="545" 
d="M490 0l-139.997 0.00195312l-10 10l-10 20h-10c-8 -7.33301 -18 -14 -30 -20c-10 -5.33301 -22.5 -10 -37.5 -14s-32.5 -6 -52.5 -6c-55.333 0 -99.166 14.167 -131.499 42.5s-48.5 67.5 -48.5 117.5c0 37.333 7.16699 67.166 21.5 89.499s32.166 39.5 53.499 51.5
s44.166 19.833 68.499 23.5s46.5 5.5 66.5 5.5c15.333 0 28.5 -0.5 39.5 -1.5s20.167 -2.16699 27.5 -3.5c8.66699 -2 16.334 -3.66699 23.001 -5l10 10v10c0 20 -5 33.333 -15 40s-25 10 -45 10c-5.33301 0 -10.833 -0.166992 -16.5 -0.5s-11.334 -1.5 -17.001 -3.5
s-10.834 -5 -15.501 -9s-8.33398 -9.66699 -11.001 -17l-10 -10h-140l-10 10c0 20 4 39.5 12 58.5s20.667 36 38 51s40 27.167 68 36.5s62 14 102 14c42.667 0 78.667 -4.33301 108 -13s53 -21.5 71 -38.5s31 -37.833 39 -62.5s12 -53.334 12 -86.001v-300zM320.003 200.002
l-15 5c-5.33301 1.33301 -11.666 2.5 -18.999 3.5s-16 1.5 -26 1.5c-25.333 0 -43.333 -4.5 -54 -13.5s-16 -21.167 -16 -36.5s6.16699 -25.833 18.5 -31.5s26.166 -8.5 41.499 -8.5c20 0 38.333 5 55 15s25 25 25 45v10zM150.003 770.002v20l90 100l20 10h150l10 -10v-20
l-110 -100l-20 -10h-130zM270.003 660.002c-20 0 -33.333 -2.5 -40 -7.5s-10 -12.5 -10 -22.5s3.33301 -17.5 10 -22.5s20 -7.5 40 -7.5s33.333 2.5 40 7.5s10 12.5 10 22.5s-3.33301 17.5 -10 22.5s-20 7.5 -40 7.5zM270.003 740.002c45.333 0 80 -9.5 104 -28.5
s36 -46.167 36 -81.5s-12 -62.5 -36 -81.5s-58.667 -28.5 -104 -28.5s-80 9.5 -104 28.5s-36 46.167 -36 81.5s12 62.5 36 81.5s58.667 28.5 104 28.5z" />
    <glyph glyph-name="AEacute" unicode="&#x1fc;" horiz-adv-x="990" 
d="M940 690v-130l-10 -10h-280l-10 -10v-100l10 -10h260l10 -10v-130l-10 -10h-260l-10 -10v-110l10 -10h280l10 -10v-130l-10 -10h-460l-10 10v110l-10 10h-240l-20 -10l-60 -110l-10 -10h-100l-10 10v130l320 550l10 10h590zM460 290v250l-10 10h-10l-10 -10l-140 -250
l10 -10h150zM490 770v20l90 100l20 10h150l10 -10v-20l-110 -100l-20 -10h-130z" />
    <glyph glyph-name="aeacute" unicode="&#x1fd;" horiz-adv-x="850" 
d="M830 210l-10.002 -10h-300l-10 -10c0 -5.33301 0.833008 -11.833 2.5 -19.5s5.33398 -15.334 11.001 -23.001s13.834 -14.167 24.501 -19.5s24.667 -8 42 -8c30 0 50 10 60 30l10 10h150l10 -10c-2.66699 -15.333 -8.66699 -32.166 -18 -50.499s-23 -35.666 -41 -51.999
s-41 -30 -69 -41s-62 -16.5 -102 -16.5c-35.333 0 -68.666 4.5 -99.999 13.5s-54.666 21.167 -69.999 36.5h-10c-35.333 -20 -68.666 -33.333 -99.999 -40s-64.666 -10 -99.999 -10c-60.667 0 -107.5 14.167 -140.5 42.5s-49.5 67.5 -49.5 117.5
c0 37.333 7.16699 67.166 21.5 89.499s32.166 39.5 53.499 51.5s44.166 19.833 68.499 23.5s46.5 5.5 66.5 5.5c15.333 0 28.5 -0.5 39.5 -1.5s20.167 -2.16699 27.5 -3.5c8.66699 -2 16.334 -3.66699 23.001 -5l10 10v10c0 20 -5 33.333 -15 40s-25 10 -45 10
c-5.33301 0 -10.833 -0.166992 -16.5 -0.5s-11.334 -1.5 -17.001 -3.5s-10.834 -5 -15.501 -9s-8.33398 -9.66699 -11.001 -17l-10 -10h-140l-10 10c0 20 4 39.5 12 58.5s20.667 36 38 51s40 27.167 68 36.5s62 14 102 14c35.333 0 65.333 -4.5 90 -13.5
s44.667 -21.167 60 -36.5h10c15.333 15.333 35.333 27.5 60 36.5s54.667 13.5 90 13.5c42.667 0 79.667 -6.5 111 -19.5s57.333 -31 78 -54s36 -50.5 46 -82.5s15 -66.667 15 -104v-40zM319.998 200l-15 5c-5.33301 1.33301 -11.666 2.5 -18.999 3.5s-16 1.5 -26 1.5
c-25.333 0 -43.333 -4.5 -54 -13.5s-16 -21.167 -16 -36.5s6.16699 -25.833 18.5 -31.5s26.166 -8.5 41.499 -8.5c20 0 38.333 5 55 15s25 25 25 45v10zM649.998 320c0 2.66699 -0.833008 7.16699 -2.5 13.5s-5 13 -10 20s-12.167 13.167 -21.5 18.5s-21.333 8 -36 8
c-15.333 0 -27.5 -2.66699 -36.5 -8s-16 -11.5 -21 -18.5s-8.33301 -13.667 -10 -20s-2.5 -10.833 -2.5 -13.5l10 -10h120zM319.998 570v20l90 100l20 10h150l10 -10v-20l-110 -100l-20 -10h-130z" />
    <glyph glyph-name="Oslashacute" unicode="&#x1fe;" horiz-adv-x="760" 
d="M480 520v10.001c-15.333 10 -30.833 17.5 -46.5 22.5s-33.5 7.5 -53.5 7.5c-55.333 0 -97.5 -17.333 -126.5 -52s-43.5 -87.334 -43.5 -158.001c0 -10 0.333008 -22.5 1 -37.5s3.66699 -32.5 9 -52.5h10zM380 -9.99902c-45.333 0 -84.166 5 -116.499 15
s-63.5 25 -93.5 45h-10l-40 -40l-20 -10h-30l-10 10v70l30 30v20c-20 30 -35 62.833 -45 98.5s-15 76.167 -15 121.5c0 57.333 8.33301 108.333 25 153s40.334 82.334 71.001 113.001s67.5 54 110.5 70s90.833 24 143.5 24c45.333 0 84.166 -5 116.499 -15
s63.5 -25 93.5 -45h10l40 40l20 10h30l10 -10v-70l-30 -30v-20c20 -30 35 -62.833 45 -98.5s15 -76.167 15 -121.5c0 -57.333 -8.33301 -108.333 -25 -153s-40.334 -82.334 -71.001 -113.001s-67.5 -54 -110.5 -70s-90.833 -24 -143.5 -24zM280 180.001v-10.001
c15.333 -10 30.833 -17.5 46.5 -22.5s33.5 -7.5 53.5 -7.5c55.333 0 97.5 17.333 126.5 52s43.5 87.334 43.5 158.001c0 10 -0.333008 22.5 -1 37.5s-3.66699 32.5 -9 52.5h-10zM260 770v20l90 100l20 10h150l10 -10v-20l-110 -100l-20 -10h-130z" />
    <glyph glyph-name="oslashacute" unicode="&#x1ff;" horiz-adv-x="560" 
d="M320 350l-0.000976562 10.001c-10 5.33301 -17.833 8.33301 -23.5 9s-11.167 1 -16.5 1c-25.333 0 -46.666 -8.83301 -63.999 -26.5s-26 -48.834 -26 -93.501v-10h10zM279.999 -9.99902c-25.333 0 -50.333 2.83301 -75 8.5s-49.667 16.167 -75 31.5h-20l-20 -20l-20 -10
h-30l-10 10v70l20 20v20c-10 20 -17.5 40.333 -22.5 61s-7.5 43.667 -7.5 69c0 40 6 76 18 108s29.333 59.333 52 82s50 40 82 52s68 18 108 18c25.333 0 50.333 -2.83301 75 -8.5s49.667 -16.167 75 -31.5h20l20 20l20 10h30l10 -10v-70l-20 -20v-20
c10 -20 17.5 -40.333 22.5 -61s7.5 -43.667 7.5 -69c0 -40 -6 -76 -18 -108s-29.333 -59.333 -52 -82s-50 -40 -82 -52s-68 -18 -108 -18zM239.999 150.001v-9.99902c10 -5.33301 17.833 -8.33301 23.5 -9s11.167 -1 16.5 -1c12.667 0 24.5 2 35.5 6s20.5 10.667 28.5 20
s14.333 21.666 19 36.999s7 34.333 7 57v10h-10zM159.999 570.002v20l90 100l20 10h150l10 -10v-20l-110 -100l-20 -10h-130z" />
    <glyph glyph-name="Scommaaccent" unicode="&#x218;" horiz-adv-x="670" 
d="M470 200c0 12.667 -2.49902 22.832 -7.49902 30.499s-12.167 14 -21.5 19s-20.833 9 -34.5 12s-29.167 5.83301 -46.5 8.5l-70 10c-52.667 7.33301 -95.334 18.833 -128.001 34.5s-58 33.834 -76 54.501s-30.167 43 -36.5 67s-9.5 48.667 -9.5 74
c0 27.333 5.66699 53.166 17 77.499s29 45.5 53 63.5s54.167 32.333 90.5 43s79.5 16 129.5 16c90 0 160.833 -17.5 212.5 -52.5s77.5 -87.5 77.5 -157.5l-10 -10h-160l-10 10c0 20 -8.33301 36.667 -25 50s-45 20 -85 20c-80 0 -120 -20 -120 -60
c0 -20 9.5 -33.667 28.5 -41s46.167 -13.666 81.5 -18.999l70 -10c52.667 -7.33301 95.334 -18.333 128.001 -33s58 -32 76 -52s30.167 -42.333 36.5 -67s9.5 -50.667 9.5 -78s-5.33301 -54.166 -16 -80.499s-27.834 -49.833 -51.501 -70.5s-54.667 -37.334 -93 -50.001
s-84.833 -19 -139.5 -19c-100.667 0 -177.5 19.5 -230.5 58.5s-79.5 96.167 -79.5 171.5l10 10h160l10 -10c0 -30 10.333 -52.5 31 -67.5s53.667 -22.5 99 -22.5c40 0 71.667 5.33301 95 16s35 28.667 35 54zM410.001 -160.002l-60 -50l-20 -10h-60v10l40 50v10l-10 10h-30
l-10 10v80l10 10h140l10 -10v-90z" />
    <glyph glyph-name="scommaaccent" unicode="&#x219;" horiz-adv-x="510" 
d="M330 150c0 7.33301 -1.5 13.1719 -4.5 17.5049s-8.16699 7.66602 -15.5 9.99902s-17.5 4.33301 -30.5 6l-49.5 6.5c-40 4.66699 -73 12.5 -99 23.5s-46.5 23.667 -61.5 38s-25.333 30 -31 47s-8.5 34.167 -8.5 51.5c0 22.667 4 43.667 12 63s20.667 36.166 38 50.499
s40 25.666 68 33.999s62 12.5 102 12.5c30 0 58.333 -3.16699 85 -9.5s50 -16 70 -29s35.833 -29.667 47.5 -50s17.5 -44.166 17.5 -71.499l-10 -10h-140l-10 10c0 15.333 -3.66699 25.833 -11 31.5s-23.666 8.5 -48.999 8.5c-15.333 0 -29.166 -1.33301 -41.499 -4
s-18.5 -11.334 -18.5 -26.001c0 -5.33301 1 -9.83301 3 -13.5s6 -7 12 -10s15 -5.83301 27 -8.5s28 -5.33398 48 -8.00098c40 -5.33301 73.5 -11.833 100.5 -19.5s48.5 -17.834 64.5 -30.501s27.5 -28 34.5 -46s10.5 -39.333 10.5 -64c0 -20 -3.5 -40.167 -10.5 -60.5
s-19.333 -38.5 -37 -54.5s-41.334 -29.167 -71.001 -39.5s-66.834 -15.5 -111.501 -15.5c-80 0 -140 15.833 -180 47.5s-60 72.5 -60 122.5l10 10h140l10 -10c0 -20 7 -33.333 21 -40s33.667 -10 59 -10c20 0 36.667 1.66699 50 5s20 15 20 35zM329 -159.994l-60 -50
l-20 -10h-60v10l40 50v10l-10 10h-30l-10 10v80l10 10h140l10 -10v-90z" />
    <glyph glyph-name="uni021A" unicode="&#x21a;" horiz-adv-x="660" 
d="M630 550h-200l-10 -10v-530l-10 -10h-160l-10 10v530l-10 10h-200l-10 10v130l10 10h600l10 -10v-130zM400 -160l-60 -50l-20 -10h-60v10l40 50v10l-10 10h-30l-10 10v80l10 10h140l10 -10v-90z" />
    <glyph glyph-name="uni021B" unicode="&#x21b;" horiz-adv-x="430" 
d="M280 620v-110l10 -10h100l10 -10v-120l-10 -10h-100l-10 -10v-180c0 -20 10 -30 30 -30h80l10 -10v-120l-10 -10h-110c-22.667 0 -44.167 2.66699 -64.5 8s-38.333 14 -54 26s-28.167 27.5 -37.5 46.5s-14 42.167 -14 69.5v200l-10 10h-80l-10 10v120l10 10h80l10 10v110
l10 10h150zM310 -160l-60 -50l-20 -10h-60v10l40 50v10l-10 10h-30l-10 10v80l10 10h140l10 -10v-90z" />
    <glyph glyph-name="uni0259" unicode="&#x259;" horiz-adv-x="540" 
d="M20 290l10.002 9.99902h300l10 10c0 4.66699 -0.833008 11 -2.5 19s-5.33398 15.833 -11.001 23.5s-13.834 14.167 -24.501 19.5s-24.667 8 -42 8c-30 0 -50 -10 -60 -30l-10 -10h-150l-10 10c2.66699 14.667 8.66699 31.334 18 50.001s23 36.167 41 52.5s41 30 69 41
s62 16.5 102 16.5c44.667 0 83.5 -6.5 116.5 -19.5s60 -31 81 -54s36.667 -50.5 47 -82.5s15.5 -66.667 15.5 -104s-5 -72 -15 -104s-25.333 -59.5 -46 -82.5s-46.667 -41 -78 -54s-68.333 -19.5 -111 -19.5s-79.667 6.5 -111 19.5s-57.333 31 -78 54s-36 50.5 -46 82.5
s-15 66.667 -15 104v40zM200.002 179.999c0 -2.66699 0.833008 -7.16699 2.5 -13.5s5 -13 10 -20s12 -13.167 21 -18.5s21.167 -8 36.5 -8c14.667 0 26.667 2.66699 36 8s16.5 11.5 21.5 18.5s8.33301 13.667 10 20s2.5 10.833 2.5 13.5l-10 10h-120z" />
    <glyph glyph-name="circumflex" unicode="&#x2c6;" horiz-adv-x="480" 
d="M430 560h-110l-20 10l-50 40h-20l-50 -40l-20 -10h-110l-10 10v20l90 100l20 10h180l20 -10l90 -100v-20z" />
    <glyph glyph-name="caron" unicode="&#x2c7;" horiz-adv-x="480" 
d="M440 690v-20l-90 -100l-20 -10h-180l-20 10l-90 100v20l10 10h110l20 -10l50 -40h20l50 40l20 10h110z" />
    <glyph glyph-name="uni02C9" unicode="&#x2c9;" horiz-adv-x="480" 
d="M430 560h-370l-10 10v110l10 10h370l10 -10v-110z" />
    <glyph glyph-name="breve" unicode="&#x2d8;" horiz-adv-x="480" 
d="M160 690c0 -15.333 5.83496 -27.5 17.502 -36.5s32.5 -13.5 62.5 -13.5s50.833 4.5 62.5 13.5s17.5 21.167 17.5 36.5l10 10h80l10 -10c0 -20 -3.33301 -39 -10 -57s-17.167 -34 -31.5 -48s-32.833 -25 -55.5 -33s-50.334 -12 -83.001 -12s-60.334 4 -83.001 12
s-41.167 19 -55.5 33s-24.833 30 -31.5 48s-10 37 -10 57l10 10h80z" />
    <glyph glyph-name="dotaccent" unicode="&#x2d9;" horiz-adv-x="480" 
d="M310 560h-150l-10 10v120l10 10h150l10 -10v-120z" />
    <glyph glyph-name="ring" unicode="&#x2da;" horiz-adv-x="480" 
d="M290 660c0 10 -3.33301 19.167 -10 27.5s-20 12.5 -40 12.5s-33.333 -4.16699 -40 -12.5s-10 -17.5 -10 -27.5s3.33301 -19.167 10 -27.5s20 -12.5 40 -12.5s33.333 4.16699 40 12.5s10 17.5 10 27.5zM100 660c0 35.333 12 64.166 36 86.499s58.667 33.5 104 33.5
s80 -11.167 104 -33.5s36 -51.166 36 -86.499c0 -15.333 -3 -30.166 -9 -44.499s-15 -27 -27 -38s-26.667 -20 -44 -27s-37.333 -10.5 -60 -10.5s-42.667 3.5 -60 10.5s-32 16 -44 27s-21 23.667 -27 38s-9 29.166 -9 44.499z" />
    <glyph glyph-name="ogonek" unicode="&#x2db;" horiz-adv-x="480" 
d="M350 10l-10 -10c-30 -5.33301 -54.167 -12.833 -72.5 -22.5s-27.5 -22.167 -27.5 -37.5s4.5 -25.833 13.5 -31.5s21.167 -8.5 36.5 -8.5c14 0 26 1.66699 36 5c5.33301 1.33301 10 3 14 5l10 -10v-80l-10 -10c-8.66699 -4 -18 -7.33301 -28 -10
c-9.33301 -2.66699 -19.833 -5 -31.5 -7s-25.167 -3 -40.5 -3c-40 0 -73.333 9.5 -100 28.5s-40 46.167 -40 81.5c0 30 9.5 54.5 28.5 73.5s46.167 31.167 81.5 36.5h140z" />
    <glyph glyph-name="tilde" unicode="&#x2dc;" horiz-adv-x="480" 
d="M310 540c-20 0 -37.667 3.66699 -53 11s-29 15.333 -41 24s-22.5 16.667 -31.5 24s-17.167 11 -24.5 11c-10 0 -17.5 -2.83301 -22.5 -8.5s-7.5 -16.167 -7.5 -31.5l-10 -10h-70l-10 10c0 40 10 73.333 30 100s50 40 90 40c20 0 37.667 -3.66699 53 -11
s29 -15.333 41 -24s22.5 -16.667 31.5 -24s17.167 -11 24.5 -11c10 0 17.5 2.83301 22.5 8.5s7.5 16.167 7.5 31.5l10 10h70l10 -10c0 -40 -10 -73.333 -30 -100s-50 -40 -90 -40z" />
    <glyph glyph-name="hungarumlaut" unicode="&#x2dd;" horiz-adv-x="480" 
d="M-10 570v20l90 100l20 10h150l10 -10v-20l-110 -100l-20 -10h-130zM230 570v20l90 100l20 10h150l10 -10v-20l-110 -100l-20 -10h-130z" />
    <glyph glyph-name="uni0394" unicode="&#x394;" horiz-adv-x="620" 
d="M20 10v130l190 550l10 10h180l10 -10l190 -550v-130l-10 -10h-560zM200 150v-10h220v10l-100 330h-20z" />
    <glyph glyph-name="uni03A9" unicode="&#x3a9;" horiz-adv-x="760" 
d="M160 150c-25.333 24.667 -45.666 47.5 -60.999 68.5s-27.5 41.167 -36.5 60.5s-15 38.666 -18 57.999s-4.5 40.333 -4.5 63c0 52.667 8.83301 98.334 26.5 137.001s41.834 70.834 72.501 96.501s66.667 44.834 108 57.501s85.666 19 132.999 19
s91.666 -6.33301 132.999 -19s77.333 -31.834 108 -57.501s54.834 -57.834 72.501 -96.501s26.5 -84.334 26.5 -137.001c0 -22.667 -1.5 -43.667 -4.5 -63s-9 -38.666 -18 -57.999s-21.333 -39.5 -37 -60.5s-35.834 -43.833 -60.501 -68.5v-10h100l10 -10v-120l-10 -10h-260
l-10 10v130l10 20c22.667 20 41.167 39.5 55.5 58.5s25.5 37.833 33.5 56.5s13.5 37.5 16.5 56.5s4.5 38.5 4.5 58.5c0 34.667 -4.66699 63.667 -14 87s-21.833 41.833 -37.5 55.5s-33.667 23.334 -54 29.001s-41.833 8.5 -64.5 8.5s-44.167 -2.83301 -64.5 -8.5
s-38.333 -15.334 -54 -29.001s-28.167 -32.167 -37.5 -55.5s-14 -52.333 -14 -87c0 -20 1.5 -39.5 4.5 -58.5s8.5 -37.833 16.5 -56.5s19.167 -37.5 33.5 -56.5s32.833 -38.5 55.5 -58.5l10 -20v-130l-10 -10h-250l-20 10v120l10 10h100v10z" />
    <glyph glyph-name="uni03BC" unicode="&#x3bc;" horiz-adv-x="680" 
d="M430 30c-10 -15.333 -22.5 -25.833 -37.5 -31.5s-32.5 -8.5 -52.5 -8.5s-37.5 2.83301 -52.5 8.5s-27.5 16.167 -37.5 31.5h-10v-220l-10 -10h-150l-10 10v680l10 10h150l10 -10v-250c0 -22.667 2.83301 -41.167 8.5 -55.5s13.167 -25.5 22.5 -33.5s20 -13.5 32 -16.5
s24.333 -4.5 37 -4.5s25 1.5 37 4.5s22.667 8.5 32 16.5s16.833 19.167 22.5 33.5s8.5 32.833 8.5 55.5v250l10 10h150l10 -10v-480l-10 -10h-140l-10 10l-10 20h-10z" />
    <glyph glyph-name="pi" unicode="&#x3c0;" horiz-adv-x="640" 
d="M580 0h-220l-10 10v340l-10 10h-50l-10 -10v-340l-10 -10h-140l-10 10v340l-10 10h-60l-10 10v120l10 10h540l10 -10v-120l-10 -10h-70l-10 -10v-200l10 -10h60l10 -11v-119z" />
    </font>
</defs>
</svg>
